  0
SECTION
  2
HEADER
  9
$ACADVER
  1
AC1014
  9
$ACADMAINTVER
 70
     9
  9
$DWGCODEPAGE
  3
ANSI_1252
  9
$INSBASE
 10
0.0
 20
0.0
 30
0.0
  9
$EXTMIN
 10
1.000000000000000E+20
 20
1.000000000000000E+20
 30
1.000000000000000E+20
  9
$EXTMAX
 10
-1.000000000000000E+20
 20
-1.000000000000000E+20
 30
-1.000000000000000E+20
  9
$LIMMIN
 10
0.0
 20
0.0
  9
$LIMMAX
 10
12.0
 20
9.0
  9
$ORTHOMODE
 70
     0
  9
$REGENMODE
 70
     1
  9
$FILLMODE
 70
     1
  9
$QTEXTMODE
 70
     0
  9
$MIRRTEXT
 70
     1
  9
$DRAGMODE
 70
     2
  9
$LTSCALE
 40
1.0
  9
$OSMODE
 70
    37
  9
$ATTMODE
 70
     1
  9
$TEXTSIZE
 40
0.2
  9
$TRACEWID
 40
0.05
  9
$TEXTSTYLE
  7
STANDARD
  9
$CLAYER
  8
0
  9
$CELTYPE
  6
BYLAYER
  9
$CECOLOR
 62
   256
  9
$CELTSCALE
 40
1.0
  9
$DELOBJ
 70
     1
  9
$DISPSILH
 70
     0
  9
$DIMSCALE
 40
1.0
  9
$DIMASZ
 40
0.18
  9
$DIMEXO
 40
0.0625
  9
$DIMDLI
 40
0.38
  9
$DIMRND
 40
0.0
  9
$DIMDLE
 40
0.0
  9
$DIMEXE
 40
0.18
  9
$DIMTP
 40
0.0
  9
$DIMTM
 40
0.0
  9
$DIMTXT
 40
0.18
  9
$DIMCEN
 40
0.09
  9
$DIMTSZ
 40
0.0
  9
$DIMTOL
 70
     0
  9
$DIMLIM
 70
     0
  9
$DIMTIH
 70
     1
  9
$DIMTOH
 70
     1
  9
$DIMSE1
 70
     0
  9
$DIMSE2
 70
     0
  9
$DIMTAD
 70
     0
  9
$DIMZIN
 70
     0
  9
$DIMBLK
  1

  9
$DIMASO
 70
     1
  9
$DIMSHO
 70
     1
  9
$DIMPOST
  1

  9
$DIMAPOST
  1

  9
$DIMALT
 70
     0
  9
$DIMALTD
 70
     2
  9
$DIMALTF
 40
25.4
  9
$DIMLFAC
 40
1.0
  9
$DIMTOFL
 70
     0
  9
$DIMTVP
 40
0.0
  9
$DIMTIX
 70
     0
  9
$DIMSOXD
 70
     0
  9
$DIMSAH
 70
     0
  9
$DIMBLK1
  1

  9
$DIMBLK2
  1

  9
$DIMSTYLE
  2
STANDARD
  9
$DIMCLRD
 70
     0
  9
$DIMCLRE
 70
     0
  9
$DIMCLRT
 70
     0
  9
$DIMTFAC
 40
1.0
  9
$DIMGAP
 40
0.09
  9
$DIMJUST
 70
     0
  9
$DIMSD1
 70
     0
  9
$DIMSD2
 70
     0
  9
$DIMTOLJ
 70
     1
  9
$DIMTZIN
 70
     0
  9
$DIMALTZ
 70
     0
  9
$DIMALTTZ
 70
     0
  9
$DIMFIT
 70
     3
  9
$DIMUPT
 70
     0
  9
$DIMUNIT
 70
     2
  9
$DIMDEC
 70
     4
  9
$DIMTDEC
 70
     4
  9
$DIMALTU
 70
     2
  9
$DIMALTTD
 70
     2
  9
$DIMTXSTY
  7
STANDARD
  9
$DIMAUNIT
 70
     0
  9
$LUNITS
 70
     2
  9
$LUPREC
 70
     4
  9
$SKETCHINC
 40
0.1
  9
$FILLETRAD
 40
0.5
  9
$AUNITS
 70
     0
  9
$AUPREC
 70
     0
  9
$MENU
  1
.
  9
$ELEVATION
 40
0.0
  9
$PELEVATION
 40
0.0
  9
$THICKNESS
 40
0.0
  9
$LIMCHECK
 70
     0
  9
$CHAMFERA
 40
0.0
  9
$CHAMFERB
 40
0.0
  9
$CHAMFERC
 40
0.0
  9
$CHAMFERD
 40
0.0
  9
$SKPOLY
 70
     0
  9
$TDCREATE
 40
2456986.567743368
  9
$TDUPDATE
 40
2456986.567744271
  9
$TDINDWG
 40
0.0000000116
  9
$TDUSRTIMER
 40
0.0000000116
  9
$USRTIMER
 70
     1
  9
$ANGBASE
 50
0.0
  9
$ANGDIR
 70
     0
  9
$PDMODE
 70
     0
  9
$PDSIZE
 40
0.0
  9
$PLINEWID
 40
0.0
  9
$COORDS
 70
     1
  9
$SPLFRAME
 70
     0
  9
$SPLINETYPE
 70
     6
  9
$SPLINESEGS
 70
     8
  9
$ATTDIA
 70
     0
  9
$ATTREQ
 70
     1
  9
$HANDLING
 70
     1
  9
$HANDSEED
  5
42C
  9
$SURFTAB1
 70
     6
  9
$SURFTAB2
 70
     6
  9
$SURFTYPE
 70
     6
  9
$SURFU
 70
     6
  9
$SURFV
 70
     6
  9
$UCSNAME
  2

  9
$UCSORG
 10
0.0
 20
0.0
 30
0.0
  9
$UCSXDIR
 10
1.0
 20
0.0
 30
0.0
  9
$UCSYDIR
 10
0.0
 20
1.0
 30
0.0
  9
$PUCSNAME
  2

  9
$PUCSORG
 10
0.0
 20
0.0
 30
0.0
  9
$PUCSXDIR
 10
1.0
 20
0.0
 30
0.0
  9
$PUCSYDIR
 10
0.0
 20
1.0
 30
0.0
  9
$USERI1
 70
     0
  9
$USERI2
 70
     0
  9
$USERI3
 70
     0
  9
$USERI4
 70
     0
  9
$USERI5
 70
     0
  9
$USERR1
 40
0.0
  9
$USERR2
 40
0.0
  9
$USERR3
 40
0.0
  9
$USERR4
 40
0.0
  9
$USERR5
 40
0.0
  9
$WORLDVIEW
 70
     1
  9
$SHADEDGE
 70
     3
  9
$SHADEDIF
 70
    70
  9
$TILEMODE
 70
     1
  9
$MAXACTVP
 70
    64
  9
$PINSBASE
 10
0.0
 20
0.0
 30
0.0
  9
$PLIMCHECK
 70
     0
  9
$PEXTMIN
 10
1.000000000000000E+20
 20
1.000000000000000E+20
 30
1.000000000000000E+20
  9
$PEXTMAX
 10
-1.000000000000000E+20
 20
-1.000000000000000E+20
 30
-1.000000000000000E+20
  9
$PLIMMIN
 10
0.0
 20
0.0
  9
$PLIMMAX
 10
12.0
 20
9.0
  9
$UNITMODE
 70
     0
  9
$VISRETAIN
 70
     1
  9
$PLINEGEN
 70
     0
  9
$PSLTSCALE
 70
     1
  9
$TREEDEPTH
 70
  3020
  9
$PICKSTYLE
 70
     1
  9
$CMLSTYLE
  2
STANDARD
  9
$CMLJUST
 70
     0
  9
$CMLSCALE
 40
1.0
  9
$PROXYGRAPHICS
 70
     1
  9
$MEASUREMENT
 70
     1
  0
ENDSEC
  0
SECTION
  2
CLASSES
  0
CLASS
  1
ACDBDICTIONARYWDFLT
  2
AcDbDictionaryWithDefault
  3
ObjectDBX Classes
 90
        0
280
     0
281
     0
  0
CLASS
  1
VISUALSTYLE
  2
AcDbVisualStyle
  3
ObjectDBX Classes
 90
     4095
280
     0
281
     0
  0
CLASS
  1
MATERIAL
  2
AcDbMaterial
  3
ObjectDBX Classes
 90
     1153
280
     0
281
     0
  0
CLASS
  1
SCALE
  2
AcDbScale
  3
ObjectDBX Classes
 90
     1153
280
     0
281
     0
  0
CLASS
  1
SUN
  2
AcDbSun
  3
SCENEOE
 90
     1153
280
     0
281
     0
  0
CLASS
  1
DICTIONARYVAR
  2
AcDbDictionaryVar
  3
ObjectDBX Classes
 90
        0
280
     0
281
     0
  0
CLASS
  1
XRECORD
  2
AcDbXrecord
  3
ObjectDBX Classes
 90
        0
280
     0
281
     0
  0
CLASS
  1
LWPOLYLINE
  2
AcDbPolyline
  3
ObjectDBX Classes
 90
        0
280
     0
281
     1
  0
CLASS
  1
HATCH
  2
AcDbHatch
  3
ObjectDBX Classes
 90
        0
280
     0
281
     1
  0
CLASS
  1
ACDBPLACEHOLDER
  2
AcDbPlaceHolder
  3
ObjectDBX Classes
 90
        0
280
     0
281
     0
  0
CLASS
  1
LAYOUT
  2
AcDbLayout
  3
ObjectDBX Classes
 90
        0
280
     0
281
     0
  0
ENDSEC
  0
SECTION
  2
TABLES
  0
TABLE
  2
VPORT
  5
8
102
{ACAD_XDICTIONARY
360
422
102
}
330
0
100
AcDbSymbolTable
 70
     1
  0
VPORT
  5
29
330
8
100
AcDbSymbolTableRecord
100
AcDbViewportTableRecord
  2
*ACTIVE
 70
     0
 10
0.0
 20
0.0
 11
1.0
 21
1.0
 12
0.0
 22
0.0
 13
0.0
 23
0.0
 14
0.5
 24
0.5
 15
0.5
 25
0.5
 16
0.0
 26
0.0
 36
1.0
 17
0.0
 27
0.0
 37
-1000.0
 40
56.1465422267672
 41
2.146478873239436
 42
50.0
 43
116.0911780263687
 44
169.8292175877839
 50
0.0
 51
0.0
 71
     0
 72
   100
 73
     1
 74
     3
 75
     0
 76
     0
 77
     0
 78
     0
  0
ENDTAB
  0
TABLE
  2
LTYPE
  5
5
330
0
100
AcDbSymbolTable
 70
     1
  0
LTYPE
  5
14
330
5
100
AcDbSymbolTableRecord
100
AcDbLinetypeTableRecord
  2
BYBLOCK
 70
     0
  3

 72
    65
 73
     0
 40
0.0
  0
LTYPE
  5
15
330
5
100
AcDbSymbolTableRecord
100
AcDbLinetypeTableRecord
  2
BYLAYER
 70
     0
  3

 72
    65
 73
     0
 40
0.0
  0
LTYPE
  5
16
330
5
100
AcDbSymbolTableRecord
100
AcDbLinetypeTableRecord
  2
CONTINUOUS
 70
     0
  3
Solid line
 72
    65
 73
     0
 40
0.0
  0
ENDTAB
  0
TABLE
  2
LAYER
  5
2
330
0
100
AcDbSymbolTable
 70
     3
  0
LAYER
  5
10
330
2
100
AcDbSymbolTableRecord
100
AcDbLayerTableRecord
  2
0
 70
     0
 62
     7
  6
CONTINUOUS
  0
LAYER
  5
6A
330
2
100
AcDbSymbolTableRecord
100
AcDbLayerTableRecord
  2
PROFILEEDGES
 70
     0
 62
     7
  6
CONTINUOUS
  0
LAYER
  5
6B
330
2
100
AcDbSymbolTableRecord
100
AcDbLayerTableRecord
  2
SECTIONCUTEDGES
 70
     0
 62
     7
  6
CONTINUOUS
  0
ENDTAB
  0
TABLE
  2
STYLE
  5
3
330
0
100
AcDbSymbolTable
 70
     1
  0
STYLE
  5
11
330
3
100
AcDbSymbolTableRecord
100
AcDbTextStyleTableRecord
  2
STANDARD
 70
     0
 40
0.0
 41
1.0
 50
0.0
 71
     0
 42
0.2
  3
txt
  4

  0
ENDTAB
  0
TABLE
  2
VIEW
  5
6
330
0
100
AcDbSymbolTable
 70
     0
  0
ENDTAB
  0
TABLE
  2
UCS
  5
7
330
0
100
AcDbSymbolTable
 70
     0
  0
ENDTAB
  0
TABLE
  2
APPID
  5
9
330
0
100
AcDbSymbolTable
 70
     1
  0
APPID
  5
12
330
9
100
AcDbSymbolTableRecord
100
AcDbRegAppTableRecord
  2
ACAD
 70
     0
  0
ENDTAB
  0
TABLE
  2
DIMSTYLE
  5
A
330
0
100
AcDbSymbolTable
 70
     1
  0
DIMSTYLE
105
27
330
A
100
AcDbSymbolTableRecord
100
AcDbDimStyleTableRecord
  2
STANDARD
 70
     0
  3

  4

  5

  6

  7

 40
1.0
 41
0.18
 42
0.0625
 43
0.38
 44
0.18
 45
0.0
 46
0.0
 47
0.0
 48
0.0
140
0.18
141
0.09
142
0.0
143
25.4
144
1.0
145
0.0
146
1.0
147
0.09
 71
     0
 72
     0
 73
     1
 74
     1
 75
     0
 76
     0
 77
     0
 78
     0
170
     0
171
     2
172
     0
173
     0
174
     0
175
     0
176
     0
177
     0
178
     0
270
     2
271
     4
272
     4
273
     2
274
     2
340
11
275
     0
280
     0
281
     0
282
     0
283
     1
284
     0
285
     0
286
     0
287
     3
288
     0
  0
ENDTAB
  0
TABLE
  2
BLOCK_RECORD
  5
1
330
0
100
AcDbSymbolTable
 70
     1
  0
BLOCK_RECORD
  5
1F
330
1
100
AcDbSymbolTableRecord
100
AcDbBlockTableRecord
  2
*MODEL_SPACE
  0
BLOCK_RECORD
  5
1B
330
1
100
AcDbSymbolTableRecord
100
AcDbBlockTableRecord
  2
*PAPER_SPACE
  0
ENDTAB
  0
ENDSEC
  0
SECTION
  2
BLOCKS
  0
BLOCK
  5
20
330
1F
100
AcDbEntity
  8
0
100
AcDbBlockBegin
  2
*MODEL_SPACE
 70
     0
 10
0.0
 20
0.0
 30
0.0
  3
*MODEL_SPACE
  1

  0
ENDBLK
  5
21
330
1F
100
AcDbEntity
  8
0
100
AcDbBlockEnd
  0
BLOCK
  5
1C
330
1B
100
AcDbEntity
 67
     1
  8
0
100
AcDbBlockBegin
  2
*PAPER_SPACE
 70
     0
 10
0.0
 20
0.0
 30
0.0
  3
*PAPER_SPACE
  1

  0
ENDBLK
  5
1D
330
1B
100
AcDbEntity
 67
     1
  8
0
100
AcDbBlockEnd
  0
ENDSEC
  0
SECTION
  2
ENTITIES
  0
LINE
  5
6C
330
1F
100
AcDbEntity
  8
0
100
AcDbLine
 10
-23.68057265668949
 20
-10.45619574351524
 30
0.0
 11
-23.51664069732404
 21
-10.86807958454795
 31
0.0
  0
LINE
  5
6D
330
1F
100
AcDbEntity
  8
0
100
AcDbLine
 10
-23.51664069732404
 20
-10.86807958454795
 30
0.0
 11
-23.34554534139137
 21
-11.27703968649376
 31
0.0
  0
LINE
  5
6E
330
1F
100
AcDbEntity
  8
0
100
AcDbLine
 10
-23.34554534139137
 20
-11.27703968649376
 30
0.0
 11
-23.16733870619433
 21
-11.68295147614393
 31
0.0
  0
LINE
  5
6F
330
1F
100
AcDbEntity
  8
0
100
AcDbLine
 10
-23.16733870619433
 20
-11.68295147614393
 30
0.0
 11
-22.98207507520034
 21
-12.08569130883519
 31
0.0
  0
LINE
  5
70
330
1F
100
AcDbEntity
  8
0
100
AcDbLine
 10
-22.98207507520034
 20
-12.08569130883519
 30
0.0
 11
-22.78981088150608
 21
-12.48513650611305
 31
0.0
  0
LINE
  5
71
330
1F
100
AcDbEntity
  8
0
100
AcDbLine
 10
-22.78981088150608
 20
-12.48513650611305
 30
0.0
 11
-22.59060469064746
 21
-12.88116539310093
 31
0.0
  0
LINE
  5
72
330
1F
100
AcDbEntity
  8
0
100
AcDbLine
 10
-22.59060469064746
 20
-12.88116539310093
 30
0.0
 11
-22.38451718275997
 21
-13.27365733556342
 31
0.0
  0
LINE
  5
73
330
1F
100
AcDbEntity
  8
0
100
AcDbLine
 10
-22.38451718275997
 20
-13.27365733556342
 30
0.0
 11
-22.17161113409492
 21
-13.6624927766527
 31
0.0
  0
LINE
  5
74
330
1F
100
AcDbEntity
  8
0
100
AcDbLine
 10
-22.17161113409492
 20
-13.6624927766527
 30
0.0
 11
-21.95195139789721
 21
-14.04755327332667
 31
0.0
  0
LINE
  5
75
330
1F
100
AcDbEntity
  8
0
100
AcDbLine
 10
-21.95195139789721
 20
-14.04755327332667
 30
0.0
 11
-21.72560488465037
 21
-14.42872153242789
 31
0.0
  0
LINE
  5
76
330
1F
100
AcDbEntity
  8
0
100
AcDbLine
 10
-21.72560488465037
 20
-14.42872153242789
 30
0.0
 11
-21.492640541695
 21
-14.80588144641217
 31
0.0
  0
LINE
  5
77
330
1F
100
AcDbEntity
  8
0
100
AcDbLine
 10
-21.492640541695
 20
-14.80588144641217
 30
0.0
 11
-21.25312933222675
 21
-15.17891812871608
 31
0.0
  0
LINE
  5
78
330
1F
100
AcDbEntity
  8
0
100
AcDbLine
 10
-21.25312933222675
 20
-15.17891812871608
 30
0.0
 11
-21.00714421368021
 21
-15.54771794875252
 31
0.0
  0
LINE
  5
79
330
1F
100
AcDbEntity
  8
0
100
AcDbLine
 10
-21.00714421368021
 20
-15.54771794875252
 30
0.0
 11
-20.75476011550542
 21
-15.91216856652363
 31
0.0
  0
LINE
  5
7A
330
1F
100
AcDbEntity
  8
0
100
AcDbLine
 10
-20.75476011550542
 20
-15.91216856652363
 30
0.0
 11
-20.49605391634356
 21
-16.27215896684076
 31
0.0
  0
LINE
  5
7B
330
1F
100
AcDbEntity
  8
0
100
AcDbLine
 10
-20.49605391634356
 20
-16.27215896684076
 30
0.0
 11
-20.23110442060906
 21
-16.62757949314064
 31
0.0
  0
LINE
  5
7C
330
1F
100
AcDbEntity
  8
0
100
AcDbLine
 10
-20.23110442060906
 20
-16.62757949314064
 30
0.0
 11
-19.95999233448492
 21
-16.97832188088795
 31
0.0
  0
LINE
  5
7D
330
1F
100
AcDbEntity
  8
0
100
AcDbLine
 10
-19.95999233448492
 20
-16.97832188088795
 30
0.0
 11
-19.68280024133892
 21
-17.32427929055363
 31
0.0
  0
LINE
  5
7E
330
1F
100
AcDbEntity
  8
0
100
AcDbLine
 10
-19.68280024133892
 20
-17.32427929055363
 30
0.0
 11
-19.39961257656784
 21
-17.66534634015936
 31
0.0
  0
LINE
  5
7F
330
1F
100
AcDbEntity
  8
0
100
AcDbLine
 10
-19.39961257656784
 20
-17.66534634015936
 30
0.0
 11
-19.11051560187766
 21
-18.00141913737783
 31
0.0
  0
LINE
  5
80
330
1F
100
AcDbEntity
  8
0
100
AcDbLine
 10
-19.11051560187766
 20
-18.00141913737783
 30
0.0
 11
-18.81559737900744
 21
-18.3323953111794
 31
0.0
  0
LINE
  5
81
330
1F
100
AcDbEntity
  8
0
100
AcDbLine
 10
-18.81559737900744
 20
-18.3323953111794
 30
0.0
 11
-18.51494774290478
 21
-18.65817404301528
 31
0.0
  0
LINE
  5
82
330
1F
100
AcDbEntity
  8
0
100
AcDbLine
 10
-18.51494774290478
 20
-18.65817404301528
 30
0.0
 11
-18.20865827436131
 21
-18.97865609752787
 31
0.0
  0
LINE
  5
83
330
1F
100
AcDbEntity
  8
0
100
AcDbLine
 10
-18.20865827436131
 20
-18.97865609752787
 30
0.0
 11
-17.89682227211623
 21
-19.2937438527788
 31
0.0
  0
LINE
  5
84
330
1F
100
AcDbEntity
  8
0
100
AcDbLine
 10
-17.89682227211623
 20
-19.2937438527788
 30
0.0
 11
-17.57953472443666
 21
-19.60334132998548
 31
0.0
  0
LINE
  5
85
330
1F
100
AcDbEntity
  8
0
100
AcDbLine
 10
-17.57953472443666
 20
-19.60334132998548
 30
0.0
 11
-17.25689228018325
 21
-19.90735422275721
 31
0.0
  0
LINE
  5
86
330
1F
100
AcDbEntity
  8
0
100
AcDbLine
 10
-17.25689228018325
 20
-19.90735422275721
 30
0.0
 11
-16.92899321937002
 21
-20.20568992582183
 31
0.0
  0
LINE
  5
87
330
1F
100
AcDbEntity
  8
0
100
AcDbLine
 10
-16.92899321937002
 20
-20.20568992582183
 30
0.0
 11
-16.59593742322733
 21
-20.49825756323414
 31
0.0
  0
LINE
  5
88
330
1F
100
AcDbEntity
  8
0
100
AcDbLine
 10
-16.59593742322733
 20
-20.49825756323414
 30
0.0
 11
-16.25782634377708
 21
-20.78496801605761
 31
0.0
  0
LINE
  5
89
330
1F
100
AcDbEntity
  8
0
100
AcDbLine
 10
-16.25782634377708
 20
-20.78496801605761
 30
0.0
 11
-15.91476297292941
 21
-21.06573394951088
 31
0.0
  0
LINE
  5
8A
330
1F
100
AcDbEntity
  8
0
100
AcDbLine
 10
-15.91476297292941
 20
-21.06573394951088
 30
0.0
 11
-15.56685181111041
 21
-21.3404698395708
 31
0.0
  0
LINE
  5
8B
330
1F
100
AcDbEntity
  8
0
100
AcDbLine
 10
-15.56685181111041
 20
-21.3404698395708
 30
0.0
 11
-15.21419883543027
 21
-21.60909199902381
 31
0.0
  0
LINE
  5
8C
330
1F
100
AcDbEntity
  8
0
100
AcDbLine
 10
-15.21419883543027
 20
-21.60909199902381
 30
0.0
 11
-14.8569114674016
 21
-21.87151860295795
 31
0.0
  0
LINE
  5
8D
330
1F
100
AcDbEntity
  8
0
100
AcDbLine
 10
-14.8569114674016
 20
-21.87151860295795
 30
0.0
 11
-14.49509854021783
 21
-22.12766971368747
 31
0.0
  0
LINE
  5
8E
330
1F
100
AcDbEntity
  8
0
100
AcDbLine
 10
-14.49509854021783
 20
-22.12766971368747
 30
0.0
 11
-14.12887026560154
 21
-22.37746730510266
 31
0.0
  0
LINE
  5
8F
330
1F
100
AcDbEntity
  8
0
100
AcDbLine
 10
-14.12887026560154
 20
-22.37746730510266
 30
0.0
 11
-13.75833820023291
 21
-22.62083528643733
 31
0.0
  0
LINE
  5
90
330
1F
100
AcDbEntity
  8
0
100
AcDbLine
 10
-13.75833820023291
 20
-22.62083528643733
 30
0.0
 11
-13.38361521176847
 21
-22.8576995254468
 31
0.0
  0
LINE
  5
91
330
1F
100
AcDbEntity
  8
0
100
AcDbLine
 10
-13.38361521176847
 20
-22.8576995254468
 30
0.0
 11
-13.00481544446053
 21
-23.08798787098932
 31
0.0
  0
LINE
  5
92
330
1F
100
AcDbEntity
  8
0
100
AcDbLine
 10
-13.00481544446053
 20
-23.08798787098932
 30
0.0
 11
-12.62205428438773
 21
-23.31163017500398
 31
0.0
  0
LINE
  5
93
330
1F
100
AcDbEntity
  8
0
100
AcDbLine
 10
-12.62205428438773
 20
-23.31163017500398
 30
0.0
 11
-12.23544832430733
 21
-23.5285583138785
 31
0.0
  0
LINE
  5
94
330
1F
100
AcDbEntity
  8
0
100
AcDbLine
 10
-12.23544832430733
 20
-23.5285583138785
 30
0.0
 11
-11.84511532813989
 21
-23.73870620920036
 31
0.0
  0
LINE
  5
95
330
1F
100
AcDbEntity
  8
0
100
AcDbLine
 10
-11.84511532813989
 20
-23.73870620920036
 30
0.0
 11
-11.45117419509729
 21
-23.94200984788489
 31
0.0
  0
LINE
  5
96
330
1F
100
AcDbEntity
  8
0
100
AcDbLine
 10
-11.45117419509729
 20
-23.94200984788489
 30
0.0
 11
-11.05374492346485
 21
-24.1384073016743
 31
0.0
  0
LINE
  5
97
330
1F
100
AcDbEntity
  8
0
100
AcDbLine
 10
-11.05374492346485
 20
-24.1384073016743
 30
0.0
 11
-10.65294857404869
 21
-24.32783874600162
 31
0.0
  0
LINE
  5
98
330
1F
100
AcDbEntity
  8
0
100
AcDbLine
 10
-10.65294857404869
 20
-24.32783874600162
 30
0.0
 11
-10.24890723329944
 21
-24.51024647821386
 31
0.0
  0
LINE
  5
99
330
1F
100
AcDbEntity
  8
0
100
AcDbLine
 10
-10.24890723329944
 20
-24.51024647821386
 30
0.0
 11
-9.84174397612354
 21
-24.68557493514874
 31
0.0
  0
LINE
  5
9A
330
1F
100
AcDbEntity
  8
0
100
AcDbLine
 10
-9.84174397612354
 20
-24.68557493514874
 30
0.0
 11
-9.431582828393399
 21
-24.85377071005984
 31
0.0
  0
LINE
  5
9B
330
1F
100
AcDbEntity
  8
0
100
AcDbLine
 10
-9.431582828393399
 20
-24.85377071005984
 30
0.0
 11
-9.018548729167929
 21
-25.01478256888479
 31
0.0
  0
LINE
  5
9C
330
1F
100
AcDbEntity
  8
0
100
AcDbLine
 10
-9.018548729167929
 20
-25.01478256888479
 30
0.0
 11
-8.602767492634916
 21
-25.16856146585162
 31
0.0
  0
LINE
  5
9D
330
1F
100
AcDbEntity
  8
0
100
AcDbLine
 10
-8.602767492634916
 20
-25.16856146585162
 30
0.0
 11
-8.184365769786762
 21
-25.31506055841862
 31
0.0
  0
LINE
  5
9E
330
1F
100
AcDbEntity
  8
0
100
AcDbLine
 10
-8.184365769786762
 20
-25.31506055841862
 30
0.0
 11
-7.763471009841403
 21
-25.45423522154304
 31
0.0
  0
LINE
  5
9F
330
1F
100
AcDbEntity
  8
0
100
AcDbLine
 10
-7.763471009841403
 20
-25.45423522154304
 30
0.0
 11
-7.340211421420014
 21
-25.58604306127426
 31
0.0
  0
LINE
  5
A0
330
1F
100
AcDbEntity
  8
0
100
AcDbLine
 10
-7.340211421420014
 20
-25.58604306127426
 30
0.0
 11
-6.914715933493434
 21
-25.71044392766746
 31
0.0
  0
LINE
  5
A1
330
1F
100
AcDbEntity
  8
0
100
AcDbLine
 10
-6.914715933493434
 20
-25.71044392766746
 30
0.0
 11
-6.487114156109158
 21
-25.82739992701364
 31
0.0
  0
LINE
  5
A2
330
1F
100
AcDbEntity
  8
0
100
AcDbLine
 10
-6.487114156109158
 20
-25.82739992701364
 30
0.0
 11
-6.057536340910842
 21
-25.9368754333824
 31
0.0
  0
LINE
  5
A3
330
1F
100
AcDbEntity
  8
0
100
AcDbLine
 10
-6.057536340910842
 20
-25.9368754333824
 30
0.0
 11
-5.626113341462412
 21
-26.03883709947402
 31
0.0
  0
LINE
  5
A4
330
1F
100
AcDbEntity
  8
0
100
AcDbLine
 10
-5.626113341462412
 20
-26.03883709947402
 30
0.0
 11
-5.192976573388788
 21
-26.13325386677726
 31
0.0
  0
LINE
  5
A5
330
1F
100
AcDbEntity
  8
0
100
AcDbLine
 10
-5.192976573388788
 20
-26.13325386677726
 30
0.0
 11
-4.758257974345417
 21
-26.22009697503016
 31
0.0
  0
LINE
  5
A6
330
1F
100
AcDbEntity
  8
0
100
AcDbLine
 10
-4.758257974345417
 20
-26.22009697503016
 30
0.0
 11
-4.322089963828782
 21
-26.2993399709807
 31
0.0
  0
LINE
  5
A7
330
1F
100
AcDbEntity
  8
0
100
AcDbLine
 10
-4.322089963828782
 20
-26.2993399709807
 30
0.0
 11
-3.884605402840138
 21
-26.37095871644465
 31
0.0
  0
LINE
  5
A8
330
1F
100
AcDbEntity
  8
0
100
AcDbLine
 10
-3.884605402840138
 20
-26.37095871644465
 30
0.0
 11
-3.445937553414772
 21
-26.43493139565837
 31
0.0
  0
LINE
  5
A9
330
1F
100
AcDbEntity
  8
0
100
AcDbLine
 10
-3.445937553414772
 20
-26.43493139565837
 30
0.0
 11
-3.006220038029089
 21
-26.49123852192404
 31
0.0
  0
LINE
  5
AA
330
1F
100
AcDbEntity
  8
0
100
AcDbLine
 10
-3.006220038029089
 20
-26.49123852192404
 30
0.0
 11
-2.565586798897915
 21
-26.53986294354554
 31
0.0
  0
LINE
  5
AB
330
1F
100
AcDbEntity
  8
0
100
AcDbLine
 10
-2.565586798897915
 20
-26.53986294354554
 30
0.0
 11
-2.124172057174399
 21
-26.58078984905303
 31
0.0
  0
LINE
  5
AC
330
1F
100
AcDbEntity
  8
0
100
AcDbLine
 10
-2.124172057174399
 20
-26.58078984905303
 30
0.0
 11
-1.682110272064953
 21
-26.6140067717146
 31
0.0
  0
LINE
  5
AD
330
1F
100
AcDbEntity
  8
0
100
AcDbLine
 10
-1.682110272064953
 20
-26.6140067717146
 30
0.0
 11
-1.239536099871663
 21
-26.63950359333385
 31
0.0
  0
LINE
  5
AE
330
1F
100
AcDbEntity
  8
0
100
AcDbLine
 10
-1.239536099871663
 20
-26.63950359333385
 30
0.0
 11
-0.7965843529746983
 21
-26.6572725473319
 31
0.0
  0
LINE
  5
AF
330
1F
100
AcDbEntity
  8
0
100
AcDbLine
 10
-0.7965843529746983
 20
-26.6572725473319
 30
0.0
 11
-0.3533899587671335
 21
-26.66730822111323
 31
0.0
  0
LINE
  5
B0
330
1F
100
AcDbEntity
  8
0
100
AcDbLine
 10
-0.3533899587671335
 20
-26.66730822111323
 30
0.0
 11
0.0
 21
-26.66914119816494
 31
0.0
  0
LINE
  5
B1
330
1F
100
AcDbEntity
  8
0
100
AcDbLine
 10
0.0899120814452383
 20
-26.66960755771441
 30
0.0
 11
0.5331867335666048
 21
-26.66416985673523
 31
0.0
  0
LINE
  5
B2
330
1F
100
AcDbEntity
  8
0
100
AcDbLine
 10
0.5331867335666048
 20
-26.66416985673523
 30
0.0
 11
0.9762989718438292
 21
-26.65099677455207
 31
0.0
  0
LINE
  5
B3
330
1F
100
AcDbEntity
  8
0
100
AcDbLine
 10
0.9762989718438292
 20
-26.65099677455207
 30
0.0
 11
1.41911381999661
 21
-26.63009232381338
 31
0.0
  0
LINE
  5
B4
330
1F
100
AcDbEntity
  8
0
100
AcDbLine
 10
1.41911381999661
 20
-26.63009232381338
 30
0.0
 11
1.861496392332557
 21
-26.60146287221738
 31
0.0
  0
LINE
  5
B5
330
1F
100
AcDbEntity
  8
0
100
AcDbLine
 10
1.861496392332557
 20
-26.60146287221738
 30
0.0
 11
2.303311934834678
 21
-26.56511714057234
 31
0.0
  0
LINE
  5
B6
330
1F
100
AcDbEntity
  8
0
100
AcDbLine
 10
2.303311934834678
 20
-26.56511714057234
 30
0.0
 11
2.744425866208764
 21
-26.52106620014021
 31
0.0
  0
LINE
  5
B7
330
1F
100
AcDbEntity
  8
0
100
AcDbLine
 10
2.744425866208764
 20
-26.52106620014021
 30
0.0
 11
3.184703818878154
 21
-26.4693234692642
 31
0.0
  0
LINE
  5
B8
330
1F
100
AcDbEntity
  8
0
100
AcDbLine
 10
3.184703818878154
 20
-26.4693234692642
 30
0.0
 11
3.624011679913394
 21
-26.40990470928135
 31
0.0
  0
LINE
  5
B9
330
1F
100
AcDbEntity
  8
0
100
AcDbLine
 10
3.624011679913394
 20
-26.40990470928135
 30
0.0
 11
4.062215631884343
 21
-26.34282801972158
 31
0.0
  0
LINE
  5
BA
330
1F
100
AcDbEntity
  8
0
100
AcDbLine
 10
4.062215631884343
 20
-26.34282801972158
 30
0.0
 11
4.499182193622254
 21
-26.26811383279429
 31
0.0
  0
LINE
  5
BB
330
1F
100
AcDbEntity
  8
0
100
AcDbLine
 10
4.499182193622254
 20
-26.26811383279429
 30
0.0
 11
4.934778260879431
 21
-26.18578490716461
 31
0.0
  0
LINE
  5
BC
330
1F
100
AcDbEntity
  8
0
100
AcDbLine
 10
4.934778260879431
 20
-26.18578490716461
 30
0.0
 11
5.368871146874074
 21
-26.09586632102081
 31
0.0
  0
LINE
  5
BD
330
1F
100
AcDbEntity
  8
0
100
AcDbLine
 10
5.368871146874074
 20
-26.09586632102081
 30
0.0
 11
5.801328622707955
 21
-25.9983854644353
 31
0.0
  0
LINE
  5
BE
330
1F
100
AcDbEntity
  8
0
100
AcDbLine
 10
5.801328622707955
 20
-25.9983854644353
 30
0.0
 11
6.232018957644629
 21
-25.89337203102131
 31
0.0
  0
LINE
  5
BF
330
1F
100
AcDbEntity
  8
0
100
AcDbLine
 10
6.232018957644629
 20
-25.89337203102131
 30
0.0
 11
6.660810959235881
 21
-25.78085800888796
 31
0.0
  0
LINE
  5
C0
330
1F
100
AcDbEntity
  8
0
100
AcDbLine
 10
6.660810959235881
 20
-25.78085800888796
 30
0.0
 11
7.087574013284221
 21
-25.66087767089632
 31
0.0
  0
LINE
  5
C1
330
1F
100
AcDbEntity
  8
0
100
AcDbLine
 10
7.087574013284221
 20
-25.66087767089632
 30
0.0
 11
7.512178123629248
 21
-25.53346756421963
 31
0.0
  0
LINE
  5
C2
330
1F
100
AcDbEntity
  8
0
100
AcDbLine
 10
7.512178123629248
 20
-25.53346756421963
 30
0.0
 11
7.934493951745713
 21
-25.39866649921063
 31
0.0
  0
LINE
  5
C3
330
1F
100
AcDbEntity
  8
0
100
AcDbLine
 10
7.934493951745713
 20
-25.39866649921063
 30
0.0
 11
8.354392856141306
 21
-25.25651553757956
 31
0.0
  0
LINE
  5
C4
330
1F
100
AcDbEntity
  8
0
100
AcDbLine
 10
8.354392856141306
 20
-25.25651553757956
 30
0.0
 11
8.771746931542099
 21
-25.1070579798864
 31
0.0
  0
LINE
  5
C5
330
1F
100
AcDbEntity
  8
0
100
AcDbLine
 10
8.771746931542099
 20
-25.1070579798864
 30
0.0
 11
9.186429047853725
 21
-24.95033935235103
 31
0.0
  0
LINE
  5
C6
330
1F
100
AcDbEntity
  8
0
100
AcDbLine
 10
9.186429047853725
 20
-24.95033935235103
 30
0.0
 11
9.598312888886435
 21
-24.78640739298558
 31
0.0
  0
LINE
  5
C7
330
1F
100
AcDbEntity
  8
0
100
AcDbLine
 10
9.598312888886435
 20
-24.78640739298558
 30
0.0
 11
10.00727299083225
 21
-24.6153120370529
 31
0.0
  0
LINE
  5
C8
330
1F
100
AcDbEntity
  8
0
100
AcDbLine
 10
10.00727299083225
 20
-24.6153120370529
 30
0.0
 11
10.41318478048242
 21
-24.43710540185587
 31
0.0
  0
LINE
  5
C9
330
1F
100
AcDbEntity
  8
0
100
AcDbLine
 10
10.41318478048242
 20
-24.43710540185587
 30
0.0
 11
10.81592461317367
 21
-24.25184177086187
 31
0.0
  0
LINE
  5
CA
330
1F
100
AcDbEntity
  8
0
100
AcDbLine
 10
10.81592461317367
 20
-24.25184177086187
 30
0.0
 11
11.21536981045154
 21
-24.05957757716761
 31
0.0
  0
LINE
  5
CB
330
1F
100
AcDbEntity
  8
0
100
AcDbLine
 10
11.21536981045154
 20
-24.05957757716761
 30
0.0
 11
11.61139869743942
 21
-23.86037138630899
 31
0.0
  0
LINE
  5
CC
330
1F
100
AcDbEntity
  8
0
100
AcDbLine
 10
11.61139869743942
 20
-23.86037138630899
 30
0.0
 11
12.00389063990191
 21
-23.6542838784215
 31
0.0
  0
LINE
  5
CD
330
1F
100
AcDbEntity
  8
0
100
AcDbLine
 10
12.00389063990191
 20
-23.6542838784215
 30
0.0
 11
12.39272608099118
 21
-23.44137782975645
 31
0.0
  0
LINE
  5
CE
330
1F
100
AcDbEntity
  8
0
100
AcDbLine
 10
12.39272608099118
 20
-23.44137782975645
 30
0.0
 11
12.77778657766516
 21
-23.22171809355874
 31
0.0
  0
LINE
  5
CF
330
1F
100
AcDbEntity
  8
0
100
AcDbLine
 10
12.77778657766516
 20
-23.22171809355874
 30
0.0
 11
13.15895483676638
 21
-22.9953715803119
 31
0.0
  0
LINE
  5
D0
330
1F
100
AcDbEntity
  8
0
100
AcDbLine
 10
13.15895483676638
 20
-22.9953715803119
 30
0.0
 11
13.53611475075066
 21
-22.76240723735653
 31
0.0
  0
LINE
  5
D1
330
1F
100
AcDbEntity
  8
0
100
AcDbLine
 10
13.53611475075066
 20
-22.76240723735653
 30
0.0
 11
13.90915143305457
 21
-22.52289602788828
 31
0.0
  0
LINE
  5
D2
330
1F
100
AcDbEntity
  8
0
100
AcDbLine
 10
13.90915143305457
 20
-22.52289602788828
 30
0.0
 11
14.277951253091
 21
-22.27691090934174
 31
0.0
  0
LINE
  5
D3
330
1F
100
AcDbEntity
  8
0
100
AcDbLine
 10
14.277951253091
 20
-22.27691090934174
 30
0.0
 11
14.64240187086213
 21
-22.02452681116695
 31
0.0
  0
LINE
  5
D4
330
1F
100
AcDbEntity
  8
0
100
AcDbLine
 10
14.64240187086213
 20
-22.02452681116695
 30
0.0
 11
15.00239227117925
 21
-21.76582061200509
 31
0.0
  0
LINE
  5
D5
330
1F
100
AcDbEntity
  8
0
100
AcDbLine
 10
15.00239227117925
 20
-21.76582061200509
 30
0.0
 11
15.35781279747913
 21
-21.50087111627058
 31
0.0
  0
LINE
  5
D6
330
1F
100
AcDbEntity
  8
0
100
AcDbLine
 10
15.35781279747913
 20
-21.50087111627058
 30
0.0
 11
15.70855518522643
 21
-21.22975903014645
 31
0.0
  0
LINE
  5
D7
330
1F
100
AcDbEntity
  8
0
100
AcDbLine
 10
15.70855518522643
 20
-21.22975903014645
 30
0.0
 11
16.02837120735593
 21
-20.97351224912976
 31
0.0
  0
LINE
  5
D8
330
1F
100
AcDbEntity
  8
0
100
AcDbLine
 10
16.05451259489212
 20
-20.95256693700044
 30
0.0
 11
16.39557964449785
 21
-20.66937927222936
 31
0.0
  0
LINE
  5
D9
330
1F
100
AcDbEntity
  8
0
100
AcDbLine
 10
16.39557964449785
 20
-20.66937927222936
 30
0.0
 11
16.73165244171632
 21
-20.38028229753919
 31
0.0
  0
LINE
  5
DA
330
1F
100
AcDbEntity
  8
0
100
AcDbLine
 10
16.73165244171632
 20
-20.38028229753919
 30
0.0
 11
17.06262861551788
 21
-20.08536407466896
 31
0.0
  0
LINE
  5
DB
330
1F
100
AcDbEntity
  8
0
100
AcDbLine
 10
17.06262861551788
 20
-20.08536407466896
 30
0.0
 11
17.38840734735377
 21
-19.7847144385663
 31
0.0
  0
LINE
  5
DC
330
1F
100
AcDbEntity
  8
0
100
AcDbLine
 10
17.38840734735377
 20
-19.7847144385663
 30
0.0
 11
17.70888940186636
 21
-19.47842497002283
 31
0.0
  0
LINE
  5
DD
330
1F
100
AcDbEntity
  8
0
100
AcDbLine
 10
17.70888940186636
 20
-19.47842497002283
 30
0.0
 11
18.02397715711728
 21
-19.16658896777775
 31
0.0
  0
LINE
  5
DE
330
1F
100
AcDbEntity
  8
0
100
AcDbLine
 10
18.02397715711728
 20
-19.16658896777775
 30
0.0
 11
18.33357463432396
 21
-18.84930142009818
 31
0.0
  0
LINE
  5
DF
330
1F
100
AcDbEntity
  8
0
100
AcDbLine
 10
18.33357463432396
 20
-18.84930142009818
 30
0.0
 11
18.63758752709569
 21
-18.52665897584477
 31
0.0
  0
LINE
  5
E0
330
1F
100
AcDbEntity
  8
0
100
AcDbLine
 10
18.63758752709569
 20
-18.52665897584477
 30
0.0
 11
18.93592323016031
 21
-18.19875991503155
 31
0.0
  0
LINE
  5
E1
330
1F
100
AcDbEntity
  8
0
100
AcDbLine
 10
18.93592323016031
 20
-18.19875991503155
 30
0.0
 11
19.22849086757261
 21
-17.86570411888886
 31
0.0
  0
LINE
  5
E2
330
1F
100
AcDbEntity
  8
0
100
AcDbLine
 10
19.22849086757261
 20
-17.86570411888886
 30
0.0
 11
19.51520132039607
 21
-17.52759303943861
 31
0.0
  0
LINE
  5
E3
330
1F
100
AcDbEntity
  8
0
100
AcDbLine
 10
19.51520132039607
 20
-17.52759303943861
 30
0.0
 11
19.79596725384935
 21
-17.18452966859094
 31
0.0
  0
LINE
  5
E4
330
1F
100
AcDbEntity
  8
0
100
AcDbLine
 10
19.79596725384935
 20
-17.18452966859094
 30
0.0
 11
20.07070314390926
 21
-16.83661850677195
 31
0.0
  0
LINE
  5
E5
330
1F
100
AcDbEntity
  8
0
100
AcDbLine
 10
20.07070314390926
 20
-16.83661850677195
 30
0.0
 11
20.33932530336226
 21
-16.48396553109182
 31
0.0
  0
LINE
  5
E6
330
1F
100
AcDbEntity
  8
0
100
AcDbLine
 10
20.33932530336226
 20
-16.48396553109182
 30
0.0
 11
20.6017519072964
 21
-16.12667816306315
 31
0.0
  0
LINE
  5
E7
330
1F
100
AcDbEntity
  8
0
100
AcDbLine
 10
20.6017519072964
 20
-16.12667816306315
 30
0.0
 11
20.85790301802592
 21
-15.76486523587939
 31
0.0
  0
LINE
  5
E8
330
1F
100
AcDbEntity
  8
0
100
AcDbLine
 10
20.85790301802592
 20
-15.76486523587939
 30
0.0
 11
21.1077006094411
 21
-15.3986369612631
 31
0.0
  0
LINE
  5
E9
330
1F
100
AcDbEntity
  8
0
100
AcDbLine
 10
21.1077006094411
 20
-15.3986369612631
 30
0.0
 11
21.35106859077576
 21
-15.02810489589447
 31
0.0
  0
LINE
  5
EA
330
1F
100
AcDbEntity
  8
0
100
AcDbLine
 10
21.35106859077576
 20
-15.02810489589447
 30
0.0
 11
21.58793282978524
 21
-14.65338190743003
 31
0.0
  0
LINE
  5
EB
330
1F
100
AcDbEntity
  8
0
100
AcDbLine
 10
21.58793282978524
 20
-14.65338190743003
 30
0.0
 11
21.81822117532775
 21
-14.2745821401221
 31
0.0
  0
LINE
  5
EC
330
1F
100
AcDbEntity
  8
0
100
AcDbLine
 10
21.81822117532775
 20
-14.2745821401221
 30
0.0
 11
22.04186347934241
 21
-13.89182098004931
 31
0.0
  0
LINE
  5
ED
330
1F
100
AcDbEntity
  8
0
100
AcDbLine
 10
22.04186347934241
 20
-13.89182098004931
 30
0.0
 11
22.25879161821693
 21
-13.50521501996891
 31
0.0
  0
LINE
  5
EE
330
1F
100
AcDbEntity
  8
0
100
AcDbLine
 10
22.25879161821693
 20
-13.50521501996891
 30
0.0
 11
22.46893951353879
 21
-13.11488202380148
 31
0.0
  0
LINE
  5
EF
330
1F
100
AcDbEntity
  8
0
100
AcDbLine
 10
22.46893951353879
 20
-13.11488202380148
 30
0.0
 11
22.67224315222332
 21
-12.72094089075889
 31
0.0
  0
LINE
  5
F0
330
1F
100
AcDbEntity
  8
0
100
AcDbLine
 10
22.67224315222332
 20
-12.72094089075889
 30
0.0
 11
22.86864060601273
 21
-12.32351161912645
 31
0.0
  0
LINE
  5
F1
330
1F
100
AcDbEntity
  8
0
100
AcDbLine
 10
22.86864060601273
 20
-12.32351161912645
 30
0.0
 11
23.05807205034005
 21
-11.9227152697103
 31
0.0
  0
LINE
  5
F2
330
1F
100
AcDbEntity
  8
0
100
AcDbLine
 10
23.05807205034005
 20
-11.9227152697103
 30
0.0
 11
23.24047978255227
 21
-11.51867392896106
 31
0.0
  0
LINE
  5
F3
330
1F
100
AcDbEntity
  8
0
100
AcDbLine
 10
23.24047978255227
 20
-11.51867392896106
 30
0.0
 11
23.41580823948716
 21
-11.11151067178516
 31
0.0
  0
LINE
  5
F4
330
1F
100
AcDbEntity
  8
0
100
AcDbLine
 10
23.41580823948716
 20
-11.11151067178516
 30
0.0
 11
23.48584357508743
 21
-10.94072294749985
 31
0.0
  0
LINE
  5
F5
330
1F
100
AcDbEntity
  8
0
100
AcDbLine
 10
23.58400401439826
 20
-10.70134952405502
 30
0.0
 11
23.74501587322321
 21
-10.28831542482956
 31
0.0
  0
LINE
  5
F6
330
1F
100
AcDbEntity
  8
0
100
AcDbLine
 10
23.74501587322321
 20
-10.28831542482956
 30
0.0
 11
23.89879477019003
 21
-9.87253418829655
 31
0.0
  0
LINE
  5
F7
330
1F
100
AcDbEntity
  8
0
100
AcDbLine
 10
23.89879477019003
 20
-9.87253418829655
 30
0.0
 11
24.04529386275703
 21
-9.454132465448405
 31
0.0
  0
LINE
  5
F8
330
1F
100
AcDbEntity
  8
0
100
AcDbLine
 10
24.04529386275703
 20
-9.454132465448405
 30
0.0
 11
24.18446852588145
 21
-9.033237705503051
 31
0.0
  0
LINE
  5
F9
330
1F
100
AcDbEntity
  8
0
100
AcDbLine
 10
24.18446852588145
 20
-9.033237705503051
 30
0.0
 11
24.22420988131079
 21
-8.90562079154233
 31
0.0
  0
LINE
  5
FA
330
1F
100
AcDbEntity
  8
0
100
AcDbLine
 10
24.31627636561268
 20
-8.609978117081667
 30
0.0
 11
24.44067723200588
 21
-8.184482629155093
 31
0.0
  0
LINE
  5
FB
330
1F
100
AcDbEntity
  8
0
100
AcDbLine
 10
24.44067723200588
 20
-8.184482629155093
 30
0.0
 11
24.55763323135205
 21
-7.756880851770821
 31
0.0
  0
LINE
  5
FC
330
1F
100
AcDbEntity
  8
0
100
AcDbLine
 10
24.55763323135205
 20
-7.756880851770821
 30
0.0
 11
24.66710873772082
 21
-7.32730303657251
 31
0.0
  0
LINE
  5
FD
330
1F
100
AcDbEntity
  8
0
100
AcDbLine
 10
24.66710873772082
 20
-7.32730303657251
 30
0.0
 11
24.76907040381244
 21
-6.895880037124088
 31
0.0
  0
LINE
  5
FE
330
1F
100
AcDbEntity
  8
0
100
AcDbLine
 10
24.76907040381244
 20
-6.895880037124088
 30
0.0
 11
24.86348717111568
 21
-6.462743269050471
 31
0.0
  0
LINE
  5
FF
330
1F
100
AcDbEntity
  8
0
100
AcDbLine
 10
24.86348717111568
 20
-6.462743269050471
 30
0.0
 11
24.95033027936858
 21
-6.028024670007106
 31
0.0
  0
LINE
  5
100
330
1F
100
AcDbEntity
  8
0
100
AcDbLine
 10
24.95033027936858
 20
-6.028024670007106
 30
0.0
 11
25.02957327531912
 21
-5.591856659490476
 31
0.0
  0
LINE
  5
101
330
1F
100
AcDbEntity
  8
0
100
AcDbLine
 10
25.02957327531912
 20
-5.591856659490476
 30
0.0
 11
25.10119202078308
 21
-5.15437209850184
 31
0.0
  0
LINE
  5
102
330
1F
100
AcDbEntity
  8
0
100
AcDbLine
 10
25.10119202078308
 20
-5.15437209850184
 30
0.0
 11
25.15081562194703
 21
-4.814097489545532
 31
0.0
  0
LINE
  5
103
330
1F
100
AcDbEntity
  8
0
100
AcDbLine
 10
25.16516469999679
 20
-4.715704249076478
 30
0.0
 11
25.22147182626247
 21
-4.275986733690802
 31
0.0
  0
LINE
  5
104
330
1F
100
AcDbEntity
  8
0
100
AcDbLine
 10
25.22147182626247
 20
-4.275986733690802
 30
0.0
 11
25.27009624788397
 21
-3.835353494559634
 31
0.0
  0
LINE
  5
105
330
1F
100
AcDbEntity
  8
0
100
AcDbLine
 10
25.27009624788397
 20
-3.835353494559634
 30
0.0
 11
25.31102315339146
 21
-3.393938752836122
 31
0.0
  0
LINE
  5
106
330
1F
100
AcDbEntity
  8
0
100
AcDbLine
 10
25.31102315339146
 20
-3.393938752836122
 30
0.0
 11
25.33295311284029
 21
-3.102087604549699
 31
0.0
  0
LINE
  5
107
330
1F
100
AcDbEntity
  8
0
100
AcDbLine
 10
25.34424007605304
 20
-2.95187696772668
 30
0.0
 11
25.36973689767228
 21
-2.5093027955334
 31
0.0
  0
LINE
  5
108
330
1F
100
AcDbEntity
  8
0
100
AcDbLine
 10
25.36973689767228
 20
-2.5093027955334
 30
0.0
 11
25.38750585167034
 21
-2.066351048636442
 31
0.0
  0
LINE
  5
109
330
1F
100
AcDbEntity
  8
0
100
AcDbLine
 10
25.38750585167034
 20
-2.066351048636442
 30
0.0
 11
25.39754152545168
 21
-1.623156654428881
 31
0.0
  0
LINE
  5
10A
330
1F
100
AcDbEntity
  8
0
100
AcDbLine
 10
25.39754152545168
 20
-1.623156654428881
 30
0.0
 11
25.39984086205286
 21
-1.179854614216514
 31
0.0
  0
LINE
  5
10B
330
1F
100
AcDbEntity
  8
0
100
AcDbLine
 10
25.39984086205286
 20
-1.179854614216514
 30
0.0
 11
25.39440316107368
 21
-0.736579962095154
 31
0.0
  0
LINE
  5
10C
330
1F
100
AcDbEntity
  8
0
100
AcDbLine
 10
25.39440316107368
 20
-0.736579962095154
 30
0.0
 11
25.38123007889052
 21
-0.2934677238179339
 31
0.0
  0
LINE
  5
10D
330
1F
100
AcDbEntity
  8
0
100
AcDbLine
 10
25.38123007889052
 20
-0.2934677238179339
 30
0.0
 11
25.36032562815184
 21
0.1493471243348402
 31
0.0
  0
LINE
  5
10E
330
1F
100
AcDbEntity
  8
0
100
AcDbLine
 10
25.36032562815184
 20
0.1493471243348402
 30
0.0
 11
25.33169617655584
 21
0.5917296966707811
 31
0.0
  0
LINE
  5
10F
330
1F
100
AcDbEntity
  8
0
100
AcDbLine
 10
25.33169617655584
 20
0.5917296966707811
 30
0.0
 11
25.29535044491081
 21
1.033545239172899
 31
0.0
  0
LINE
  5
110
330
1F
100
AcDbEntity
  8
0
100
AcDbLine
 10
25.29535044491081
 20
1.033545239172899
 30
0.0
 11
25.25129950447868
 21
1.47465917054698
 31
0.0
  0
LINE
  5
111
330
1F
100
AcDbEntity
  8
0
100
AcDbLine
 10
25.25129950447868
 20
1.47465917054698
 30
0.0
 11
25.19955677360267
 21
1.914937123216363
 31
0.0
  0
LINE
  5
112
330
1F
100
AcDbEntity
  8
0
100
AcDbLine
 10
25.19955677360267
 20
1.914937123216363
 30
0.0
 11
25.14013801361983
 21
2.354244984251598
 31
0.0
  0
LINE
  5
113
330
1F
100
AcDbEntity
  8
0
100
AcDbLine
 10
25.14013801361983
 20
2.354244984251598
 30
0.0
 11
25.07306132406006
 21
2.792448936222543
 31
0.0
  0
LINE
  5
114
330
1F
100
AcDbEntity
  8
0
100
AcDbLine
 10
25.07306132406006
 20
2.792448936222543
 30
0.0
 11
24.99834713713278
 21
3.229415497960448
 31
0.0
  0
LINE
  5
115
330
1F
100
AcDbEntity
  8
0
100
AcDbLine
 10
24.99834713713278
 20
3.229415497960448
 30
0.0
 11
24.9160182115031
 21
3.665011565217622
 31
0.0
  0
LINE
  5
116
330
1F
100
AcDbEntity
  8
0
100
AcDbLine
 10
24.9160182115031
 20
3.665011565217622
 30
0.0
 11
24.82609962535931
 21
4.099104451212259
 31
0.0
  0
LINE
  5
117
330
1F
100
AcDbEntity
  8
0
100
AcDbLine
 10
24.82609962535931
 20
4.099104451212259
 30
0.0
 11
24.72861876877381
 21
4.531561927046136
 31
0.0
  0
LINE
  5
118
330
1F
100
AcDbEntity
  8
0
100
AcDbLine
 10
24.72861876877381
 20
4.531561927046136
 30
0.0
 11
24.62360533535983
 21
4.962252261982805
 31
0.0
  0
LINE
  5
119
330
1F
100
AcDbEntity
  8
0
100
AcDbLine
 10
24.62360533535983
 20
4.962252261982805
 30
0.0
 11
24.59264738474122
 21
5.080233304338449
 31
0.0
  0
LINE
  5
11A
330
1F
100
AcDbEntity
  8
0
100
AcDbLine
 10
24.51109131322648
 20
5.391044263574052
 30
0.0
 11
24.39111097523485
 21
5.817807317622391
 31
0.0
  0
LINE
  5
11B
330
1F
100
AcDbEntity
  8
0
100
AcDbLine
 10
24.39111097523485
 20
5.817807317622391
 30
0.0
 11
24.26370086855816
 21
6.242411427967411
 31
0.0
  0
LINE
  5
11C
330
1F
100
AcDbEntity
  8
0
100
AcDbLine
 10
24.26370086855816
 20
6.242411427967411
 30
0.0
 11
24.12889980354917
 21
6.664727256083874
 31
0.0
  0
LINE
  5
11D
330
1F
100
AcDbEntity
  8
0
100
AcDbLine
 10
24.12889980354917
 20
6.664727256083874
 30
0.0
 11
23.98674884191811
 21
7.084626160479463
 31
0.0
  0
LINE
  5
11E
330
1F
100
AcDbEntity
  8
0
100
AcDbLine
 10
23.98674884191811
 20
7.084626160479463
 30
0.0
 11
23.83729128422495
 21
7.501980235880253
 31
0.0
  0
LINE
  5
11F
330
1F
100
AcDbEntity
  8
0
100
AcDbLine
 10
23.83729128422495
 20
7.501980235880253
 30
0.0
 11
23.68057265668959
 21
7.916662352191874
 31
0.0
  0
LINE
  5
120
330
1F
100
AcDbEntity
  8
0
100
AcDbLine
 10
23.68057265668959
 20
7.916662352191874
 30
0.0
 11
23.51664069732414
 21
8.328546193224582
 31
0.0
  0
LINE
  5
121
330
1F
100
AcDbEntity
  8
0
100
AcDbLine
 10
23.51664069732414
 20
8.328546193224582
 30
0.0
 11
23.34554534139148
 21
8.737506295170391
 31
0.0
  0
LINE
  5
122
330
1F
100
AcDbEntity
  8
0
100
AcDbLine
 10
23.34554534139148
 20
8.737506295170391
 30
0.0
 11
23.16733870619445
 21
9.143418084820562
 31
0.0
  0
LINE
  5
123
330
1F
100
AcDbEntity
  8
0
100
AcDbLine
 10
23.16733870619445
 20
9.143418084820562
 30
0.0
 11
22.98207507520047
 21
9.546157917511811
 31
0.0
  0
LINE
  5
124
330
1F
100
AcDbEntity
  8
0
100
AcDbLine
 10
22.98207507520047
 20
9.546157917511811
 30
0.0
 11
22.78981088150621
 21
9.945603114789677
 31
0.0
  0
LINE
  5
125
330
1F
100
AcDbEntity
  8
0
100
AcDbLine
 10
22.78981088150621
 20
9.945603114789677
 30
0.0
 11
22.5906046906476
 21
10.34163200177755
 31
0.0
  0
LINE
  5
126
330
1F
100
AcDbEntity
  8
0
100
AcDbLine
 10
22.5906046906476
 20
10.34163200177755
 30
0.0
 11
22.38451718276012
 21
10.73412394424004
 31
0.0
  0
LINE
  5
127
330
1F
100
AcDbEntity
  8
0
100
AcDbLine
 10
22.38451718276012
 20
10.73412394424004
 30
0.0
 11
22.17161113409507
 21
11.12295938532931
 31
0.0
  0
LINE
  5
128
330
1F
100
AcDbEntity
  8
0
100
AcDbLine
 10
22.17161113409507
 20
11.12295938532931
 30
0.0
 11
21.95195139789737
 21
11.50801988200328
 31
0.0
  0
LINE
  5
129
330
1F
100
AcDbEntity
  8
0
100
AcDbLine
 10
21.95195139789737
 20
11.50801988200328
 30
0.0
 11
21.72560488465053
 21
11.8891881411045
 31
0.0
  0
LINE
  5
12A
330
1F
100
AcDbEntity
  8
0
100
AcDbLine
 10
21.72560488465053
 20
11.8891881411045
 30
0.0
 11
21.49264054169517
 21
12.26634805508878
 31
0.0
  0
LINE
  5
12B
330
1F
100
AcDbEntity
  8
0
100
AcDbLine
 10
21.49264054169517
 20
12.26634805508878
 30
0.0
 11
21.25312933222693
 21
12.6393847373927
 31
0.0
  0
LINE
  5
12C
330
1F
100
AcDbEntity
  8
0
100
AcDbLine
 10
21.25312933222693
 20
12.6393847373927
 30
0.0
 11
21.00714421368041
 21
13.00818455742913
 31
0.0
  0
LINE
  5
12D
330
1F
100
AcDbEntity
  8
0
100
AcDbLine
 10
21.00714421368041
 20
13.00818455742913
 30
0.0
 11
20.75476011550562
 21
13.37263517520025
 31
0.0
  0
LINE
  5
12E
330
1F
100
AcDbEntity
  8
0
100
AcDbLine
 10
20.75476011550562
 20
13.37263517520025
 30
0.0
 11
20.49605391634377
 21
13.73262557551737
 31
0.0
  0
LINE
  5
12F
330
1F
100
AcDbEntity
  8
0
100
AcDbLine
 10
20.49605391634377
 20
13.73262557551737
 30
0.0
 11
20.23110442060927
 21
14.08804610181726
 31
0.0
  0
LINE
  5
130
330
1F
100
AcDbEntity
  8
0
100
AcDbLine
 10
20.23110442060927
 20
14.08804610181726
 30
0.0
 11
19.95999233448515
 21
14.43878848956456
 31
0.0
  0
LINE
  5
131
330
1F
100
AcDbEntity
  8
0
100
AcDbLine
 10
19.95999233448515
 20
14.43878848956456
 30
0.0
 11
19.68280024133915
 21
14.78474589923024
 31
0.0
  0
LINE
  5
132
330
1F
100
AcDbEntity
  8
0
100
AcDbLine
 10
19.68280024133915
 20
14.78474589923024
 30
0.0
 11
19.39961257656807
 21
15.12581294883597
 31
0.0
  0
LINE
  5
133
330
1F
100
AcDbEntity
  8
0
100
AcDbLine
 10
19.39961257656807
 20
15.12581294883597
 30
0.0
 11
19.11051560187791
 21
15.46188574605444
 31
0.0
  0
LINE
  5
134
330
1F
100
AcDbEntity
  8
0
100
AcDbLine
 10
19.11051560187791
 20
15.46188574605444
 30
0.0
 11
18.81559737900769
 21
15.79286191985601
 31
0.0
  0
LINE
  5
135
330
1F
100
AcDbEntity
  8
0
100
AcDbLine
 10
18.81559737900769
 20
15.79286191985601
 30
0.0
 11
18.51494774290505
 21
16.11864065169189
 31
0.0
  0
LINE
  5
136
330
1F
100
AcDbEntity
  8
0
100
AcDbLine
 10
18.51494774290505
 20
16.11864065169189
 30
0.0
 11
18.20865827436159
 21
16.43912270620449
 31
0.0
  0
LINE
  5
137
330
1F
100
AcDbEntity
  8
0
100
AcDbLine
 10
18.20865827436159
 20
16.43912270620449
 30
0.0
 11
17.89682227211651
 21
16.75421046145541
 31
0.0
  0
LINE
  5
138
330
1F
100
AcDbEntity
  8
0
100
AcDbLine
 10
17.89682227211651
 20
16.75421046145541
 30
0.0
 11
17.57953472443695
 21
17.06380793866209
 31
0.0
  0
LINE
  5
139
330
1F
100
AcDbEntity
  8
0
100
AcDbLine
 10
17.57953472443695
 20
17.06380793866209
 30
0.0
 11
17.25689228018355
 21
17.36782083143382
 31
0.0
  0
LINE
  5
13A
330
1F
100
AcDbEntity
  8
0
100
AcDbLine
 10
17.25689228018355
 20
17.36782083143382
 30
0.0
 11
16.92899321937033
 21
17.66615653449845
 31
0.0
  0
LINE
  5
13B
330
1F
100
AcDbEntity
  8
0
100
AcDbLine
 10
16.92899321937033
 20
17.66615653449845
 30
0.0
 11
16.59593742322765
 21
17.95872417191076
 31
0.0
  0
LINE
  5
13C
330
1F
100
AcDbEntity
  8
0
100
AcDbLine
 10
16.59593742322765
 20
17.95872417191076
 30
0.0
 11
16.25782634377741
 21
18.24543462473423
 31
0.0
  0
LINE
  5
13D
330
1F
100
AcDbEntity
  8
0
100
AcDbLine
 10
16.25782634377741
 20
18.24543462473423
 30
0.0
 11
15.91476297292974
 21
18.52620055818751
 31
0.0
  0
LINE
  5
13E
330
1F
100
AcDbEntity
  8
0
100
AcDbLine
 10
15.91476297292974
 20
18.52620055818751
 30
0.0
 11
15.56685181111075
 21
18.80093644824743
 31
0.0
  0
LINE
  5
13F
330
1F
100
AcDbEntity
  8
0
100
AcDbLine
 10
15.56685181111075
 20
18.80093644824743
 30
0.0
 11
15.21419883543062
 21
19.06955860770044
 31
0.0
  0
LINE
  5
140
330
1F
100
AcDbEntity
  8
0
100
AcDbLine
 10
15.21419883543062
 20
19.06955860770044
 30
0.0
 11
14.85691146740197
 21
19.33198521163458
 31
0.0
  0
LINE
  5
141
330
1F
100
AcDbEntity
  8
0
100
AcDbLine
 10
14.85691146740197
 20
19.33198521163458
 30
0.0
 11
14.49509854021821
 21
19.58813632236411
 31
0.0
  0
LINE
  5
142
330
1F
100
AcDbEntity
  8
0
100
AcDbLine
 10
14.49509854021821
 20
19.58813632236411
 30
0.0
 11
14.12887026560192
 21
19.8379339137793
 31
0.0
  0
LINE
  5
143
330
1F
100
AcDbEntity
  8
0
100
AcDbLine
 10
14.12887026560192
 20
19.8379339137793
 30
0.0
 11
13.7583382002333
 21
20.08130189511397
 31
0.0
  0
LINE
  5
144
330
1F
100
AcDbEntity
  8
0
100
AcDbLine
 10
13.7583382002333
 20
20.08130189511397
 30
0.0
 11
13.38361521176887
 21
20.31816613412344
 31
0.0
  0
LINE
  5
145
330
1F
100
AcDbEntity
  8
0
100
AcDbLine
 10
13.38361521176887
 20
20.31816613412344
 30
0.0
 11
13.00481544446094
 21
20.54845447966596
 31
0.0
  0
LINE
  5
146
330
1F
100
AcDbEntity
  8
0
100
AcDbLine
 10
13.00481544446094
 20
20.54845447966596
 30
0.0
 11
12.62205428438815
 21
20.77209678368063
 31
0.0
  0
LINE
  5
147
330
1F
100
AcDbEntity
  8
0
100
AcDbLine
 10
12.62205428438815
 20
20.77209678368063
 30
0.0
 11
12.23544832430775
 21
20.98902492255516
 31
0.0
  0
LINE
  5
148
330
1F
100
AcDbEntity
  8
0
100
AcDbLine
 10
12.23544832430775
 20
20.98902492255516
 30
0.0
 11
11.84511532814033
 21
21.19917281787702
 31
0.0
  0
LINE
  5
149
330
1F
100
AcDbEntity
  8
0
100
AcDbLine
 10
11.84511532814033
 20
21.19917281787702
 30
0.0
 11
11.45117419509774
 21
21.40247645656155
 31
0.0
  0
LINE
  5
14A
330
1F
100
AcDbEntity
  8
0
100
AcDbLine
 10
11.45117419509774
 20
21.40247645656155
 30
0.0
 11
11.0537449234653
 21
21.59887391035097
 31
0.0
  0
LINE
  5
14B
330
1F
100
AcDbEntity
  8
0
100
AcDbLine
 10
11.0537449234653
 20
21.59887391035097
 30
0.0
 11
10.65294857404916
 21
21.7883053546783
 31
0.0
  0
LINE
  5
14C
330
1F
100
AcDbEntity
  8
0
100
AcDbLine
 10
10.65294857404916
 20
21.7883053546783
 30
0.0
 11
10.24890723329992
 21
21.97071308689054
 31
0.0
  0
LINE
  5
14D
330
1F
100
AcDbEntity
  8
0
100
AcDbLine
 10
10.24890723329992
 20
21.97071308689054
 30
0.0
 11
9.841743976124022
 21
22.14604154382543
 31
0.0
  0
LINE
  5
14E
330
1F
100
AcDbEntity
  8
0
100
AcDbLine
 10
9.841743976124022
 20
22.14604154382543
 30
0.0
 11
9.43158282839389
 21
22.31423731873654
 31
0.0
  0
LINE
  5
14F
330
1F
100
AcDbEntity
  8
0
100
AcDbLine
 10
9.43158282839389
 20
22.31423731873654
 30
0.0
 11
9.01854872916843
 21
22.47524917756149
 31
0.0
  0
LINE
  5
150
330
1F
100
AcDbEntity
  8
0
100
AcDbLine
 10
9.01854872916843
 20
22.47524917756149
 30
0.0
 11
8.602767492635422
 21
22.62902807452832
 31
0.0
  0
LINE
  5
151
330
1F
100
AcDbEntity
  8
0
100
AcDbLine
 10
8.602767492635422
 20
22.62902807452832
 30
0.0
 11
8.184365769787277
 21
22.77552716709533
 31
0.0
  0
LINE
  5
152
330
1F
100
AcDbEntity
  8
0
100
AcDbLine
 10
8.184365769787277
 20
22.77552716709533
 30
0.0
 11
7.763471009841929
 21
22.91470183021976
 31
0.0
  0
LINE
  5
153
330
1F
100
AcDbEntity
  8
0
100
AcDbLine
 10
7.763471009841929
 20
22.91470183021976
 30
0.0
 11
7.340211421420546
 21
23.04650966995099
 31
0.0
  0
LINE
  5
154
330
1F
100
AcDbEntity
  8
0
100
AcDbLine
 10
7.340211421420546
 20
23.04650966995099
 30
0.0
 11
6.914715933493972
 21
23.1709105363442
 31
0.0
  0
LINE
  5
155
330
1F
100
AcDbEntity
  8
0
100
AcDbLine
 10
6.914715933493972
 20
23.1709105363442
 30
0.0
 11
6.487114156109704
 21
23.28786653569038
 31
0.0
  0
LINE
  5
156
330
1F
100
AcDbEntity
  8
0
100
AcDbLine
 10
6.487114156109704
 20
23.28786653569038
 30
0.0
 11
6.057536340911395
 21
23.39734204205916
 31
0.0
  0
LINE
  5
157
330
1F
100
AcDbEntity
  8
0
100
AcDbLine
 10
6.057536340911395
 20
23.39734204205916
 30
0.0
 11
5.626113341462976
 21
23.49930370815078
 31
0.0
  0
LINE
  5
158
330
1F
100
AcDbEntity
  8
0
100
AcDbLine
 10
5.626113341462976
 20
23.49930370815078
 30
0.0
 11
5.192976573389359
 21
23.59372047545403
 31
0.0
  0
LINE
  5
159
330
1F
100
AcDbEntity
  8
0
100
AcDbLine
 10
5.192976573389359
 20
23.59372047545403
 30
0.0
 11
5.020534997060386
 21
23.62816888072906
 31
0.0
  0
LINE
  5
15A
330
1F
100
AcDbEntity
  8
0
100
AcDbLine
 10
4.758257974345998
 20
23.68056358370695
 30
0.0
 11
4.322089963829369
 21
23.75980657965749
 31
0.0
  0
LINE
  5
15B
330
1F
100
AcDbEntity
  8
0
100
AcDbLine
 10
4.322089963829369
 20
23.75980657965749
 30
0.0
 11
3.884605402840733
 21
23.83142532512145
 31
0.0
  0
LINE
  5
15C
330
1F
100
AcDbEntity
  8
0
100
AcDbLine
 10
3.884605402840733
 20
23.83142532512145
 30
0.0
 11
3.445937553415374
 21
23.89539800433518
 31
0.0
  0
LINE
  5
15D
330
1F
100
AcDbEntity
  8
0
100
AcDbLine
 10
3.445937553415374
 20
23.89539800433518
 30
0.0
 11
3.006220038029696
 21
23.95170513060086
 31
0.0
  0
LINE
  5
15E
330
1F
100
AcDbEntity
  8
0
100
AcDbLine
 10
3.006220038029696
 20
23.95170513060086
 30
0.0
 11
2.565586798898528
 21
24.00032955222238
 31
0.0
  0
LINE
  5
15F
330
1F
100
AcDbEntity
  8
0
100
AcDbLine
 10
2.565586798898528
 20
24.00032955222238
 30
0.0
 11
2.531356371558634
 21
24.00350331452074
 31
0.0
  0
LINE
  5
160
330
1F
100
AcDbEntity
  8
0
100
AcDbLine
 10
-2.744425866208084
 20
23.98153280881718
 30
0.0
 11
-3.184703818877468
 21
23.92979007794118
 31
0.0
  0
LINE
  5
161
330
1F
100
AcDbEntity
  8
0
100
AcDbLine
 10
-3.184703818877468
 20
23.92979007794118
 30
0.0
 11
-3.624011679912704
 21
23.87037131795834
 31
0.0
  0
LINE
  5
162
330
1F
100
AcDbEntity
  8
0
100
AcDbLine
 10
-3.624011679912704
 20
23.87037131795834
 30
0.0
 11
-4.06221563188365
 21
23.80329462839858
 31
0.0
  0
LINE
  5
163
330
1F
100
AcDbEntity
  8
0
100
AcDbLine
 10
-4.06221563188365
 20
23.80329462839858
 30
0.0
 11
-4.499182193621556
 21
23.72858044147131
 31
0.0
  0
LINE
  5
164
330
1F
100
AcDbEntity
  8
0
100
AcDbLine
 10
-4.499182193621556
 20
23.72858044147131
 30
0.0
 11
-4.934778260878731
 21
23.64625151584164
 31
0.0
  0
LINE
  5
165
330
1F
100
AcDbEntity
  8
0
100
AcDbLine
 10
-4.934778260878731
 20
23.64625151584164
 30
0.0
 11
-5.008503298869225
 21
23.63098001199215
 31
0.0
  0
LINE
  5
166
330
1F
100
AcDbEntity
  8
0
100
AcDbLine
 10
-5.368871146873371
 20
23.55633292969786
 30
0.0
 11
-5.80132862270725
 21
23.45885207311236
 31
0.0
  0
LINE
  5
167
330
1F
100
AcDbEntity
  8
0
100
AcDbLine
 10
-5.80132862270725
 20
23.45885207311236
 30
0.0
 11
-6.23201895764392
 21
23.35383863969839
 31
0.0
  0
LINE
  5
168
330
1F
100
AcDbEntity
  8
0
100
AcDbLine
 10
-6.23201895764392
 20
23.35383863969839
 30
0.0
 11
-6.660810959235169
 21
23.24132461756504
 31
0.0
  0
LINE
  5
169
330
1F
100
AcDbEntity
  8
0
100
AcDbLine
 10
-6.660810959235169
 20
23.24132461756504
 30
0.0
 11
-7.08757401328351
 21
23.12134427957342
 31
0.0
  0
LINE
  5
16A
330
1F
100
AcDbEntity
  8
0
100
AcDbLine
 10
-7.08757401328351
 20
23.12134427957342
 30
0.0
 11
-7.512178123628535
 21
22.99393417289675
 31
0.0
  0
LINE
  5
16B
330
1F
100
AcDbEntity
  8
0
100
AcDbLine
 10
-7.512178123628535
 20
22.99393417289675
 30
0.0
 11
-7.934493951744997
 21
22.85913310788776
 31
0.0
  0
LINE
  5
16C
330
1F
100
AcDbEntity
  8
0
100
AcDbLine
 10
-7.934493951744997
 20
22.85913310788776
 30
0.0
 11
-8.354392856140592
 21
22.71698214625671
 31
0.0
  0
LINE
  5
16D
330
1F
100
AcDbEntity
  8
0
100
AcDbLine
 10
-8.354392856140592
 20
22.71698214625671
 30
0.0
 11
-8.771746931541383
 21
22.56752458856355
 31
0.0
  0
LINE
  5
16E
330
1F
100
AcDbEntity
  8
0
100
AcDbLine
 10
-8.771746931541383
 20
22.56752458856355
 30
0.0
 11
-9.186429047853007
 21
22.4108059610282
 31
0.0
  0
LINE
  5
16F
330
1F
100
AcDbEntity
  8
0
100
AcDbLine
 10
-9.186429047853007
 20
22.4108059610282
 30
0.0
 11
-9.598312888885717
 21
22.24687400166276
 31
0.0
  0
LINE
  5
170
330
1F
100
AcDbEntity
  8
0
100
AcDbLine
 10
-9.598312888885717
 20
22.24687400166276
 30
0.0
 11
-10.00727299083153
 21
22.0757786457301
 31
0.0
  0
LINE
  5
171
330
1F
100
AcDbEntity
  8
0
100
AcDbLine
 10
-10.00727299083153
 20
22.0757786457301
 30
0.0
 11
-10.4131847804817
 21
21.89757201053308
 31
0.0
  0
LINE
  5
172
330
1F
100
AcDbEntity
  8
0
100
AcDbLine
 10
-10.4131847804817
 20
21.89757201053308
 30
0.0
 11
-10.81592461317296
 21
21.7123083795391
 31
0.0
  0
LINE
  5
173
330
1F
100
AcDbEntity
  8
0
100
AcDbLine
 10
-10.81592461317296
 20
21.7123083795391
 30
0.0
 11
-11.21536981045082
 21
21.52004418584486
 31
0.0
  0
LINE
  5
174
330
1F
100
AcDbEntity
  8
0
100
AcDbLine
 10
-11.21536981045082
 20
21.52004418584486
 30
0.0
 11
-11.6113986974387
 21
21.32083799498625
 31
0.0
  0
LINE
  5
175
330
1F
100
AcDbEntity
  8
0
100
AcDbLine
 10
-11.6113986974387
 20
21.32083799498625
 30
0.0
 11
-12.00389063990119
 21
21.11475048709877
 31
0.0
  0
LINE
  5
176
330
1F
100
AcDbEntity
  8
0
100
AcDbLine
 10
-12.00389063990119
 20
21.11475048709877
 30
0.0
 11
-12.39272608099047
 21
20.90184443843374
 31
0.0
  0
LINE
  5
177
330
1F
100
AcDbEntity
  8
0
100
AcDbLine
 10
-12.39272608099047
 20
20.90184443843374
 30
0.0
 11
-12.77778657766445
 21
20.68218470223604
 31
0.0
  0
LINE
  5
178
330
1F
100
AcDbEntity
  8
0
100
AcDbLine
 10
-12.77778657766445
 20
20.68218470223604
 30
0.0
 11
-13.15895483676567
 21
20.45583818898921
 31
0.0
  0
LINE
  5
179
330
1F
100
AcDbEntity
  8
0
100
AcDbLine
 10
-13.15895483676567
 20
20.45583818898921
 30
0.0
 11
-13.53611475074995
 21
20.22287384603386
 31
0.0
  0
LINE
  5
17A
330
1F
100
AcDbEntity
  8
0
100
AcDbLine
 10
-13.53611475074995
 20
20.22287384603386
 30
0.0
 11
-13.90915143305387
 21
19.98336263656563
 31
0.0
  0
LINE
  5
17B
330
1F
100
AcDbEntity
  8
0
100
AcDbLine
 10
-13.90915143305387
 20
19.98336263656563
 30
0.0
 11
-14.27795125309031
 21
19.73737751801911
 31
0.0
  0
LINE
  5
17C
330
1F
100
AcDbEntity
  8
0
100
AcDbLine
 10
-14.27795125309031
 20
19.73737751801911
 30
0.0
 11
-14.64240187086143
 21
19.48499341984432
 31
0.0
  0
LINE
  5
17D
330
1F
100
AcDbEntity
  8
0
100
AcDbLine
 10
-14.64240187086143
 20
19.48499341984432
 30
0.0
 11
-15.00239227117856
 21
19.22628722068248
 31
0.0
  0
LINE
  5
17E
330
1F
100
AcDbEntity
  8
0
100
AcDbLine
 10
-15.00239227117856
 20
19.22628722068248
 30
0.0
 11
-15.35781279747845
 21
18.96133772494799
 31
0.0
  0
LINE
  5
17F
330
1F
100
AcDbEntity
  8
0
100
AcDbLine
 10
-15.35781279747845
 20
18.96133772494799
 30
0.0
 11
-15.70855518522575
 21
18.69022563882388
 31
0.0
  0
LINE
  5
180
330
1F
100
AcDbEntity
  8
0
100
AcDbLine
 10
-15.70855518522575
 20
18.69022563882388
 30
0.0
 11
-16.05451259489145
 21
18.41303354567788
 31
0.0
  0
LINE
  5
181
330
1F
100
AcDbEntity
  8
0
100
AcDbLine
 10
-16.05451259489145
 20
18.41303354567788
 30
0.0
 11
-16.39557964449718
 21
18.12984588090681
 31
0.0
  0
LINE
  5
182
330
1F
100
AcDbEntity
  8
0
100
AcDbLine
 10
-16.39557964449718
 20
18.12984588090681
 30
0.0
 11
-16.73165244171565
 21
17.84074890621665
 31
0.0
  0
LINE
  5
183
330
1F
100
AcDbEntity
  8
0
100
AcDbLine
 10
-16.73165244171565
 20
17.84074890621665
 30
0.0
 11
-17.06262861551723
 21
17.54583068334645
 31
0.0
  0
LINE
  5
184
330
1F
100
AcDbEntity
  8
0
100
AcDbLine
 10
-17.06262861551723
 20
17.54583068334645
 30
0.0
 11
-17.38840734735312
 21
17.2451810472438
 31
0.0
  0
LINE
  5
185
330
1F
100
AcDbEntity
  8
0
100
AcDbLine
 10
-17.38840734735312
 20
17.2451810472438
 30
0.0
 11
-17.70888940186572
 21
16.93889157870034
 31
0.0
  0
LINE
  5
186
330
1F
100
AcDbEntity
  8
0
100
AcDbLine
 10
-17.70888940186572
 20
16.93889157870034
 30
0.0
 11
-18.02397715711665
 21
16.62705557645528
 31
0.0
  0
LINE
  5
187
330
1F
100
AcDbEntity
  8
0
100
AcDbLine
 10
-18.02397715711665
 20
16.62705557645528
 30
0.0
 11
-18.33357463432333
 21
16.30976802877572
 31
0.0
  0
LINE
  5
188
330
1F
100
AcDbEntity
  8
0
100
AcDbLine
 10
-18.33357463432333
 20
16.30976802877572
 30
0.0
 11
-18.63758752709508
 21
15.98712558452233
 31
0.0
  0
LINE
  5
189
330
1F
100
AcDbEntity
  8
0
100
AcDbLine
 10
-18.63758752709508
 20
15.98712558452233
 30
0.0
 11
-18.93592323015971
 21
15.65922652370911
 31
0.0
  0
LINE
  5
18A
330
1F
100
AcDbEntity
  8
0
100
AcDbLine
 10
-18.93592323015971
 20
15.65922652370911
 30
0.0
 11
-19.22849086757202
 21
15.32617072756644
 31
0.0
  0
LINE
  5
18B
330
1F
100
AcDbEntity
  8
0
100
AcDbLine
 10
-19.22849086757202
 20
15.32617072756644
 30
0.0
 11
-19.51520132039549
 21
14.9880596481162
 31
0.0
  0
LINE
  5
18C
330
1F
100
AcDbEntity
  8
0
100
AcDbLine
 10
-19.51520132039549
 20
14.9880596481162
 30
0.0
 11
-19.79596725384878
 21
14.64499627726854
 31
0.0
  0
LINE
  5
18D
330
1F
100
AcDbEntity
  8
0
100
AcDbLine
 10
-19.79596725384878
 20
14.64499627726854
 30
0.0
 11
-20.0707031439087
 21
14.29708511544956
 31
0.0
  0
LINE
  5
18E
330
1F
100
AcDbEntity
  8
0
100
AcDbLine
 10
-20.0707031439087
 20
14.29708511544956
 30
0.0
 11
-20.33932530336172
 21
13.94443213976943
 31
0.0
  0
LINE
  5
18F
330
1F
100
AcDbEntity
  8
0
100
AcDbLine
 10
-20.33932530336172
 20
13.94443213976943
 30
0.0
 11
-20.60175190729587
 21
13.58714477174078
 31
0.0
  0
LINE
  5
190
330
1F
100
AcDbEntity
  8
0
100
AcDbLine
 10
-20.60175190729587
 20
13.58714477174078
 30
0.0
 11
-20.8579030180254
 21
13.22533184455703
 31
0.0
  0
LINE
  5
191
330
1F
100
AcDbEntity
  8
0
100
AcDbLine
 10
-20.8579030180254
 20
13.22533184455703
 30
0.0
 11
-21.1077006094406
 21
12.85910356994075
 31
0.0
  0
LINE
  5
192
330
1F
100
AcDbEntity
  8
0
100
AcDbLine
 10
-21.1077006094406
 20
12.85910356994075
 30
0.0
 11
-21.35106859077528
 21
12.48857150457212
 31
0.0
  0
LINE
  5
193
330
1F
100
AcDbEntity
  8
0
100
AcDbLine
 10
-21.35106859077528
 20
12.48857150457212
 30
0.0
 11
-21.58793282978476
 21
12.11384851610769
 31
0.0
  0
LINE
  5
194
330
1F
100
AcDbEntity
  8
0
100
AcDbLine
 10
-21.58793282978476
 20
12.11384851610769
 30
0.0
 11
-21.81822117532729
 21
11.73504874879977
 31
0.0
  0
LINE
  5
195
330
1F
100
AcDbEntity
  8
0
100
AcDbLine
 10
-21.81822117532729
 20
11.73504874879977
 30
0.0
 11
-22.04186347934196
 21
11.35228758872699
 31
0.0
  0
LINE
  5
196
330
1F
100
AcDbEntity
  8
0
100
AcDbLine
 10
-22.04186347934196
 20
11.35228758872699
 30
0.0
 11
-22.2587916182165
 21
10.9656816286466
 31
0.0
  0
LINE
  5
197
330
1F
100
AcDbEntity
  8
0
100
AcDbLine
 10
-22.2587916182165
 20
10.9656816286466
 30
0.0
 11
-22.46893951353836
 21
10.57534863247917
 31
0.0
  0
LINE
  5
198
330
1F
100
AcDbEntity
  8
0
100
AcDbLine
 10
-22.46893951353836
 20
10.57534863247917
 30
0.0
 11
-22.6722431522229
 21
10.18140749943658
 31
0.0
  0
LINE
  5
199
330
1F
100
AcDbEntity
  8
0
100
AcDbLine
 10
-22.6722431522229
 20
10.18140749943658
 30
0.0
 11
-22.86864060601233
 21
9.783978227804155
 31
0.0
  0
LINE
  5
19A
330
1F
100
AcDbEntity
  8
0
100
AcDbLine
 10
-22.86864060601233
 20
9.783978227804155
 30
0.0
 11
-23.05807205033967
 21
9.383181878388008
 31
0.0
  0
LINE
  5
19B
330
1F
100
AcDbEntity
  8
0
100
AcDbLine
 10
-23.05807205033967
 20
9.383181878388008
 30
0.0
 11
-23.24047978255192
 21
8.979140537638775
 31
0.0
  0
LINE
  5
19C
330
1F
100
AcDbEntity
  8
0
100
AcDbLine
 10
-23.24047978255192
 20
8.979140537638775
 30
0.0
 11
-23.41580823948681
 21
8.571977280462885
 31
0.0
  0
LINE
  5
19D
330
1F
100
AcDbEntity
  8
0
100
AcDbLine
 10
-23.41580823948681
 20
8.571977280462885
 30
0.0
 11
-23.58400401439793
 21
8.161816132732753
 31
0.0
  0
LINE
  5
19E
330
1F
100
AcDbEntity
  8
0
100
AcDbLine
 10
-23.58400401439793
 20
8.161816132732753
 30
0.0
 11
-23.74501587322288
 21
7.748782033507299
 31
0.0
  0
LINE
  5
19F
330
1F
100
AcDbEntity
  8
0
100
AcDbLine
 10
-23.74501587322288
 20
7.748782033507299
 30
0.0
 11
-23.89879477018973
 21
7.333000796974297
 31
0.0
  0
LINE
  5
1A0
330
1F
100
AcDbEntity
  8
0
100
AcDbLine
 10
-23.89879477018973
 20
7.333000796974297
 30
0.0
 11
-24.04529386275674
 21
6.914599074126153
 31
0.0
  0
LINE
  5
1A1
330
1F
100
AcDbEntity
  8
0
100
AcDbLine
 10
-24.04529386275674
 20
6.914599074126153
 30
0.0
 11
-24.18446852588117
 21
6.493704314180805
 31
0.0
  0
LINE
  5
1A2
330
1F
100
AcDbEntity
  8
0
100
AcDbLine
 10
-24.18446852588117
 20
6.493704314180805
 30
0.0
 11
-24.31627636561241
 21
6.070444725759425
 31
0.0
  0
LINE
  5
1A3
330
1F
100
AcDbEntity
  8
0
100
AcDbLine
 10
-24.31627636561241
 20
6.070444725759425
 30
0.0
 11
-24.44067723200563
 21
5.644949237832856
 31
0.0
  0
LINE
  5
1A4
330
1F
100
AcDbEntity
  8
0
100
AcDbLine
 10
-24.44067723200563
 20
5.644949237832856
 30
0.0
 11
-24.55763323135182
 21
5.217347460448586
 31
0.0
  0
LINE
  5
1A5
330
1F
100
AcDbEntity
  8
0
100
AcDbLine
 10
-24.55763323135182
 20
5.217347460448586
 30
0.0
 11
-24.66710873772061
 21
4.78776964525028
 31
0.0
  0
LINE
  5
1A6
330
1F
100
AcDbEntity
  8
0
100
AcDbLine
 10
-24.66710873772061
 20
4.78776964525028
 30
0.0
 11
-24.76907040381224
 21
4.356346645801862
 31
0.0
  0
LINE
  5
1A7
330
1F
100
AcDbEntity
  8
0
100
AcDbLine
 10
-24.76907040381224
 20
4.356346645801862
 30
0.0
 11
-24.86348717111549
 21
3.923209877728247
 31
0.0
  0
LINE
  5
1A8
330
1F
100
AcDbEntity
  8
0
100
AcDbLine
 10
-24.86348717111549
 20
3.923209877728247
 30
0.0
 11
-24.95033027936842
 21
3.488491278684887
 31
0.0
  0
LINE
  5
1A9
330
1F
100
AcDbEntity
  8
0
100
AcDbLine
 10
-24.95033027936842
 20
3.488491278684887
 30
0.0
 11
-25.02957327531897
 21
3.05232326816826
 31
0.0
  0
LINE
  5
1AA
330
1F
100
AcDbEntity
  8
0
100
AcDbLine
 10
-25.02957327531897
 20
3.05232326816826
 30
0.0
 11
-25.10119202078294
 21
2.614838707179625
 31
0.0
  0
LINE
  5
1AB
330
1F
100
AcDbEntity
  8
0
100
AcDbLine
 10
-25.10119202078294
 20
2.614838707179625
 30
0.0
 11
-25.16516469999667
 21
2.176170857754268
 31
0.0
  0
LINE
  5
1AC
330
1F
100
AcDbEntity
  8
0
100
AcDbLine
 10
-25.16516469999667
 20
2.176170857754268
 30
0.0
 11
-25.22147182626236
 21
1.736453342368592
 31
0.0
  0
LINE
  5
1AD
330
1F
100
AcDbEntity
  8
0
100
AcDbLine
 10
-25.22147182626236
 20
1.736453342368592
 30
0.0
 11
-25.27009624788388
 21
1.295820103237425
 31
0.0
  0
LINE
  5
1AE
330
1F
100
AcDbEntity
  8
0
100
AcDbLine
 10
-25.27009624788388
 20
1.295820103237425
 30
0.0
 11
-25.31102315339139
 21
0.8544053615139159
 31
0.0
  0
LINE
  5
1AF
330
1F
100
AcDbEntity
  8
0
100
AcDbLine
 10
-25.31102315339139
 20
0.8544053615139159
 30
0.0
 11
-25.34424007605298
 21
0.4123435764044753
 31
0.0
  0
LINE
  5
1B0
330
1F
100
AcDbEntity
  8
0
100
AcDbLine
 10
-25.34424007605298
 20
0.4123435764044753
 30
0.0
 11
-25.36973689767224
 21
-0.0302305957888054
 31
0.0
  0
LINE
  5
1B1
330
1F
100
AcDbEntity
  8
0
100
AcDbLine
 10
-25.36973689767224
 20
-0.0302305957888054
 30
0.0
 11
-25.38750585167031
 21
-0.4731823426857619
 31
0.0
  0
LINE
  5
1B2
330
1F
100
AcDbEntity
  8
0
100
AcDbLine
 10
-25.38750585167031
 20
-0.4731823426857619
 30
0.0
 11
-25.39754152545166
 21
-0.9163767368933224
 31
0.0
  0
LINE
  5
1B3
330
1F
100
AcDbEntity
  8
0
100
AcDbLine
 10
-25.39754152545166
 20
-0.9163767368933224
 30
0.0
 11
-25.39984086205286
 21
-1.359678777105689
 31
0.0
  0
LINE
  5
1B4
330
1F
100
AcDbEntity
  8
0
100
AcDbLine
 10
-25.39984086205286
 20
-1.359678777105689
 30
0.0
 11
-25.39440316107369
 21
-1.802953429227049
 31
0.0
  0
LINE
  5
1B5
330
1F
100
AcDbEntity
  8
0
100
AcDbLine
 10
-25.39440316107369
 20
-1.802953429227049
 30
0.0
 11
-25.38123007889056
 21
-2.24606566750427
 31
0.0
  0
LINE
  5
1B6
330
1F
100
AcDbEntity
  8
0
100
AcDbLine
 10
-25.38123007889056
 20
-2.24606566750427
 30
0.0
 11
-25.36032562815189
 21
-2.688880515657047
 31
0.0
  0
LINE
  5
1B7
330
1F
100
AcDbEntity
  8
0
100
AcDbLine
 10
-25.36032562815189
 20
-2.688880515657047
 30
0.0
 11
-25.3316961765559
 21
-3.131263087992988
 31
0.0
  0
LINE
  5
1B8
330
1F
100
AcDbEntity
  8
0
100
AcDbLine
 10
-25.3316961765559
 20
-3.131263087992988
 30
0.0
 11
-25.29535044491088
 21
-3.573078630495103
 31
0.0
  0
LINE
  5
1B9
330
1F
100
AcDbEntity
  8
0
100
AcDbLine
 10
-25.29535044491088
 20
-3.573078630495103
 30
0.0
 11
-25.25129950447878
 21
-4.014192561869186
 31
0.0
  0
LINE
  5
1BA
330
1F
100
AcDbEntity
  8
0
100
AcDbLine
 10
-25.25129950447878
 20
-4.014192561869186
 30
0.0
 11
-25.19955677360279
 21
-4.454470514538573
 31
0.0
  0
LINE
  5
1BB
330
1F
100
AcDbEntity
  8
0
100
AcDbLine
 10
-25.19955677360279
 20
-4.454470514538573
 30
0.0
 11
-25.14013801361996
 21
-4.893778375573811
 31
0.0
  0
LINE
  5
1BC
330
1F
100
AcDbEntity
  8
0
100
AcDbLine
 10
-25.14013801361996
 20
-4.893778375573811
 30
0.0
 11
-25.07306132406021
 21
-5.331982327544758
 31
0.0
  0
LINE
  5
1BD
330
1F
100
AcDbEntity
  8
0
100
AcDbLine
 10
-25.07306132406021
 20
-5.331982327544758
 30
0.0
 11
-24.99834713713294
 21
-5.768948889282667
 31
0.0
  0
LINE
  5
1BE
330
1F
100
AcDbEntity
  8
0
100
AcDbLine
 10
-24.99834713713294
 20
-5.768948889282667
 30
0.0
 11
-24.91601821150328
 21
-6.204544956539841
 31
0.0
  0
LINE
  5
1BF
330
1F
100
AcDbEntity
  8
0
100
AcDbLine
 10
-24.91601821150328
 20
-6.204544956539841
 30
0.0
 11
-24.8260996253595
 21
-6.638637842534484
 31
0.0
  0
LINE
  5
1C0
330
1F
100
AcDbEntity
  8
0
100
AcDbLine
 10
-24.8260996253595
 20
-6.638637842534484
 30
0.0
 11
-24.72861876877402
 21
-7.071095318368364
 31
0.0
  0
LINE
  5
1C1
330
1F
100
AcDbEntity
  8
0
100
AcDbLine
 10
-24.72861876877402
 20
-7.071095318368364
 30
0.0
 11
-24.62360533536005
 21
-7.501785653305036
 31
0.0
  0
LINE
  5
1C2
330
1F
100
AcDbEntity
  8
0
100
AcDbLine
 10
-24.62360533536005
 20
-7.501785653305036
 30
0.0
 11
-24.51109131322672
 21
-7.930577654896287
 31
0.0
  0
LINE
  5
1C3
330
1F
100
AcDbEntity
  8
0
100
AcDbLine
 10
-24.51109131322672
 20
-7.930577654896287
 30
0.0
 11
-24.3911109752351
 21
-8.35734070894463
 31
0.0
  0
LINE
  5
1C4
330
1F
100
AcDbEntity
  8
0
100
AcDbLine
 10
-24.3911109752351
 20
-8.35734070894463
 30
0.0
 11
-24.26370086855844
 21
-8.781944819289656
 31
0.0
  0
LINE
  5
1C5
330
1F
100
AcDbEntity
  8
0
100
AcDbLine
 10
-24.26370086855844
 20
-8.781944819289656
 30
0.0
 11
-24.12889980354945
 21
-9.204260647406121
 31
0.0
  0
LINE
  5
1C6
330
1F
100
AcDbEntity
  8
0
100
AcDbLine
 10
-24.12889980354945
 20
-9.204260647406121
 30
0.0
 11
-23.98674884191841
 21
-9.624159551801718
 31
0.0
  0
LINE
  5
1C7
330
1F
100
AcDbEntity
  8
0
100
AcDbLine
 10
-23.98674884191841
 20
-9.624159551801718
 30
0.0
 11
-23.83729128422526
 21
-10.04151362720251
 31
0.0
  0
LINE
  5
1C8
330
1F
100
AcDbEntity
  8
0
100
AcDbLine
 10
-23.83729128422526
 20
-10.04151362720251
 30
0.0
 11
-23.68057265668949
 21
-10.45619574351524
 31
0.0
  0
LINE
  5
1C9
330
1F
100
AcDbEntity
  8
0
100
AcDbLine
 10
25.15081562194703
 20
-4.814097489545532
 30
0.0
 11
25.16516469999679
 21
-4.715704249076478
 31
0.0
  0
LINE
  5
1CA
330
1F
100
AcDbEntity
  8
0
100
AcDbLine
 10
0.0
 20
-26.66914119816494
 30
0.0
 11
0.0899120814452383
 21
-26.66960755771441
 31
0.0
  0
LINE
  5
1CB
330
1F
100
AcDbEntity
  8
0
100
AcDbLine
 10
24.59264738474122
 20
5.080233304338449
 30
0.0
 11
24.51109131322648
 21
5.391044263574052
 31
0.0
  0
LINE
  5
1CC
330
1F
100
AcDbEntity
  8
0
100
AcDbLine
 10
24.22420988131079
 20
-8.90562079154233
 30
0.0
 11
24.31627636561268
 21
-8.609978117081667
 31
0.0
  0
LINE
  5
1CD
330
1F
100
AcDbEntity
  8
0
100
AcDbLine
 10
-2.515339111672402
 20
24.00441008894842
 30
0.0
 11
-2.744425866208084
 21
23.98153280881718
 31
0.0
  0
LINE
  5
1CE
330
1F
100
AcDbEntity
  8
0
100
AcDbLine
 10
5.020534997060386
 20
23.62816888072906
 30
0.0
 11
4.758257974345998
 21
23.68056358370695
 31
0.0
  0
LINE
  5
1CF
330
1F
100
AcDbEntity
  8
0
100
AcDbLine
 10
-5.008503298869225
 20
23.63098001199215
 30
0.0
 11
-5.368871146873371
 21
23.55633292969786
 31
0.0
  0
LINE
  5
1D0
330
1F
100
AcDbEntity
  8
0
100
AcDbLine
 10
1.277012240516683
 20
24.47600748292157
 30
0.0
 11
1.277593743443029
 21
24.55911191885166
 31
0.0
  0
LINE
  5
1D1
330
1F
100
AcDbEntity
  8
0
100
AcDbLine
 10
1.277593743443029
 20
24.55911191885166
 30
0.0
 11
1.272738711164236
 21
24.64207645391626
 31
0.0
  0
LINE
  5
1D2
330
1F
100
AcDbEntity
  8
0
100
AcDbLine
 10
1.272738711164236
 20
24.64207645391626
 30
0.0
 11
1.262467933673886
 21
24.72454582123926
 31
0.0
  0
LINE
  5
1D3
330
1F
100
AcDbEntity
  8
0
100
AcDbLine
 10
1.262467933673886
 20
24.72454582123926
 30
0.0
 11
1.246825392017984
 21
24.80616687432886
 31
0.0
  0
LINE
  5
1D4
330
1F
100
AcDbEntity
  8
0
100
AcDbLine
 10
1.246825392017984
 20
24.80616687432886
 30
0.0
 11
1.225878069961392
 21
24.88659009930505
 31
0.0
  0
LINE
  5
1D5
330
1F
100
AcDbEntity
  8
0
100
AcDbLine
 10
1.225878069961392
 20
24.88659009930505
 30
0.0
 11
1.199715667153046
 21
24.96547111157167
 31
0.0
  0
LINE
  5
1D6
330
1F
100
AcDbEntity
  8
0
100
AcDbLine
 10
1.199715667153046
 20
24.96547111157167
 30
0.0
 11
1.168450215018299
 21
25.04247213052416
 31
0.0
  0
LINE
  5
1D7
330
1F
100
AcDbEntity
  8
0
100
AcDbLine
 10
1.168450215018299
 20
25.04247213052416
 30
0.0
 11
1.132215597023148
 21
25.11726342597797
 31
0.0
  0
LINE
  5
1D8
330
1F
100
AcDbEntity
  8
0
100
AcDbLine
 10
1.132215597023148
 20
25.11726342597797
 30
0.0
 11
1.091166975364692
 21
25.18952473012378
 31
0.0
  0
LINE
  5
1D9
330
1F
100
AcDbEntity
  8
0
100
AcDbLine
 10
1.091166975364692
 20
25.18952473012378
 30
0.0
 11
1.045480126542768
 21
25.25894660896349
 31
0.0
  0
LINE
  5
1DA
330
1F
100
AcDbEntity
  8
0
100
AcDbLine
 10
1.045480126542768
 20
25.25894660896349
 30
0.0
 11
0.9953506886580041
 21
25.32523178735407
 31
0.0
  0
LINE
  5
1DB
330
1F
100
AcDbEntity
  8
0
100
AcDbLine
 10
0.9953506886580041
 20
25.32523178735407
 30
0.0
 11
0.9409933236594342
 21
25.38809642198535
 31
0.0
  0
LINE
  5
1DC
330
1F
100
AcDbEntity
  8
0
100
AcDbLine
 10
0.9409933236594342
 20
25.38809642198535
 30
0.0
 11
0.8826407981290788
 21
25.4472713168407
 31
0.0
  0
LINE
  5
1DD
330
1F
100
AcDbEntity
  8
0
100
AcDbLine
 10
0.8826407981290788
 20
25.4472713168407
 30
0.0
 11
0.8205429865397005
 21
25.50250307593566
 31
0.0
  0
LINE
  5
1DE
330
1F
100
AcDbEntity
  8
0
100
AcDbLine
 10
0.8205429865397005
 20
25.50250307593566
 30
0.0
 11
0.7549658012539542
 21
25.55355518839843
 31
0.0
  0
LINE
  5
1DF
330
1F
100
AcDbEntity
  8
0
100
AcDbLine
 10
0.7549658012539542
 20
25.55355518839843
 30
0.0
 11
0.6861900538468253
 21
25.6002090412458
 31
0.0
  0
LINE
  5
1E0
330
1F
100
AcDbEntity
  8
0
100
AcDbLine
 10
0.6861900538468253
 20
25.6002090412458
 30
0.0
 11
0.6145102526273587
 21
25.64226485551744
 31
0.0
  0
LINE
  5
1E1
330
1F
100
AcDbEntity
  8
0
100
AcDbLine
 10
0.6145102526273587
 20
25.64226485551744
 30
0.0
 11
0.540233341508857
 21
25.67954254176011
 31
0.0
  0
LINE
  5
1E2
330
1F
100
AcDbEntity
  8
0
100
AcDbLine
 10
0.540233341508857
 20
25.67954254176011
 30
0.0
 11
0.4636773856279289
 21
25.71188247119835
 31
0.0
  0
LINE
  5
1E3
330
1F
100
AcDbEntity
  8
0
100
AcDbLine
 10
0.4636773856279289
 20
25.71188247119835
 30
0.0
 11
0.3851702093407428
 21
25.73914615928938
 31
0.0
  0
LINE
  5
1E4
330
1F
100
AcDbEntity
  8
0
100
AcDbLine
 10
0.3851702093407428
 20
25.73914615928938
 30
0.0
 11
0.3050479924287987
 21
25.76121685873521
 31
0.0
  0
LINE
  5
1E5
330
1F
100
AcDbEntity
  8
0
100
AcDbLine
 10
0.3050479924287987
 20
25.76121685873521
 30
0.0
 11
0.2236538305255029
 21
25.77800005941246
 31
0.0
  0
LINE
  5
1E6
330
1F
100
AcDbEntity
  8
0
100
AcDbLine
 10
0.2236538305255029
 20
25.77800005941246
 30
0.0
 11
0.1413362659279789
 21
25.78942389307921
 31
0.0
  0
LINE
  5
1E7
330
1F
100
AcDbEntity
  8
0
100
AcDbLine
 10
0.1413362659279789
 20
25.78942389307921
 30
0.0
 11
0.0584477950854626
 21
25.79543944112589
 31
0.0
  0
LINE
  5
1E8
330
1F
100
AcDbEntity
  8
0
100
AcDbLine
 10
0.0584477950854626
 20
25.79543944112589
 30
0.0
 11
-0.0246566408446344
 21
25.79602094405223
 31
0.0
  0
LINE
  5
1E9
330
1F
100
AcDbEntity
  8
0
100
AcDbLine
 10
-0.0246566408446344
 20
25.79602094405223
 30
0.0
 11
-0.1076211759092296
 21
25.79116591177343
 31
0.0
  0
LINE
  5
1EA
330
1F
100
AcDbEntity
  8
0
100
AcDbLine
 10
-0.1076211759092296
 20
25.79116591177343
 30
0.0
 11
-0.1900905432322338
 21
25.78089513428309
 31
0.0
  0
LINE
  5
1EB
330
1F
100
AcDbEntity
  8
0
100
AcDbLine
 10
-0.1900905432322338
 20
25.78089513428309
 30
0.0
 11
-0.2717115963218399
 21
25.76525259262718
 31
0.0
  0
LINE
  5
1EC
330
1F
100
AcDbEntity
  8
0
100
AcDbLine
 10
-0.2717115963218399
 20
25.76525259262718
 30
0.0
 11
-0.3521348212980253
 21
25.7443052705706
 31
0.0
  0
LINE
  5
1ED
330
1F
100
AcDbEntity
  8
0
100
AcDbLine
 10
-0.3521348212980253
 20
25.7443052705706
 30
0.0
 11
-0.4310158335646462
 21
25.71814286776225
 31
0.0
  0
LINE
  5
1EE
330
1F
100
AcDbEntity
  8
0
100
AcDbLine
 10
-0.4310158335646462
 20
25.71814286776225
 30
0.0
 11
-0.5080168525171409
 21
25.68687741562751
 31
0.0
  0
LINE
  5
1EF
330
1F
100
AcDbEntity
  8
0
100
AcDbLine
 10
-0.5080168525171409
 20
25.68687741562751
 30
0.0
 11
-0.5828081479709468
 21
25.65064279763235
 31
0.0
  0
LINE
  5
1F0
330
1F
100
AcDbEntity
  8
0
100
AcDbLine
 10
-0.5828081479709468
 20
25.65064279763235
 30
0.0
 11
-0.6550694521167585
 21
25.6095941759739
 31
0.0
  0
LINE
  5
1F1
330
1F
100
AcDbEntity
  8
0
100
AcDbLine
 10
-0.6550694521167585
 20
25.6095941759739
 30
0.0
 11
-0.7244913309564676
 21
25.56390732715197
 31
0.0
  0
LINE
  5
1F2
330
1F
100
AcDbEntity
  8
0
100
AcDbLine
 10
-0.7244913309564676
 20
25.56390732715197
 30
0.0
 11
-0.7907765093470425
 21
25.5137778892672
 31
0.0
  0
LINE
  5
1F3
330
1F
100
AcDbEntity
  8
0
100
AcDbLine
 10
-0.7907765093470425
 20
25.5137778892672
 30
0.0
 11
-0.8536411439783277
 21
25.45942052426864
 31
0.0
  0
LINE
  5
1F4
330
1F
100
AcDbEntity
  8
0
100
AcDbLine
 10
-0.8536411439783277
 20
25.45942052426864
 30
0.0
 11
-0.9128160388336811
 21
25.40106799873828
 31
0.0
  0
LINE
  5
1F5
330
1F
100
AcDbEntity
  8
0
100
AcDbLine
 10
-0.9128160388336811
 20
25.40106799873828
 30
0.0
 11
-0.9680477979286338
 21
25.3389701871489
 31
0.0
  0
LINE
  5
1F6
330
1F
100
AcDbEntity
  8
0
100
AcDbLine
 10
-0.9680477979286338
 20
25.3389701871489
 30
0.0
 11
-1.019099910391407
 21
25.27339300186316
 31
0.0
  0
LINE
  5
1F7
330
1F
100
AcDbEntity
  8
0
100
AcDbLine
 10
-1.019099910391407
 20
25.27339300186316
 30
0.0
 11
-1.065753763238775
 21
25.20461725445602
 31
0.0
  0
LINE
  5
1F8
330
1F
100
AcDbEntity
  8
0
100
AcDbLine
 10
-1.065753763238775
 20
25.20461725445602
 30
0.0
 11
-1.107809577510412
 21
25.13293745323655
 31
0.0
  0
LINE
  5
1F9
330
1F
100
AcDbEntity
  8
0
100
AcDbLine
 10
-1.107809577510412
 20
25.13293745323655
 30
0.0
 11
-1.145087263753085
 21
25.05866054211806
 31
0.0
  0
LINE
  5
1FA
330
1F
100
AcDbEntity
  8
0
100
AcDbLine
 10
-1.145087263753085
 20
25.05866054211806
 30
0.0
 11
-1.177427193191324
 21
24.98210458623713
 31
0.0
  0
LINE
  5
1FB
330
1F
100
AcDbEntity
  8
0
100
AcDbLine
 10
-1.177427193191324
 20
24.98210458623713
 30
0.0
 11
-1.20469088128236
 21
24.90359740994995
 31
0.0
  0
LINE
  5
1FC
330
1F
100
AcDbEntity
  8
0
100
AcDbLine
 10
-1.20469088128236
 20
24.90359740994995
 30
0.0
 11
-1.226761580728192
 21
24.823475193038
 31
0.0
  0
LINE
  5
1FD
330
1F
100
AcDbEntity
  8
0
100
AcDbLine
 10
-1.226761580728192
 20
24.823475193038
 30
0.0
 11
-1.243544781405433
 21
24.74208103113471
 31
0.0
  0
LINE
  5
1FE
330
1F
100
AcDbEntity
  8
0
100
AcDbLine
 10
-1.243544781405433
 20
24.74208103113471
 30
0.0
 11
-1.254968615072183
 21
24.65976346653719
 31
0.0
  0
LINE
  5
1FF
330
1F
100
AcDbEntity
  8
0
100
AcDbLine
 10
-1.254968615072183
 20
24.65976346653719
 30
0.0
 11
-1.260984163118859
 21
24.57687499569466
 31
0.0
  0
LINE
  5
200
330
1F
100
AcDbEntity
  8
0
100
AcDbLine
 10
-1.260984163118859
 20
24.57687499569466
 30
0.0
 11
-1.261565666045205
 21
24.49377055976457
 31
0.0
  0
LINE
  5
201
330
1F
100
AcDbEntity
  8
0
100
AcDbLine
 10
-1.261565666045205
 20
24.49377055976457
 30
0.0
 11
-1.256710633766415
 21
24.41080602469997
 31
0.0
  0
LINE
  5
202
330
1F
100
AcDbEntity
  8
0
100
AcDbLine
 10
-1.256710633766415
 20
24.41080602469997
 30
0.0
 11
-1.246439856276061
 21
24.32833665737697
 31
0.0
  0
LINE
  5
203
330
1F
100
AcDbEntity
  8
0
100
AcDbLine
 10
-1.246439856276061
 20
24.32833665737697
 30
0.0
 11
-1.230797314620162
 21
24.24671560428736
 31
0.0
  0
LINE
  5
204
330
1F
100
AcDbEntity
  8
0
100
AcDbLine
 10
-1.230797314620162
 20
24.24671560428736
 30
0.0
 11
-1.209849992563571
 21
24.16629237931118
 31
0.0
  0
LINE
  5
205
330
1F
100
AcDbEntity
  8
0
100
AcDbLine
 10
-1.209849992563571
 20
24.16629237931118
 30
0.0
 11
-1.183687589755226
 21
24.08741136704455
 31
0.0
  0
LINE
  5
206
330
1F
100
AcDbEntity
  8
0
100
AcDbLine
 10
-1.183687589755226
 20
24.08741136704455
 30
0.0
 11
-1.152422137620478
 21
24.01041034809205
 31
0.0
  0
LINE
  5
207
330
1F
100
AcDbEntity
  8
0
100
AcDbLine
 10
-1.152422137620478
 20
24.01041034809205
 30
0.0
 11
-1.116187519625327
 21
23.93561905263826
 31
0.0
  0
LINE
  5
208
330
1F
100
AcDbEntity
  8
0
100
AcDbLine
 10
-1.116187519625327
 20
23.93561905263826
 30
0.0
 11
-1.07513889796687
 21
23.86335774849244
 31
0.0
  0
LINE
  5
209
330
1F
100
AcDbEntity
  8
0
100
AcDbLine
 10
-1.07513889796687
 20
23.86335774849244
 30
0.0
 11
-1.029452049144945
 21
23.79393586965273
 31
0.0
  0
LINE
  5
20A
330
1F
100
AcDbEntity
  8
0
100
AcDbLine
 10
-1.029452049144945
 20
23.79393586965273
 30
0.0
 11
-0.9793226112601815
 21
23.72765069126215
 31
0.0
  0
LINE
  5
20B
330
1F
100
AcDbEntity
  8
0
100
AcDbLine
 10
-0.9793226112601815
 20
23.72765069126215
 30
0.0
 11
-0.9249652462616117
 21
23.66478605663086
 31
0.0
  0
LINE
  5
20C
330
1F
100
AcDbEntity
  8
0
100
AcDbLine
 10
-0.9249652462616117
 20
23.66478605663086
 30
0.0
 11
-0.8666127207312563
 21
23.60561116177551
 31
0.0
  0
LINE
  5
20D
330
1F
100
AcDbEntity
  8
0
100
AcDbLine
 10
-0.8666127207312563
 20
23.60561116177551
 30
0.0
 11
-0.8045149091418778
 21
23.55037940268056
 31
0.0
  0
LINE
  5
20E
330
1F
100
AcDbEntity
  8
0
100
AcDbLine
 10
-0.8045149091418778
 20
23.55037940268056
 30
0.0
 11
-0.7389377238561331
 21
23.49932729021779
 31
0.0
  0
LINE
  5
20F
330
1F
100
AcDbEntity
  8
0
100
AcDbLine
 10
-0.7389377238561331
 20
23.49932729021779
 30
0.0
 11
-0.6701619764490051
 21
23.45267343737042
 31
0.0
  0
LINE
  5
210
330
1F
100
AcDbEntity
  8
0
100
AcDbLine
 10
-0.6701619764490051
 20
23.45267343737042
 30
0.0
 11
-0.598482175229536
 21
23.41061762309879
 31
0.0
  0
LINE
  5
211
330
1F
100
AcDbEntity
  8
0
100
AcDbLine
 10
-0.598482175229536
 20
23.41061762309879
 30
0.0
 11
-0.5242052641110356
 21
23.37333993685611
 31
0.0
  0
LINE
  5
212
330
1F
100
AcDbEntity
  8
0
100
AcDbLine
 10
-0.5242052641110356
 20
23.37333993685611
 30
0.0
 11
-0.447649308230109
 21
23.34100000741788
 31
0.0
  0
LINE
  5
213
330
1F
100
AcDbEntity
  8
0
100
AcDbLine
 10
-0.447649308230109
 20
23.34100000741788
 30
0.0
 11
-0.3691421319429197
 21
23.31373631932684
 31
0.0
  0
LINE
  5
214
330
1F
100
AcDbEntity
  8
0
100
AcDbLine
 10
-0.3691421319429197
 20
23.31373631932684
 30
0.0
 11
-0.2890199150309752
 21
23.29166561988101
 31
0.0
  0
LINE
  5
215
330
1F
100
AcDbEntity
  8
0
100
AcDbLine
 10
-0.2890199150309752
 20
23.29166561988101
 30
0.0
 11
-0.207625753127678
 21
23.27488241920377
 31
0.0
  0
LINE
  5
216
330
1F
100
AcDbEntity
  8
0
100
AcDbLine
 10
-0.207625753127678
 20
23.27488241920377
 30
0.0
 11
-0.1253081885301556
 21
23.26345858553702
 31
0.0
  0
LINE
  5
217
330
1F
100
AcDbEntity
  8
0
100
AcDbLine
 10
-0.1253081885301556
 20
23.26345858553702
 30
0.0
 11
-0.0424197176876365
 21
23.25744303749034
 31
0.0
  0
LINE
  5
218
330
1F
100
AcDbEntity
  8
0
100
AcDbLine
 10
-0.0424197176876365
 20
23.25744303749034
 30
0.0
 11
0.0406847182424605
 21
23.256861534564
 31
0.0
  0
LINE
  5
219
330
1F
100
AcDbEntity
  8
0
100
AcDbLine
 10
0.0406847182424605
 20
23.256861534564
 30
0.0
 11
0.1236492533070558
 21
23.26171656684278
 31
0.0
  0
LINE
  5
21A
330
1F
100
AcDbEntity
  8
0
100
AcDbLine
 10
0.1236492533070558
 20
23.26171656684278
 30
0.0
 11
0.2061186206300593
 21
23.27198734433313
 31
0.0
  0
LINE
  5
21B
330
1F
100
AcDbEntity
  8
0
100
AcDbLine
 10
0.2061186206300593
 20
23.27198734433313
 30
0.0
 11
0.2877396737196662
 21
23.28762988598904
 31
0.0
  0
LINE
  5
21C
330
1F
100
AcDbEntity
  8
0
100
AcDbLine
 10
0.2877396737196662
 20
23.28762988598904
 30
0.0
 11
0.368162898695854
 21
23.30857720804563
 31
0.0
  0
LINE
  5
21D
330
1F
100
AcDbEntity
  8
0
100
AcDbLine
 10
0.368162898695854
 20
23.30857720804563
 30
0.0
 11
0.4470439109624732
 21
23.33473961085397
 31
0.0
  0
LINE
  5
21E
330
1F
100
AcDbEntity
  8
0
100
AcDbLine
 10
0.4470439109624732
 20
23.33473961085397
 30
0.0
 11
0.5240449299149693
 21
23.36600506298873
 31
0.0
  0
LINE
  5
21F
330
1F
100
AcDbEntity
  8
0
100
AcDbLine
 10
0.5240449299149693
 20
23.36600506298873
 30
0.0
 11
0.5988362253687752
 21
23.40223968098387
 31
0.0
  0
LINE
  5
220
330
1F
100
AcDbEntity
  8
0
100
AcDbLine
 10
0.5988362253687752
 20
23.40223968098387
 30
0.0
 11
0.6710975295145871
 21
23.44328830264233
 31
0.0
  0
LINE
  5
221
330
1F
100
AcDbEntity
  8
0
100
AcDbLine
 10
0.6710975295145871
 20
23.44328830264233
 30
0.0
 11
0.7405194083542956
 21
23.48897515146426
 31
0.0
  0
LINE
  5
222
330
1F
100
AcDbEntity
  8
0
100
AcDbLine
 10
0.7405194083542956
 20
23.48897515146426
 30
0.0
 11
0.8068045867448734
 21
23.53910458934902
 31
0.0
  0
LINE
  5
223
330
1F
100
AcDbEntity
  8
0
100
AcDbLine
 10
0.8068045867448734
 20
23.53910458934902
 30
0.0
 11
0.8696692213761588
 21
23.59346195434759
 31
0.0
  0
LINE
  5
224
330
1F
100
AcDbEntity
  8
0
100
AcDbLine
 10
0.8696692213761588
 20
23.59346195434759
 30
0.0
 11
0.9288441162315136
 21
23.65181447987794
 31
0.0
  0
LINE
  5
225
330
1F
100
AcDbEntity
  8
0
100
AcDbLine
 10
0.9288441162315136
 20
23.65181447987794
 30
0.0
 11
0.9840758753264635
 21
23.71391229146732
 31
0.0
  0
LINE
  5
226
330
1F
100
AcDbEntity
  8
0
100
AcDbLine
 10
0.9840758753264635
 20
23.71391229146732
 30
0.0
 11
1.035127987789241
 21
23.77948947675308
 31
0.0
  0
LINE
  5
227
330
1F
100
AcDbEntity
  8
0
100
AcDbLine
 10
1.035127987789241
 20
23.77948947675308
 30
0.0
 11
1.081781840636606
 21
23.8482652241602
 31
0.0
  0
LINE
  5
228
330
1F
100
AcDbEntity
  8
0
100
AcDbLine
 10
1.081781840636606
 20
23.8482652241602
 30
0.0
 11
1.123837654908243
 21
23.91994502537968
 31
0.0
  0
LINE
  5
229
330
1F
100
AcDbEntity
  8
0
100
AcDbLine
 10
1.123837654908243
 20
23.91994502537968
 30
0.0
 11
1.161115341150912
 21
23.99422193649817
 31
0.0
  0
LINE
  5
22A
330
1F
100
AcDbEntity
  8
0
100
AcDbLine
 10
1.161115341150912
 20
23.99422193649817
 30
0.0
 11
1.193455270589152
 21
24.07077789237909
 31
0.0
  0
LINE
  5
22B
330
1F
100
AcDbEntity
  8
0
100
AcDbLine
 10
1.193455270589152
 20
24.07077789237909
 30
0.0
 11
1.220718958680189
 21
24.14928506866629
 31
0.0
  0
LINE
  5
22C
330
1F
100
AcDbEntity
  8
0
100
AcDbLine
 10
1.220718958680189
 20
24.14928506866629
 30
0.0
 11
1.242789658126018
 21
24.22940728557823
 31
0.0
  0
LINE
  5
22D
330
1F
100
AcDbEntity
  8
0
100
AcDbLine
 10
1.242789658126018
 20
24.22940728557823
 30
0.0
 11
1.25957285880326
 21
24.31080144748154
 31
0.0
  0
LINE
  5
22E
330
1F
100
AcDbEntity
  8
0
100
AcDbLine
 10
1.25957285880326
 20
24.31080144748154
 30
0.0
 11
1.270996692470007
 21
24.39311901207905
 31
0.0
  0
LINE
  5
22F
330
1F
100
AcDbEntity
  8
0
100
AcDbLine
 10
1.270996692470007
 20
24.39311901207905
 30
0.0
 11
1.277012240516683
 21
24.47600748292157
 31
0.0
  0
LINE
  5
230
330
1F
100
AcDbEntity
  8
0
100
AcDbLine
 10
2.531356371558634
 20
24.00350331452074
 30
0.0
 11
2.539647955369304
 21
24.17468073736481
 31
0.0
  0
LINE
  5
231
330
1F
100
AcDbEntity
  8
0
100
AcDbLine
 10
2.539647955369304
 20
24.17468073736481
 30
0.0
 11
2.530819534768648
 21
24.34592899796718
 31
0.0
  0
LINE
  5
232
330
1F
100
AcDbEntity
  8
0
100
AcDbLine
 10
2.530819534768648
 20
24.34592899796718
 30
0.0
 11
2.510456831889881
 21
24.51619134877062
 31
0.0
  0
LINE
  5
233
330
1F
100
AcDbEntity
  8
0
100
AcDbLine
 10
2.510456831889881
 20
24.51619134877062
 30
0.0
 11
2.478652652089408
 21
24.68469179956187
 31
0.0
  0
LINE
  5
234
330
1F
100
AcDbEntity
  8
0
100
AcDbLine
 10
2.478652652089408
 20
24.68469179956187
 30
0.0
 11
2.435551946568409
 21
24.85066239018935
 31
0.0
  0
LINE
  5
235
330
1F
100
AcDbEntity
  8
0
100
AcDbLine
 10
2.435551946568409
 20
24.85066239018935
 30
0.0
 11
2.3813511517411
 21
25.01334669062958
 31
0.0
  0
LINE
  5
236
330
1F
100
AcDbEntity
  8
0
100
AcDbLine
 10
2.3813511517411
 20
25.01334669062958
 30
0.0
 11
2.316297293953216
 21
25.17200324850398
 31
0.0
  0
LINE
  5
237
330
1F
100
AcDbEntity
  8
0
100
AcDbLine
 10
2.316297293953216
 20
25.17200324850398
 30
0.0
 11
2.240686863631078
 21
25.32590896833316
 31
0.0
  0
LINE
  5
238
330
1F
100
AcDbEntity
  8
0
100
AcDbLine
 10
2.240686863631078
 20
25.32590896833316
 30
0.0
 11
2.154864463992432
 21
25.47436240712763
 31
0.0
  0
LINE
  5
239
330
1F
100
AcDbEntity
  8
0
100
AcDbLine
 10
2.154864463992432
 20
25.47436240712763
 30
0.0
 11
2.059221240477719
 21
25.61668697129473
 31
0.0
  0
LINE
  5
23A
330
1F
100
AcDbEntity
  8
0
100
AcDbLine
 10
2.059221240477719
 20
25.61668697129473
 30
0.0
 11
1.954193098059817
 21
25.75223400029162
 31
0.0
  0
LINE
  5
23B
330
1F
100
AcDbEntity
  8
0
100
AcDbLine
 10
1.954193098059817
 20
25.75223400029162
 30
0.0
 11
1.840258714557076
 21
25.8803857229702
 31
0.0
  0
LINE
  5
23C
330
1F
100
AcDbEntity
  8
0
100
AcDbLine
 10
1.840258714557076
 20
25.8803857229702
 30
0.0
 11
1.717937359004201
 21
26.00055807314006
 31
0.0
  0
LINE
  5
23D
330
1F
100
AcDbEntity
  8
0
100
AcDbLine
 10
1.717937359004201
 20
26.00055807314006
 30
0.0
 11
1.587786525024006
 21
26.11220335151715
 31
0.0
  0
LINE
  5
23E
330
1F
100
AcDbEntity
  8
0
100
AcDbLine
 10
1.587786525024006
 20
26.11220335151715
 30
0.0
 11
1.45039938998621
 21
26.21481272192622
 31
0.0
  0
LINE
  5
23F
330
1F
100
AcDbEntity
  8
0
100
AcDbLine
 10
1.45039938998621
 20
26.21481272192622
 30
0.0
 11
1.306402111533475
 21
26.30791853038006
 31
0.0
  0
LINE
  5
240
330
1F
100
AcDbEntity
  8
0
100
AcDbLine
 10
1.306402111533475
 20
26.30791853038006
 30
0.0
 11
1.156450973796047
 21
26.3910964364663
 31
0.0
  0
LINE
  5
241
330
1F
100
AcDbEntity
  8
0
100
AcDbLine
 10
1.156450973796047
 20
26.3910964364663
 30
0.0
 11
1.001229396301483
 21
26.46396734732748
 31
0.0
  0
LINE
  5
242
330
1F
100
AcDbEntity
  8
0
100
AcDbLine
 10
1.001229396301483
 20
26.46396734732748
 30
0.0
 11
0.8414448192116821
 21
26.52619914542035
 31
0.0
  0
LINE
  5
243
330
1F
100
AcDbEntity
  8
0
100
AcDbLine
 10
0.8414448192116821
 20
26.52619914542035
 30
0.0
 11
0.6778254790831205
 21
26.57750820217969
 31
0.0
  0
LINE
  5
244
330
1F
100
AcDbEntity
  8
0
100
AcDbLine
 10
0.6778254790831205
 20
26.57750820217969
 30
0.0
 11
0.5111170898451286
 21
26.61766067068803
 31
0.0
  0
LINE
  5
245
330
1F
100
AcDbEntity
  8
0
100
AcDbLine
 10
0.5111170898451286
 20
26.61766067068803
 30
0.0
 11
0.3420794441230364
 21
26.64647355145986
 31
0.0
  0
LINE
  5
246
330
1F
100
AcDbEntity
  8
0
100
AcDbLine
 10
0.3420794441230364
 20
26.64647355145986
 30
0.0
 11
0.1714829503960441
 21
26.66381552648278
 31
0.0
  0
LINE
  5
247
330
1F
100
AcDbEntity
  8
0
100
AcDbLine
 10
0.1714829503960441
 20
26.66381552648278
 30
0.0
 11
0.0001051217721208
 21
26.66960755771441
 31
0.0
  0
LINE
  5
248
330
1F
100
AcDbEntity
  8
0
100
AcDbLine
 10
0.0001051217721208
 20
26.66960755771441
 30
0.0
 11
-0.1712729676172594
 21
26.66382324730739
 31
0.0
  0
LINE
  5
249
330
1F
100
AcDbEntity
  8
0
100
AcDbLine
 10
-0.1712729676172594
 20
26.66382324730739
 30
0.0
 11
-0.3418702424521536
 21
26.64648895792056
 31
0.0
  0
LINE
  5
24A
330
1F
100
AcDbEntity
  8
0
100
AcDbLine
 10
-0.3418702424521536
 20
26.64648895792056
 30
0.0
 11
-0.5109091860646044
 21
26.61768369256809
 31
0.0
  0
LINE
  5
24B
330
1F
100
AcDbEntity
  8
0
100
AcDbLine
 10
-0.5109091860646044
 20
26.61768369256809
 30
0.0
 11
-0.6776193840601263
 21
26.57753873455426
 31
0.0
  0
LINE
  5
24C
330
1F
100
AcDbEntity
  8
0
100
AcDbLine
 10
-0.6776193840601263
 20
26.57753873455426
 30
0.0
 11
-0.84124103556977
 21
26.52623704913462
 31
0.0
  0
LINE
  5
24D
330
1F
100
AcDbEntity
  8
0
100
AcDbLine
 10
-0.84124103556977
 20
26.52623704913462
 30
0.0
 11
-1.00102841612982
 21
26.46401244963091
 31
0.0
  0
LINE
  5
24E
330
1F
100
AcDbEntity
  8
0
100
AcDbLine
 10
-1.00102841612982
 20
26.46401244963091
 30
0.0
 11
-1.156253276406662
 21
26.39114853179997
 31
0.0
  0
LINE
  5
24F
330
1F
100
AcDbEntity
  8
0
100
AcDbLine
 10
-1.156253276406662
 20
26.39114853179997
 30
0.0
 11
-1.306208161276741
 21
26.30797738131351
 31
0.0
  0
LINE
  5
250
330
1F
100
AcDbEntity
  8
0
100
AcDbLine
 10
-1.306208161276741
 20
26.30797738131351
 30
0.0
 11
-1.450209634134513
 21
26.21487806023956
 31
0.0
  0
LINE
  5
251
330
1F
100
AcDbEntity
  8
0
100
AcDbLine
 10
-1.450209634134513
 20
26.21487806023956
 30
0.0
 11
-1.587601391733248
 21
26.11227487942351
 31
0.0
  0
LINE
  5
252
330
1F
100
AcDbEntity
  8
0
100
AcDbLine
 10
-1.587601391733248
 20
26.11227487942351
 30
0.0
 11
-1.717757255362433
 21
26.0006354646428
 31
0.0
  0
LINE
  5
253
330
1F
100
AcDbEntity
  8
0
100
AcDbLine
 10
-1.717757255362433
 20
26.0006354646428
 30
0.0
 11
-1.840084024729144
 21
25.88046862534867
 31
0.0
  0
LINE
  5
254
330
1F
100
AcDbEntity
  8
0
100
AcDbLine
 10
-1.840084024729144
 20
25.88046862534867
 30
0.0
 11
-1.954024181536492
 21
25.75232203570869
 31
0.0
  0
LINE
  5
255
330
1F
100
AcDbEntity
  8
0
100
AcDbLine
 10
-1.954024181536492
 20
25.75232203570869
 30
0.0
 11
-2.059058430437271
 21
25.61677973851889
 31
0.0
  0
LINE
  5
256
330
1F
100
AcDbEntity
  8
0
100
AcDbLine
 10
-2.059058430437271
 20
25.61677973851889
 30
0.0
 11
-2.154708065782134
 21
25.47445948336161
 31
0.0
  0
LINE
  5
257
330
1F
100
AcDbEntity
  8
0
100
AcDbLine
 10
-2.154708065782134
 20
25.47445948336161
 30
0.0
 11
-2.240537153375552
 21
25.32600991114088
 31
0.0
  0
LINE
  5
258
330
1F
100
AcDbEntity
  8
0
100
AcDbLine
 10
-2.240537153375552
 20
25.32600991114088
 30
0.0
 11
-2.316154517295963
 21
25.17210759782698
 31
0.0
  0
LINE
  5
259
330
1F
100
AcDbEntity
  8
0
100
AcDbLine
 10
-2.316154517295963
 20
25.17210759782698
 30
0.0
 11
-2.38121552272495
 21
25.01345397088385
 31
0.0
  0
LINE
  5
25A
330
1F
100
AcDbEntity
  8
0
100
AcDbLine
 10
-2.38121552272495
 20
25.01345397088385
 30
0.0
 11
-2.435423646659995
 21
24.85077211243282
 31
0.0
  0
LINE
  5
25B
330
1F
100
AcDbEntity
  8
0
100
AcDbLine
 10
-2.435423646659995
 20
24.85077211243282
 30
0.0
 11
-2.478531829352114
 21
24.68480346372283
 31
0.0
  0
LINE
  5
25C
330
1F
100
AcDbEntity
  8
0
100
AcDbLine
 10
-2.478531829352114
 20
24.68480346372283
 30
0.0
 11
-2.510343600309028
 21
24.5163044459268
 31
0.0
  0
LINE
  5
25D
330
1F
100
AcDbEntity
  8
0
100
AcDbLine
 10
-2.510343600309028
 20
24.5163044459268
 30
0.0
 11
-2.530713973731987
 21
24.34604301266534
 31
0.0
  0
LINE
  5
25E
330
1F
100
AcDbEntity
  8
0
100
AcDbLine
 10
-2.530713973731987
 20
24.34604301266534
 30
0.0
 11
-2.539550109305201
 21
24.17479514996986
 31
0.0
  0
LINE
  5
25F
330
1F
100
AcDbEntity
  8
0
100
AcDbLine
 10
-2.539550109305201
 20
24.17479514996986
 30
0.0
 11
-2.515339111672402
 21
24.00441008894842
 31
0.0
  0
LINE
  5
260
330
1F
100
AcDbEntity
  8
0
100
AcDbLine
 10
25.33295311284029
 20
-3.102087604549699
 30
0.0
 11
25.34424007605304
 21
-2.95187696772668
 31
0.0
  0
LINE
  5
261
330
1F
100
AcDbEntity
  8
0
100
AcDbLine
 10
16.02837120735593
 20
-20.97351224912976
 30
0.0
 11
16.05451259489212
 21
-20.95256693700044
 31
0.0
  0
LINE
  5
262
330
1F
100
AcDbEntity
  8
0
100
AcDbLine
 10
23.48584357508743
 20
-10.94072294749985
 30
0.0
 11
23.58400401439826
 21
-10.70134952405502
 31
0.0
  0
LINE
  5
263
330
1F
100
AcDbEntity
  8
0
100
AcDbLine
 10
19.90092948631748
 20
11.62131287330246
 30
0.0
 11
19.67291811831147
 21
11.9666686093197
 31
0.0
  0
LINE
  5
264
330
1F
100
AcDbEntity
  8
0
100
AcDbLine
 10
19.67291811831147
 20
11.9666686093197
 30
0.0
 11
19.43891418887079
 21
12.30799239891882
 31
0.0
  0
LINE
  5
265
330
1F
100
AcDbEntity
  8
0
100
AcDbLine
 10
19.43891418887079
 20
12.30799239891882
 30
0.0
 11
19.19898897785918
 21
12.64518027156702
 31
0.0
  0
LINE
  5
266
330
1F
100
AcDbEntity
  8
0
100
AcDbLine
 10
19.19898897785918
 20
12.64518027156702
 30
0.0
 11
18.95321556882014
 21
12.97812951657189
 31
0.0
  0
LINE
  5
267
330
1F
100
AcDbEntity
  8
0
100
AcDbLine
 10
18.95321556882014
 20
12.97812951657189
 30
0.0
 11
18.70166882671492
 21
13.30673871436804
 31
0.0
  0
LINE
  5
268
330
1F
100
AcDbEntity
  8
0
100
AcDbLine
 10
18.70166882671492
 20
13.30673871436804
 30
0.0
 11
18.44442537511794
 21
13.63090776741052
 31
0.0
  0
LINE
  5
269
330
1F
100
AcDbEntity
  8
0
100
AcDbLine
 10
18.44442537511794
 20
13.63090776741052
 30
0.0
 11
18.18156357287654
 21
13.95053793066547
 31
0.0
  0
LINE
  5
26A
330
1F
100
AcDbEntity
  8
0
100
AcDbLine
 10
18.18156357287654
 20
13.95053793066547
 30
0.0
 11
17.91316349024209
 21
14.26553184168884
 31
0.0
  0
LINE
  5
26B
330
1F
100
AcDbEntity
  8
0
100
AcDbLine
 10
17.91316349024209
 20
14.26553184168884
 30
0.0
 11
17.63930688447979
 21
14.57579355028392
 31
0.0
  0
LINE
  5
26C
330
1F
100
AcDbEntity
  8
0
100
AcDbLine
 10
17.63930688447979
 20
14.57579355028392
 30
0.0
 11
17.36007717496468
 21
14.88122854772869
 31
0.0
  0
LINE
  5
26D
330
1F
100
AcDbEntity
  8
0
100
AcDbLine
 10
17.36007717496468
 20
14.88122854772869
 30
0.0
 11
17.07555941777123
 21
15.18174379556412
 31
0.0
  0
LINE
  5
26E
330
1F
100
AcDbEntity
  8
0
100
AcDbLine
 10
17.07555941777123
 20
15.18174379556412
 30
0.0
 11
16.78584027976446
 21
15.47724775393456
 31
0.0
  0
LINE
  5
26F
330
1F
100
AcDbEntity
  8
0
100
AcDbLine
 10
16.78584027976446
 20
15.47724775393456
 30
0.0
 11
16.4910080122004
 21
15.76765040947169
 31
0.0
  0
LINE
  5
270
330
1F
100
AcDbEntity
  8
0
100
AcDbLine
 10
16.4910080122004
 20
15.76765040947169
 30
0.0
 11
16.19115242384383
 21
16.05286330271342
 31
0.0
  0
LINE
  5
271
330
1F
100
AcDbEntity
  8
0
100
AcDbLine
 10
16.19115242384383
 20
16.05286330271342
 30
0.0
 11
15.88636485361175
 21
16.33279955504957
 31
0.0
  0
LINE
  5
272
330
1F
100
AcDbEntity
  8
0
100
AcDbLine
 10
15.88636485361175
 20
16.33279955504957
 30
0.0
 11
15.57673814275059
 21
16.60737389518586
 31
0.0
  0
LINE
  5
273
330
1F
100
AcDbEntity
  8
0
100
AcDbLine
 10
15.57673814275059
 20
16.60737389518586
 30
0.0
 11
15.26236660655589
 21
16.87650268511842
 31
0.0
  0
LINE
  5
274
330
1F
100
AcDbEntity
  8
0
100
AcDbLine
 10
15.26236660655589
 20
16.87650268511842
 30
0.0
 11
14.94334600564297
 21
17.14010394561076
 31
0.0
  0
LINE
  5
275
330
1F
100
AcDbEntity
  8
0
100
AcDbLine
 10
14.94334600564297
 20
17.14010394561076
 30
0.0
 11
14.61977351677729
 21
17.39809738116532
 31
0.0
  0
LINE
  5
276
330
1F
100
AcDbEntity
  8
0
100
AcDbLine
 10
14.61977351677729
 20
17.39809738116532
 30
0.0
 11
14.29174770327347
 21
17.65040440448243
 31
0.0
  0
LINE
  5
277
330
1F
100
AcDbEntity
  8
0
100
AcDbLine
 10
14.29174770327347
 20
17.65040440448243
 30
0.0
 11
13.95936848497197
 21
17.89694816039863
 31
0.0
  0
LINE
  5
278
330
1F
100
AcDbEntity
  8
0
100
AcDbLine
 10
13.95936848497197
 20
17.89694816039863
 30
0.0
 11
13.6227371078025
 21
18.13765354929753
 31
0.0
  0
LINE
  5
279
330
1F
100
AcDbEntity
  8
0
100
AcDbLine
 10
13.6227371078025
 20
18.13765354929753
 30
0.0
 11
13.28195611294358
 21
18.37244724998591
 31
0.0
  0
LINE
  5
27A
330
1F
100
AcDbEntity
  8
0
100
AcDbLine
 10
13.28195611294358
 20
18.37244724998591
 30
0.0
 11
12.93712930558746
 21
18.60125774202805
 31
0.0
  0
LINE
  5
27B
330
1F
100
AcDbEntity
  8
0
100
AcDbLine
 10
12.93712930558746
 20
18.60125774202805
 30
0.0
 11
12.58836172332007
 21
18.82401532753155
 31
0.0
  0
LINE
  5
27C
330
1F
100
AcDbEntity
  8
0
100
AcDbLine
 10
12.58836172332007
 20
18.82401532753155
 30
0.0
 11
12.23575960412556
 21
19.04065215237792
 31
0.0
  0
LINE
  5
27D
330
1F
100
AcDbEntity
  8
0
100
AcDbLine
 10
12.23575960412556
 20
19.04065215237792
 30
0.0
 11
11.87943035402517
 21
19.25110222689175
 31
0.0
  0
LINE
  5
27E
330
1F
100
AcDbEntity
  8
0
100
AcDbLine
 10
11.87943035402517
 20
19.25110222689175
 30
0.0
 11
11.51948251436031
 21
19.45530144594165
 31
0.0
  0
LINE
  5
27F
330
1F
100
AcDbEntity
  8
0
100
AcDbLine
 10
11.51948251436031
 20
19.45530144594165
 30
0.0
 11
11.15602572872985
 21
19.65318760846737
 31
0.0
  0
LINE
  5
280
330
1F
100
AcDbEntity
  8
0
100
AcDbLine
 10
11.15602572872985
 20
19.65318760846737
 30
0.0
 11
10.78917070959157
 21
19.84470043642683
 31
0.0
  0
LINE
  5
281
330
1F
100
AcDbEntity
  8
0
100
AcDbLine
 10
10.78917070959157
 20
19.84470043642683
 30
0.0
 11
10.4190292045381
 21
20.02978159315744
 31
0.0
  0
LINE
  5
282
330
1F
100
AcDbEntity
  8
0
100
AcDbLine
 10
10.4190292045381
 20
20.02978159315744
 30
0.0
 11
10.04571396225753
 21
20.20837470114591
 31
0.0
  0
LINE
  5
283
330
1F
100
AcDbEntity
  8
0
100
AcDbLine
 10
10.04571396225753
 20
20.20837470114591
 30
0.0
 11
9.669338698189046
 21
20.38042535920149
 31
0.0
  0
LINE
  5
284
330
1F
100
AcDbEntity
  8
0
100
AcDbLine
 10
9.669338698189046
 20
20.38042535920149
 30
0.0
 11
9.290018059884098
 21
20.54588115902703
 31
0.0
  0
LINE
  5
285
330
1F
100
AcDbEntity
  8
0
100
AcDbLine
 10
9.290018059884098
 20
20.54588115902703
 30
0.0
 11
8.907867592083681
 21
20.7046917011831
 31
0.0
  0
LINE
  5
286
330
1F
100
AcDbEntity
  8
0
100
AcDbLine
 10
8.907867592083681
 20
20.7046917011831
 30
0.0
 11
8.523003701522272
 21
20.85680861044015
 31
0.0
  0
LINE
  5
287
330
1F
100
AcDbEntity
  8
0
100
AcDbLine
 10
8.523003701522272
 20
20.85680861044015
 30
0.0
 11
8.135543621469184
 21
21.002185550514
 31
0.0
  0
LINE
  5
288
330
1F
100
AcDbEntity
  8
0
100
AcDbLine
 10
8.135543621469184
 20
21.002185550514
 30
0.0
 11
7.745605376018216
 21
21.14077823818043
 31
0.0
  0
LINE
  5
289
330
1F
100
AcDbEntity
  8
0
100
AcDbLine
 10
7.745605376018216
 20
21.14077823818043
 30
0.0
 11
7.353307744136348
 21
21.27254445676418
 31
0.0
  0
LINE
  5
28A
330
1F
100
AcDbEntity
  8
0
100
AcDbLine
 10
7.353307744136348
 20
21.27254445676418
 30
0.0
 11
6.958770223482523
 21
21.39744406899863
 31
0.0
  0
LINE
  5
28B
330
1F
100
AcDbEntity
  8
0
100
AcDbLine
 10
6.958770223482523
 20
21.39744406899863
 30
0.0
 11
6.562112994007508
 21
21.51543902925197
 31
0.0
  0
LINE
  5
28C
330
1F
100
AcDbEntity
  8
0
100
AcDbLine
 10
6.562112994007508
 20
21.51543902925197
 30
0.0
 11
6.163456881345901
 21
21.62649339511625
 31
0.0
  0
LINE
  5
28D
330
1F
100
AcDbEntity
  8
0
100
AcDbLine
 10
6.163456881345901
 20
21.62649339511625
 30
0.0
 11
5.762923320011486
 21
21.73057333835582
 31
0.0
  0
LINE
  5
28E
330
1F
100
AcDbEntity
  8
0
100
AcDbLine
 10
5.762923320011486
 20
21.73057333835582
 30
0.0
 11
5.360634316407103
 21
21.82764715521174
 31
0.0
  0
LINE
  5
28F
330
1F
100
AcDbEntity
  8
0
100
AcDbLine
 10
5.360634316407103
 20
21.82764715521174
 30
0.0
 11
4.956712411660313
 21
21.91768527605903
 31
0.0
  0
LINE
  5
290
330
1F
100
AcDbEntity
  8
0
100
AcDbLine
 10
4.956712411660313
 20
21.91768527605903
 30
0.0
 11
4.551280644296179
 21
22.00066027441381
 31
0.0
  0
LINE
  5
291
330
1F
100
AcDbEntity
  8
0
100
AcDbLine
 10
4.551280644296179
 20
22.00066027441381
 30
0.0
 11
4.144462512758549
 21
22.07654687528784
 31
0.0
  0
LINE
  5
292
330
1F
100
AcDbEntity
  8
0
100
AcDbLine
 10
4.144462512758549
 20
22.07654687528784
 30
0.0
 11
3.736381937791223
 21
22.14532196288733
 31
0.0
  0
LINE
  5
293
330
1F
100
AcDbEntity
  8
0
100
AcDbLine
 10
3.736381937791223
 20
22.14532196288733
 30
0.0
 11
3.327163224690499
 21
22.20696458765438
 31
0.0
  0
LINE
  5
294
330
1F
100
AcDbEntity
  8
0
100
AcDbLine
 10
3.327163224690499
 20
22.20696458765438
 30
0.0
 11
2.916931025440584
 21
22.26145597264831
 31
0.0
  0
LINE
  5
295
330
1F
100
AcDbEntity
  8
0
100
AcDbLine
 10
2.916931025440584
 20
22.26145597264831
 30
0.0
 11
2.505810300743366
 21
22.30877951926542
 31
0.0
  0
LINE
  5
296
330
1F
100
AcDbEntity
  8
0
100
AcDbLine
 10
2.505810300743366
 20
22.30877951926542
 30
0.0
 11
2.093926281954222
 21
22.34892081229494
 31
0.0
  0
LINE
  5
297
330
1F
100
AcDbEntity
  8
0
100
AcDbLine
 10
2.093926281954222
 20
22.34892081229494
 30
0.0
 11
1.681404432935266
 21
22.38186762431019
 31
0.0
  0
LINE
  5
298
330
1F
100
AcDbEntity
  8
0
100
AcDbLine
 10
1.681404432935266
 20
22.38186762431019
 30
0.0
 11
1.268370411837912
 21
22.40760991939304
 31
0.0
  0
LINE
  5
299
330
1F
100
AcDbEntity
  8
0
100
AcDbLine
 10
1.268370411837912
 20
22.40760991939304
 30
0.0
 11
1.068601856671629
 21
22.41656375643007
 31
0.0
  0
LINE
  5
29A
330
1F
100
AcDbEntity
  8
0
100
AcDbLine
 10
-1.213537645771072
 20
22.41048358289461
 30
0.0
 11
-1.62663017050768
 21
22.38569781385838
 31
0.0
  0
LINE
  5
29B
330
1F
100
AcDbEntity
  8
0
100
AcDbLine
 10
-1.62663017050768
 20
22.38569781385838
 30
0.0
 11
-2.039227207936832
 21
22.35370636117693
 31
0.0
  0
LINE
  5
29C
330
1F
100
AcDbEntity
  8
0
100
AcDbLine
 10
-2.039227207936832
 20
22.35370636117693
 30
0.0
 11
-2.451203077004009
 21
22.31451896975664
 31
0.0
  0
LINE
  5
29D
330
1F
100
AcDbEntity
  8
0
100
AcDbLine
 10
-2.451203077004009
 20
22.31451896975664
 30
0.0
 11
-2.862432285868596
 21
22.26814757645656
 31
0.0
  0
LINE
  5
29E
330
1F
100
AcDbEntity
  8
0
100
AcDbLine
 10
-2.862432285868596
 20
22.26814757645656
 30
0.0
 11
-3.2727895701299
 21
22.2146063064523
 31
0.0
  0
LINE
  5
29F
330
1F
100
AcDbEntity
  8
0
100
AcDbLine
 10
-3.2727895701299
 20
22.2146063064523
 30
0.0
 11
-3.682149930983914
 21
22.15391146893337
 31
0.0
  0
LINE
  5
2A0
330
1F
100
AcDbEntity
  8
0
100
AcDbLine
 10
-3.682149930983914
 20
22.15391146893337
 30
0.0
 11
-4.090388673299167
 21
22.08608155213523
 31
0.0
  0
LINE
  5
2A1
330
1F
100
AcDbEntity
  8
0
100
AcDbLine
 10
-4.090388673299167
 20
22.08608155213523
 30
0.0
 11
-4.49738144360005
 21
22.01113721770762
 31
0.0
  0
LINE
  5
2A2
330
1F
100
AcDbEntity
  8
0
100
AcDbLine
 10
-4.49738144360005
 20
22.01113721770762
 30
0.0
 11
-4.903004267946103
 21
21.92910129442084
 31
0.0
  0
LINE
  5
2A3
330
1F
100
AcDbEntity
  8
0
100
AcDbLine
 10
-4.903004267946103
 20
21.92910129442084
 30
0.0
 11
-5.307133589695666
 21
21.83999877121179
 31
0.0
  0
LINE
  5
2A4
330
1F
100
AcDbEntity
  8
0
100
AcDbLine
 10
-5.307133589695666
 20
21.83999877121179
 30
0.0
 11
-5.709646307142454
 21
21.7438567895722
 31
0.0
  0
LINE
  5
2A5
330
1F
100
AcDbEntity
  8
0
100
AcDbLine
 10
-5.709646307142454
 20
21.7438567895722
 30
0.0
 11
-6.110419811013498
 21
21.64070463528104
 31
0.0
  0
LINE
  5
2A6
330
1F
100
AcDbEntity
  8
0
100
AcDbLine
 10
-6.110419811013498
 20
21.64070463528104
 30
0.0
 11
-6.509332021817143
 21
21.53057372948375
 31
0.0
  0
LINE
  5
2A7
330
1F
100
AcDbEntity
  8
0
100
AcDbLine
 10
-6.509332021817143
 20
21.53057372948375
 30
0.0
 11
-6.906261427029629
 21
21.4134976191211
 31
0.0
  0
LINE
  5
2A8
330
1F
100
AcDbEntity
  8
0
100
AcDbLine
 10
-6.906261427029629
 20
21.4134976191211
 30
0.0
 11
-7.301087118108977
 21
21.28951196671046
 31
0.0
  0
LINE
  5
2A9
330
1F
100
AcDbEntity
  8
0
100
AcDbLine
 10
-7.301087118108977
 20
21.28951196671046
 30
0.0
 11
-7.693688827324936
 21
21.15865453948262
 31
0.0
  0
LINE
  5
2AA
330
1F
100
AcDbEntity
  8
0
100
AcDbLine
 10
-7.693688827324936
 20
21.15865453948262
 30
0.0
 11
-8.083946964393654
 21
21.02096519787755
 31
0.0
  0
LINE
  5
2AB
330
1F
100
AcDbEntity
  8
0
100
AcDbLine
 10
-8.083946964393654
 20
21.02096519787755
 30
0.0
 11
-8.471742652906071
 21
20.87648588340255
 31
0.0
  0
LINE
  5
2AC
330
1F
100
AcDbEntity
  8
0
100
AcDbLine
 10
-8.471742652906071
 20
20.87648588340255
 30
0.0
 11
-8.856957766538793
 21
20.7252606058564
 31
0.0
  0
LINE
  5
2AD
330
1F
100
AcDbEntity
  8
0
100
AcDbLine
 10
-8.856957766538793
 20
20.7252606058564
 30
0.0
 11
-9.239474965036552
 21
20.56733542992359
 31
0.0
  0
LINE
  5
2AE
330
1F
100
AcDbEntity
  8
0
100
AcDbLine
 10
-9.239474965036552
 20
20.56733542992359
 30
0.0
 11
-9.619177729955158
 21
20.40275846114257
 31
0.0
  0
LINE
  5
2AF
330
1F
100
AcDbEntity
  8
0
100
AcDbLine
 10
-9.619177729955158
 20
20.40275846114257
 30
0.0
 11
-9.995950400154152
 21
20.23157983125233
 31
0.0
  0
LINE
  5
2B0
330
1F
100
AcDbEntity
  8
0
100
AcDbLine
 10
-9.995950400154152
 20
20.23157983125233
 30
0.0
 11
-10.36967820702831
 21
20.05385168292176
 31
0.0
  0
LINE
  5
2B1
330
1F
100
AcDbEntity
  8
0
100
AcDbLine
 10
-10.36967820702831
 20
20.05385168292176
 30
0.0
 11
-10.74024730946728
 21
19.86962815386655
 31
0.0
  0
LINE
  5
2B2
330
1F
100
AcDbEntity
  8
0
100
AcDbLine
 10
-10.74024730946728
 20
19.86962815386655
 30
0.0
 11
-11.10754482853268
 21
19.67896536035825
 31
0.0
  0
LINE
  5
2B3
330
1F
100
AcDbEntity
  8
0
100
AcDbLine
 10
-11.10754482853268
 20
19.67896536035825
 30
0.0
 11
-11.47145888184211
 21
19.48192138013077
 31
0.0
  0
LINE
  5
2B4
330
1F
100
AcDbEntity
  8
0
100
AcDbLine
 10
-11.47145888184211
 20
19.48192138013077
 30
0.0
 11
-11.8318786176496
 21
19.27855623468928
 31
0.0
  0
LINE
  5
2B5
330
1F
100
AcDbEntity
  8
0
100
AcDbLine
 10
-11.8318786176496
 20
19.27855623468928
 30
0.0
 11
-12.18869424861218
 21
19.06893187102714
 31
0.0
  0
LINE
  5
2B6
330
1F
100
AcDbEntity
  8
0
100
AcDbLine
 10
-12.18869424861218
 20
19.06893187102714
 30
0.0
 11
-12.5417970852321
 21
18.85311214275618
 31
0.0
  0
LINE
  5
2B7
330
1F
100
AcDbEntity
  8
0
100
AcDbLine
 10
-12.5417970852321
 20
18.85311214275618
 30
0.0
 11
-12.89107956896474
 21
18.63116279065634
 31
0.0
  0
LINE
  5
2B8
330
1F
100
AcDbEntity
  8
0
100
AcDbLine
 10
-12.89107956896474
 20
18.63116279065634
 30
0.0
 11
-13.23643530498199
 21
18.40315142265034
 31
0.0
  0
LINE
  5
2B9
330
1F
100
AcDbEntity
  8
0
100
AcDbLine
 10
-13.23643530498199
 20
18.40315142265034
 30
0.0
 11
-13.57775909458111
 21
18.16914749320965
 31
0.0
  0
LINE
  5
2BA
330
1F
100
AcDbEntity
  8
0
100
AcDbLine
 10
-13.57775909458111
 20
18.16914749320965
 30
0.0
 11
-13.91494696722931
 21
17.92922228219805
 31
0.0
  0
LINE
  5
2BB
330
1F
100
AcDbEntity
  8
0
100
AcDbLine
 10
-13.91494696722931
 20
17.92922228219805
 30
0.0
 11
-14.24789621223417
 21
17.68344887315901
 31
0.0
  0
LINE
  5
2BC
330
1F
100
AcDbEntity
  8
0
100
AcDbLine
 10
-14.24789621223417
 20
17.68344887315901
 30
0.0
 11
-14.57650541003032
 21
17.43190213105379
 31
0.0
  0
LINE
  5
2BD
330
1F
100
AcDbEntity
  8
0
100
AcDbLine
 10
-14.57650541003032
 20
17.43190213105379
 30
0.0
 11
-14.9006744630728
 21
17.17465867945681
 31
0.0
  0
LINE
  5
2BE
330
1F
100
AcDbEntity
  8
0
100
AcDbLine
 10
-14.9006744630728
 20
17.17465867945681
 30
0.0
 11
-15.22030462632775
 21
16.91179687721541
 31
0.0
  0
LINE
  5
2BF
330
1F
100
AcDbEntity
  8
0
100
AcDbLine
 10
-15.22030462632775
 20
16.91179687721541
 30
0.0
 11
-15.53529853735112
 21
16.64339679458095
 31
0.0
  0
LINE
  5
2C0
330
1F
100
AcDbEntity
  8
0
100
AcDbLine
 10
-15.53529853735112
 20
16.64339679458095
 30
0.0
 11
-15.8455602459462
 21
16.36954018881865
 31
0.0
  0
LINE
  5
2C1
330
1F
100
AcDbEntity
  8
0
100
AcDbLine
 10
-15.8455602459462
 20
16.36954018881865
 30
0.0
 11
-16.15099524339097
 21
16.09031047930354
 31
0.0
  0
LINE
  5
2C2
330
1F
100
AcDbEntity
  8
0
100
AcDbLine
 10
-16.15099524339097
 20
16.09031047930354
 30
0.0
 11
-16.4515104912264
 21
15.80579272211009
 31
0.0
  0
LINE
  5
2C3
330
1F
100
AcDbEntity
  8
0
100
AcDbLine
 10
-16.4515104912264
 20
15.80579272211009
 30
0.0
 11
-16.74701444959685
 21
15.51607358410333
 31
0.0
  0
LINE
  5
2C4
330
1F
100
AcDbEntity
  8
0
100
AcDbLine
 10
-16.74701444959685
 20
15.51607358410333
 30
0.0
 11
-17.03741710513397
 21
15.22124131653926
 31
0.0
  0
LINE
  5
2C5
330
1F
100
AcDbEntity
  8
0
100
AcDbLine
 10
-17.03741710513397
 20
15.22124131653926
 30
0.0
 11
-17.32262999837571
 21
14.9213857281827
 31
0.0
  0
LINE
  5
2C6
330
1F
100
AcDbEntity
  8
0
100
AcDbLine
 10
-17.32262999837571
 20
14.9213857281827
 30
0.0
 11
-17.60256625071185
 21
14.61659815795062
 31
0.0
  0
LINE
  5
2C7
330
1F
100
AcDbEntity
  8
0
100
AcDbLine
 10
-17.60256625071185
 20
14.61659815795062
 30
0.0
 11
-17.87714059084814
 21
14.30697144708945
 31
0.0
  0
LINE
  5
2C8
330
1F
100
AcDbEntity
  8
0
100
AcDbLine
 10
-17.87714059084814
 20
14.30697144708945
 30
0.0
 11
-18.14626938078071
 21
13.99259991089476
 31
0.0
  0
LINE
  5
2C9
330
1F
100
AcDbEntity
  8
0
100
AcDbLine
 10
-18.14626938078071
 20
13.99259991089476
 30
0.0
 11
-18.40987064127304
 21
13.67357930998184
 31
0.0
  0
LINE
  5
2CA
330
1F
100
AcDbEntity
  8
0
100
AcDbLine
 10
-18.40987064127304
 20
13.67357930998184
 30
0.0
 11
-18.66786407682761
 21
13.35000682111615
 31
0.0
  0
LINE
  5
2CB
330
1F
100
AcDbEntity
  8
0
100
AcDbLine
 10
-18.66786407682761
 20
13.35000682111615
 30
0.0
 11
-18.92017110014471
 21
13.02198100761234
 31
0.0
  0
LINE
  5
2CC
330
1F
100
AcDbEntity
  8
0
100
AcDbLine
 10
-18.92017110014471
 20
13.02198100761234
 30
0.0
 11
-19.16671485606092
 21
12.68960178931083
 31
0.0
  0
LINE
  5
2CD
330
1F
100
AcDbEntity
  8
0
100
AcDbLine
 10
-19.16671485606092
 20
12.68960178931083
 30
0.0
 11
-19.40742024495981
 21
12.35297041214137
 31
0.0
  0
LINE
  5
2CE
330
1F
100
AcDbEntity
  8
0
100
AcDbLine
 10
-19.40742024495981
 20
12.35297041214137
 30
0.0
 11
-19.6422139456482
 21
12.01218941728244
 31
0.0
  0
LINE
  5
2CF
330
1F
100
AcDbEntity
  8
0
100
AcDbLine
 10
-19.6422139456482
 20
12.01218941728244
 30
0.0
 11
-19.87102443769033
 21
11.66736260992633
 31
0.0
  0
LINE
  5
2D0
330
1F
100
AcDbEntity
  8
0
100
AcDbLine
 10
-19.87102443769033
 20
11.66736260992633
 30
0.0
 11
-19.97866296560949
 21
11.49883488479259
 31
0.0
  0
LINE
  5
2D1
330
1F
100
AcDbEntity
  8
0
100
AcDbLine
 10
-21.11446713208911
 20
9.519404013930433
 30
0.0
 11
-21.29954828881972
 21
9.149262508876973
 31
0.0
  0
LINE
  5
2D2
330
1F
100
AcDbEntity
  8
0
100
AcDbLine
 10
-21.29954828881972
 20
9.149262508876973
 30
0.0
 11
-21.47814139680819
 21
8.775947266596393
 31
0.0
  0
LINE
  5
2D3
330
1F
100
AcDbEntity
  8
0
100
AcDbLine
 10
-21.47814139680819
 20
8.775947266596393
 30
0.0
 11
-21.65019205486376
 21
8.39957200252791
 31
0.0
  0
LINE
  5
2D4
330
1F
100
AcDbEntity
  8
0
100
AcDbLine
 10
-21.65019205486376
 20
8.39957200252791
 30
0.0
 11
-21.81564785468931
 21
8.020251364222958
 31
0.0
  0
LINE
  5
2D5
330
1F
100
AcDbEntity
  8
0
100
AcDbLine
 10
-21.81564785468931
 20
8.020251364222958
 30
0.0
 11
-21.97445839684539
 21
7.638100896422548
 31
0.0
  0
LINE
  5
2D6
330
1F
100
AcDbEntity
  8
0
100
AcDbLine
 10
-21.97445839684539
 20
7.638100896422548
 30
0.0
 11
-22.12657530610243
 21
7.253237005861139
 31
0.0
  0
LINE
  5
2D7
330
1F
100
AcDbEntity
  8
0
100
AcDbLine
 10
-22.12657530610243
 20
7.253237005861139
 30
0.0
 11
-22.27195224617628
 21
6.865776925808044
 31
0.0
  0
LINE
  5
2D8
330
1F
100
AcDbEntity
  8
0
100
AcDbLine
 10
-22.27195224617628
 20
6.865776925808044
 30
0.0
 11
-22.41054493384271
 21
6.47583868035708
 31
0.0
  0
LINE
  5
2D9
330
1F
100
AcDbEntity
  8
0
100
AcDbLine
 10
-22.41054493384271
 20
6.47583868035708
 30
0.0
 11
-22.54231115242646
 21
6.08354104847521
 31
0.0
  0
LINE
  5
2DA
330
1F
100
AcDbEntity
  8
0
100
AcDbLine
 10
-22.54231115242646
 20
6.08354104847521
 30
0.0
 11
-22.6672107646609
 21
5.689003527821389
 31
0.0
  0
LINE
  5
2DB
330
1F
100
AcDbEntity
  8
0
100
AcDbLine
 10
-22.6672107646609
 20
5.689003527821389
 30
0.0
 11
-22.78520572491425
 21
5.292346298346366
 31
0.0
  0
LINE
  5
2DC
330
1F
100
AcDbEntity
  8
0
100
AcDbLine
 10
-22.78520572491425
 20
5.292346298346366
 30
0.0
 11
-22.89626009077853
 21
4.893690185684762
 31
0.0
  0
LINE
  5
2DD
330
1F
100
AcDbEntity
  8
0
100
AcDbLine
 10
-22.89626009077853
 20
4.893690185684762
 30
0.0
 11
-23.00034003401811
 21
4.493156624350344
 31
0.0
  0
LINE
  5
2DE
330
1F
100
AcDbEntity
  8
0
100
AcDbLine
 10
-23.00034003401811
 20
4.493156624350344
 30
0.0
 11
-23.09741385087403
 21
4.090867620745968
 31
0.0
  0
LINE
  5
2DF
330
1F
100
AcDbEntity
  8
0
100
AcDbLine
 10
-23.09741385087403
 20
4.090867620745968
 30
0.0
 11
-23.1874519717213
 21
3.68694571599918
 31
0.0
  0
LINE
  5
2E0
330
1F
100
AcDbEntity
  8
0
100
AcDbLine
 10
-23.1874519717213
 20
3.68694571599918
 30
0.0
 11
-23.27042697007609
 21
3.281513948635042
 31
0.0
  0
LINE
  5
2E1
330
1F
100
AcDbEntity
  8
0
100
AcDbLine
 10
-23.27042697007609
 20
3.281513948635042
 30
0.0
 11
-23.34631357095011
 21
2.874695817097416
 31
0.0
  0
LINE
  5
2E2
330
1F
100
AcDbEntity
  8
0
100
AcDbLine
 10
-23.34631357095011
 20
2.874695817097416
 30
0.0
 11
-23.41508865854961
 21
2.466615242130082
 31
0.0
  0
LINE
  5
2E3
330
1F
100
AcDbEntity
  8
0
100
AcDbLine
 10
-23.41508865854961
 20
2.466615242130082
 30
0.0
 11
-23.47673128331665
 21
2.057396529029366
 31
0.0
  0
LINE
  5
2E4
330
1F
100
AcDbEntity
  8
0
100
AcDbLine
 10
-23.47673128331665
 20
2.057396529029366
 30
0.0
 11
-23.53122266831059
 21
1.64716432977944
 31
0.0
  0
LINE
  5
2E5
330
1F
100
AcDbEntity
  8
0
100
AcDbLine
 10
-23.53122266831059
 20
1.64716432977944
 30
0.0
 11
-23.57854621492769
 21
1.236043605082233
 31
0.0
  0
LINE
  5
2E6
330
1F
100
AcDbEntity
  8
0
100
AcDbLine
 10
-23.57854621492769
 20
1.236043605082233
 30
0.0
 11
-23.61868750795722
 21
0.8241595862930776
 31
0.0
  0
LINE
  5
2E7
330
1F
100
AcDbEntity
  8
0
100
AcDbLine
 10
-23.61868750795722
 20
0.8241595862930776
 30
0.0
 11
-23.65163431997246
 21
0.4116377372741319
 31
0.0
  0
LINE
  5
2E8
330
1F
100
AcDbEntity
  8
0
100
AcDbLine
 10
-23.65163431997246
 20
0.4116377372741319
 30
0.0
 11
-23.67737661505532
 21
-0.0013962838232199
 31
0.0
  0
LINE
  5
2E9
330
1F
100
AcDbEntity
  8
0
100
AcDbLine
 10
-23.67737661505532
 20
-0.0013962838232199
 30
0.0
 11
-23.69590655185332
 21
-0.4148166628350066
 31
0.0
  0
LINE
  5
2EA
330
1F
100
AcDbEntity
  8
0
100
AcDbLine
 10
-23.69590655185332
 20
-0.4148166628350066
 30
0.0
 11
-23.70721848596823
 21
-0.8284974679088678
 31
0.0
  0
LINE
  5
2EB
330
1F
100
AcDbEntity
  8
0
100
AcDbLine
 10
-23.70721848596823
 20
-0.8284974679088678
 30
0.0
 11
-23.71130897167534
 21
-1.242312687864184
 31
0.0
  0
LINE
  5
2EC
330
1F
100
AcDbEntity
  8
0
100
AcDbLine
 10
-23.71130897167534
 20
-1.242312687864184
 30
0.0
 11
-23.70817676297307
 21
-1.656136270576219
 31
0.0
  0
LINE
  5
2ED
330
1F
100
AcDbEntity
  8
0
100
AcDbLine
 10
-23.70817676297307
 20
-1.656136270576219
 30
0.0
 11
-23.69782281396252
 21
-2.069842161372898
 31
0.0
  0
LINE
  5
2EE
330
1F
100
AcDbEntity
  8
0
100
AcDbLine
 10
-23.69782281396252
 20
-2.069842161372898
 30
0.0
 11
-23.68025027855689
 21
-2.483304341432208
 31
0.0
  0
LINE
  5
2EF
330
1F
100
AcDbEntity
  8
0
100
AcDbLine
 10
-23.68025027855689
 20
-2.483304341432208
 30
0.0
 11
-23.65546450952066
 21
-2.896396866168823
 31
0.0
  0
LINE
  5
2F0
330
1F
100
AcDbEntity
  8
0
100
AcDbLine
 10
-23.65546450952066
 20
-2.896396866168823
 30
0.0
 11
-23.62347305683921
 21
-3.308993903597969
 31
0.0
  0
LINE
  5
2F1
330
1F
100
AcDbEntity
  8
0
100
AcDbLine
 10
-23.62347305683921
 20
-3.308993903597969
 30
0.0
 11
-23.58428566541892
 21
-3.720969772665142
 31
0.0
  0
LINE
  5
2F2
330
1F
100
AcDbEntity
  8
0
100
AcDbLine
 10
-23.58428566541892
 20
-3.720969772665142
 30
0.0
 11
-23.53791427211884
 21
-4.132198981529732
 31
0.0
  0
LINE
  5
2F3
330
1F
100
AcDbEntity
  8
0
100
AcDbLine
 10
-23.53791427211884
 20
-4.132198981529732
 30
0.0
 11
-23.48437300211458
 21
-4.542556265791032
 31
0.0
  0
LINE
  5
2F4
330
1F
100
AcDbEntity
  8
0
100
AcDbLine
 10
-23.48437300211458
 20
-4.542556265791032
 30
0.0
 11
-23.42367816459565
 21
-4.951916626645057
 31
0.0
  0
LINE
  5
2F5
330
1F
100
AcDbEntity
  8
0
100
AcDbLine
 10
-23.42367816459565
 20
-4.951916626645057
 30
0.0
 11
-23.35584824779751
 21
-5.360155368960305
 31
0.0
  0
LINE
  5
2F6
330
1F
100
AcDbEntity
  8
0
100
AcDbLine
 10
-23.35584824779751
 20
-5.360155368960305
 30
0.0
 11
-23.2809039133699
 21
-5.767148139261195
 31
0.0
  0
LINE
  5
2F7
330
1F
100
AcDbEntity
  8
0
100
AcDbLine
 10
-23.2809039133699
 20
-5.767148139261195
 30
0.0
 11
-23.19886799008312
 21
-6.172770963607239
 31
0.0
  0
LINE
  5
2F8
330
1F
100
AcDbEntity
  8
0
100
AcDbLine
 10
-23.19886799008312
 20
-6.172770963607239
 30
0.0
 11
-23.10976546687406
 21
-6.576900285356809
 31
0.0
  0
LINE
  5
2F9
330
1F
100
AcDbEntity
  8
0
100
AcDbLine
 10
-23.10976546687406
 20
-6.576900285356809
 30
0.0
 11
-23.01362348523448
 21
-6.979413002803591
 31
0.0
  0
LINE
  5
2FA
330
1F
100
AcDbEntity
  8
0
100
AcDbLine
 10
-23.01362348523448
 20
-6.979413002803591
 30
0.0
 11
-22.91047133094331
 21
-7.380186506674629
 31
0.0
  0
LINE
  5
2FB
330
1F
100
AcDbEntity
  8
0
100
AcDbLine
 10
-22.91047133094331
 20
-7.380186506674629
 30
0.0
 11
-22.80034042514603
 21
-7.779098717478281
 31
0.0
  0
LINE
  5
2FC
330
1F
100
AcDbEntity
  8
0
100
AcDbLine
 10
-22.80034042514603
 20
-7.779098717478281
 30
0.0
 11
-22.68326431478338
 21
-8.17602812269076
 31
0.0
  0
LINE
  5
2FD
330
1F
100
AcDbEntity
  8
0
100
AcDbLine
 10
-22.68326431478338
 20
-8.17602812269076
 30
0.0
 11
-22.55927866237274
 21
-8.570853813770121
 31
0.0
  0
LINE
  5
2FE
330
1F
100
AcDbEntity
  8
0
100
AcDbLine
 10
-22.55927866237274
 20
-8.570853813770121
 30
0.0
 11
-22.4284212351449
 21
-8.963455522986074
 31
0.0
  0
LINE
  5
2FF
330
1F
100
AcDbEntity
  8
0
100
AcDbLine
 10
-22.4284212351449
 20
-8.963455522986074
 30
0.0
 11
-22.29073189353983
 21
-9.353713660054797
 31
0.0
  0
LINE
  5
300
330
1F
100
AcDbEntity
  8
0
100
AcDbLine
 10
-22.29073189353983
 20
-9.353713660054797
 30
0.0
 11
-22.14625257906483
 21
-9.741509348567206
 31
0.0
  0
LINE
  5
301
330
1F
100
AcDbEntity
  8
0
100
AcDbLine
 10
-22.14625257906483
 20
-9.741509348567206
 30
0.0
 11
-21.99502730151868
 21
-10.12672446219994
 31
0.0
  0
LINE
  5
302
330
1F
100
AcDbEntity
  8
0
100
AcDbLine
 10
-21.99502730151868
 20
-10.12672446219994
 30
0.0
 11
-21.83710212558587
 21
-10.50924166069769
 31
0.0
  0
LINE
  5
303
330
1F
100
AcDbEntity
  8
0
100
AcDbLine
 10
-21.83710212558587
 20
-10.50924166069769
 30
0.0
 11
-21.67252515680486
 21
-10.88894442561629
 31
0.0
  0
LINE
  5
304
330
1F
100
AcDbEntity
  8
0
100
AcDbLine
 10
-21.67252515680486
 20
-10.88894442561629
 30
0.0
 11
-21.50134652691461
 21
-11.26571709581529
 31
0.0
  0
LINE
  5
305
330
1F
100
AcDbEntity
  8
0
100
AcDbLine
 10
-21.50134652691461
 20
-11.26571709581529
 30
0.0
 11
-21.32361837858404
 21
-11.63944490268945
 31
0.0
  0
LINE
  5
306
330
1F
100
AcDbEntity
  8
0
100
AcDbLine
 10
-21.32361837858404
 20
-11.63944490268945
 30
0.0
 11
-21.13939484952882
 21
-12.01001400512843
 31
0.0
  0
LINE
  5
307
330
1F
100
AcDbEntity
  8
0
100
AcDbLine
 10
-21.13939484952882
 20
-12.01001400512843
 30
0.0
 11
-21.04726482228029
 21
-12.18749556729982
 31
0.0
  0
LINE
  5
308
330
1F
100
AcDbEntity
  8
0
100
AcDbLine
 10
-19.90092948631862
 20
-14.16084626462588
 30
0.0
 11
-19.67291811831261
 21
-14.50620200064312
 31
0.0
  0
LINE
  5
309
330
1F
100
AcDbEntity
  8
0
100
AcDbLine
 10
-19.67291811831261
 20
-14.50620200064312
 30
0.0
 11
-19.43891418887193
 21
-14.84752579024224
 31
0.0
  0
LINE
  5
30A
330
1F
100
AcDbEntity
  8
0
100
AcDbLine
 10
-19.43891418887193
 20
-14.84752579024224
 30
0.0
 11
-19.19898897786032
 21
-15.18471366289045
 31
0.0
  0
LINE
  5
30B
330
1F
100
AcDbEntity
  8
0
100
AcDbLine
 10
-19.19898897786032
 20
-15.18471366289045
 30
0.0
 11
-18.95321556882129
 21
-15.51766290789531
 31
0.0
  0
LINE
  5
30C
330
1F
100
AcDbEntity
  8
0
100
AcDbLine
 10
-18.95321556882129
 20
-15.51766290789531
 30
0.0
 11
-18.70166882671606
 21
-15.84627210569146
 31
0.0
  0
LINE
  5
30D
330
1F
100
AcDbEntity
  8
0
100
AcDbLine
 10
-18.70166882671606
 20
-15.84627210569146
 30
0.0
 11
-18.44442537511909
 21
-16.17044115873394
 31
0.0
  0
LINE
  5
30E
330
1F
100
AcDbEntity
  8
0
100
AcDbLine
 10
-18.44442537511909
 20
-16.17044115873394
 30
0.0
 11
-18.18156357287768
 21
-16.49007132198889
 31
0.0
  0
LINE
  5
30F
330
1F
100
AcDbEntity
  8
0
100
AcDbLine
 10
-18.18156357287768
 20
-16.49007132198889
 30
0.0
 11
-17.91316349024322
 21
-16.80506523301226
 31
0.0
  0
LINE
  5
310
330
1F
100
AcDbEntity
  8
0
100
AcDbLine
 10
-17.91316349024322
 20
-16.80506523301226
 30
0.0
 11
-17.63930688448093
 21
-17.11532694160734
 31
0.0
  0
LINE
  5
311
330
1F
100
AcDbEntity
  8
0
100
AcDbLine
 10
-17.63930688448093
 20
-17.11532694160734
 30
0.0
 11
-17.36007717496582
 21
-17.42076193905211
 31
0.0
  0
LINE
  5
312
330
1F
100
AcDbEntity
  8
0
100
AcDbLine
 10
-17.36007717496582
 20
-17.42076193905211
 30
0.0
 11
-17.07555941777237
 21
-17.72127718688754
 31
0.0
  0
LINE
  5
313
330
1F
100
AcDbEntity
  8
0
100
AcDbLine
 10
-17.07555941777237
 20
-17.72127718688754
 30
0.0
 11
-16.7858402797656
 21
-18.01678114525799
 31
0.0
  0
LINE
  5
314
330
1F
100
AcDbEntity
  8
0
100
AcDbLine
 10
-16.7858402797656
 20
-18.01678114525799
 30
0.0
 11
-16.49100801220154
 21
-18.30718380079511
 31
0.0
  0
LINE
  5
315
330
1F
100
AcDbEntity
  8
0
100
AcDbLine
 10
-16.49100801220154
 20
-18.30718380079511
 30
0.0
 11
-16.19115242384497
 21
-18.59239669403685
 31
0.0
  0
LINE
  5
316
330
1F
100
AcDbEntity
  8
0
100
AcDbLine
 10
-16.19115242384497
 20
-18.59239669403685
 30
0.0
 11
-15.8863648536129
 21
-18.87233294637299
 31
0.0
  0
LINE
  5
317
330
1F
100
AcDbEntity
  8
0
100
AcDbLine
 10
-15.8863648536129
 20
-18.87233294637299
 30
0.0
 11
-15.57673814275173
 21
-19.14690728650929
 31
0.0
  0
LINE
  5
318
330
1F
100
AcDbEntity
  8
0
100
AcDbLine
 10
-15.57673814275173
 20
-19.14690728650929
 30
0.0
 11
-15.26236660655704
 21
-19.41603607644185
 31
0.0
  0
LINE
  5
319
330
1F
100
AcDbEntity
  8
0
100
AcDbLine
 10
-15.26236660655704
 20
-19.41603607644185
 30
0.0
 11
-14.94334600564411
 21
-19.67963733693419
 31
0.0
  0
LINE
  5
31A
330
1F
100
AcDbEntity
  8
0
100
AcDbLine
 10
-14.94334600564411
 20
-19.67963733693419
 30
0.0
 11
-14.61977351677843
 21
-19.93763077248875
 31
0.0
  0
LINE
  5
31B
330
1F
100
AcDbEntity
  8
0
100
AcDbLine
 10
-14.61977351677843
 20
-19.93763077248875
 30
0.0
 11
-14.29174770327462
 21
-20.18993779580586
 31
0.0
  0
LINE
  5
31C
330
1F
100
AcDbEntity
  8
0
100
AcDbLine
 10
-14.29174770327462
 20
-20.18993779580586
 30
0.0
 11
-13.95936848497311
 21
-20.43648155172205
 31
0.0
  0
LINE
  5
31D
330
1F
100
AcDbEntity
  8
0
100
AcDbLine
 10
-13.95936848497311
 20
-20.43648155172205
 30
0.0
 11
-13.62273710780365
 21
-20.67718694062095
 31
0.0
  0
LINE
  5
31E
330
1F
100
AcDbEntity
  8
0
100
AcDbLine
 10
-13.62273710780365
 20
-20.67718694062095
 30
0.0
 11
-13.28195611294472
 21
-20.91198064130934
 31
0.0
  0
LINE
  5
31F
330
1F
100
AcDbEntity
  8
0
100
AcDbLine
 10
-13.28195611294472
 20
-20.91198064130934
 30
0.0
 11
-12.9371293055886
 21
-21.14079113335148
 31
0.0
  0
LINE
  5
320
330
1F
100
AcDbEntity
  8
0
100
AcDbLine
 10
-12.9371293055886
 20
-21.14079113335148
 30
0.0
 11
-12.58836172332121
 21
-21.36354871885497
 31
0.0
  0
LINE
  5
321
330
1F
100
AcDbEntity
  8
0
100
AcDbLine
 10
-12.58836172332121
 20
-21.36354871885497
 30
0.0
 11
-12.2357596041267
 21
-21.58018554370135
 31
0.0
  0
LINE
  5
322
330
1F
100
AcDbEntity
  8
0
100
AcDbLine
 10
-12.2357596041267
 20
-21.58018554370135
 30
0.0
 11
-11.87943035402631
 21
-21.79063561821518
 31
0.0
  0
LINE
  5
323
330
1F
100
AcDbEntity
  8
0
100
AcDbLine
 10
-11.87943035402631
 20
-21.79063561821518
 30
0.0
 11
-11.51948251436145
 21
-21.99483483726507
 31
0.0
  0
LINE
  5
324
330
1F
100
AcDbEntity
  8
0
100
AcDbLine
 10
-11.51948251436145
 20
-21.99483483726507
 30
0.0
 11
-11.156025728731
 21
-22.19272099979079
 31
0.0
  0
LINE
  5
325
330
1F
100
AcDbEntity
  8
0
100
AcDbLine
 10
-11.156025728731
 20
-22.19272099979079
 30
0.0
 11
-10.78917070959271
 21
-22.38423382775026
 31
0.0
  0
LINE
  5
326
330
1F
100
AcDbEntity
  8
0
100
AcDbLine
 10
-10.78917070959271
 20
-22.38423382775026
 30
0.0
 11
-10.41902920453925
 21
-22.56931498448086
 31
0.0
  0
LINE
  5
327
330
1F
100
AcDbEntity
  8
0
100
AcDbLine
 10
-10.41902920453925
 20
-22.56931498448086
 30
0.0
 11
-10.04571396225867
 21
-22.74790809246933
 31
0.0
  0
LINE
  5
328
330
1F
100
AcDbEntity
  8
0
100
AcDbLine
 10
-10.04571396225867
 20
-22.74790809246933
 30
0.0
 11
-9.66933869819019
 21
-22.91995875052491
 31
0.0
  0
LINE
  5
329
330
1F
100
AcDbEntity
  8
0
100
AcDbLine
 10
-9.66933869819019
 20
-22.91995875052491
 30
0.0
 11
-9.290018059885238
 21
-23.08541455035045
 31
0.0
  0
LINE
  5
32A
330
1F
100
AcDbEntity
  8
0
100
AcDbLine
 10
-9.290018059885238
 20
-23.08541455035045
 30
0.0
 11
-8.907867592084827
 21
-23.24422509250653
 31
0.0
  0
LINE
  5
32B
330
1F
100
AcDbEntity
  8
0
100
AcDbLine
 10
-8.907867592084827
 20
-23.24422509250653
 30
0.0
 11
-8.52300370152341
 21
-23.39634200176357
 31
0.0
  0
LINE
  5
32C
330
1F
100
AcDbEntity
  8
0
100
AcDbLine
 10
-8.52300370152341
 20
-23.39634200176357
 30
0.0
 11
-8.135543621470326
 21
-23.54171894183743
 31
0.0
  0
LINE
  5
32D
330
1F
100
AcDbEntity
  8
0
100
AcDbLine
 10
-8.135543621470326
 20
-23.54171894183743
 30
0.0
 11
-7.745605376019363
 21
-23.68031162950385
 31
0.0
  0
LINE
  5
32E
330
1F
100
AcDbEntity
  8
0
100
AcDbLine
 10
-7.745605376019363
 20
-23.68031162950385
 30
0.0
 11
-7.35330774413749
 21
-23.8120778480876
 31
0.0
  0
LINE
  5
32F
330
1F
100
AcDbEntity
  8
0
100
AcDbLine
 10
-7.35330774413749
 20
-23.8120778480876
 30
0.0
 11
-6.958770223483669
 21
-23.93697746032205
 31
0.0
  0
LINE
  5
330
330
1F
100
AcDbEntity
  8
0
100
AcDbLine
 10
-6.958770223483669
 20
-23.93697746032205
 30
0.0
 11
-6.562112994008646
 21
-24.05497242057539
 31
0.0
  0
LINE
  5
331
330
1F
100
AcDbEntity
  8
0
100
AcDbLine
 10
-6.562112994008646
 20
-24.05497242057539
 30
0.0
 11
-6.163456881347046
 21
-24.16602678643967
 31
0.0
  0
LINE
  5
332
330
1F
100
AcDbEntity
  8
0
100
AcDbLine
 10
-6.163456881347046
 20
-24.16602678643967
 30
0.0
 11
-5.762923320012628
 21
-24.27010672967925
 31
0.0
  0
LINE
  5
333
330
1F
100
AcDbEntity
  8
0
100
AcDbLine
 10
-5.762923320012628
 20
-24.27010672967925
 30
0.0
 11
-5.360634316408248
 21
-24.36718054653517
 31
0.0
  0
LINE
  5
334
330
1F
100
AcDbEntity
  8
0
100
AcDbLine
 10
-5.360634316408248
 20
-24.36718054653517
 30
0.0
 11
-4.95671241166145
 21
-24.45721866738245
 31
0.0
  0
LINE
  5
335
330
1F
100
AcDbEntity
  8
0
100
AcDbLine
 10
-4.95671241166145
 20
-24.45721866738245
 30
0.0
 11
-4.551280644297321
 21
-24.54019366573724
 31
0.0
  0
LINE
  5
336
330
1F
100
AcDbEntity
  8
0
100
AcDbLine
 10
-4.551280644297321
 20
-24.54019366573724
 30
0.0
 11
-4.144462512759696
 21
-24.61608026661126
 31
0.0
  0
LINE
  5
337
330
1F
100
AcDbEntity
  8
0
100
AcDbLine
 10
-4.144462512759696
 20
-24.61608026661126
 30
0.0
 11
-3.736381937792375
 21
-24.68485535421075
 31
0.0
  0
LINE
  5
338
330
1F
100
AcDbEntity
  8
0
100
AcDbLine
 10
-3.736381937792375
 20
-24.68485535421075
 30
0.0
 11
-3.327163224691635
 21
-24.7464979789778
 31
0.0
  0
LINE
  5
339
330
1F
100
AcDbEntity
  8
0
100
AcDbLine
 10
-3.327163224691635
 20
-24.7464979789778
 30
0.0
 11
-2.916931025441723
 21
-24.80098936397173
 31
0.0
  0
LINE
  5
33A
330
1F
100
AcDbEntity
  8
0
100
AcDbLine
 10
-2.916931025441723
 20
-24.80098936397173
 30
0.0
 11
-2.505810300744513
 21
-24.84831291058884
 31
0.0
  0
LINE
  5
33B
330
1F
100
AcDbEntity
  8
0
100
AcDbLine
 10
-2.505810300744513
 20
-24.84831291058884
 30
0.0
 11
-2.093926281955369
 21
-24.88845420361837
 31
0.0
  0
LINE
  5
33C
330
1F
100
AcDbEntity
  8
0
100
AcDbLine
 10
-2.093926281955369
 20
-24.88845420361837
 30
0.0
 11
-1.681404432936401
 21
-24.92140101563361
 31
0.0
  0
LINE
  5
33D
330
1F
100
AcDbEntity
  8
0
100
AcDbLine
 10
-1.681404432936401
 20
-24.92140101563361
 30
0.0
 11
-1.268370411839051
 21
-24.94714331071646
 31
0.0
  0
LINE
  5
33E
330
1F
100
AcDbEntity
  8
0
100
AcDbLine
 10
-1.268370411839051
 20
-24.94714331071646
 30
0.0
 11
-1.068601856671632
 21
-24.95609714775355
 31
0.0
  0
LINE
  5
33F
330
1F
100
AcDbEntity
  8
0
100
AcDbLine
 10
1.213537645769927
 20
-24.95001697421803
 30
0.0
 11
1.626630170506531
 21
-24.92523120518181
 31
0.0
  0
LINE
  5
340
330
1F
100
AcDbEntity
  8
0
100
AcDbLine
 10
1.626630170506531
 20
-24.92523120518181
 30
0.0
 11
2.039227207935697
 21
-24.89323975250035
 31
0.0
  0
LINE
  5
341
330
1F
100
AcDbEntity
  8
0
100
AcDbLine
 10
2.039227207935697
 20
-24.89323975250035
 30
0.0
 11
2.45120307700287
 21
-24.85405236108006
 31
0.0
  0
LINE
  5
342
330
1F
100
AcDbEntity
  8
0
100
AcDbLine
 10
2.45120307700287
 20
-24.85405236108006
 30
0.0
 11
2.86243228586745
 21
-24.80768096777998
 31
0.0
  0
LINE
  5
343
330
1F
100
AcDbEntity
  8
0
100
AcDbLine
 10
2.86243228586745
 20
-24.80768096777998
 30
0.0
 11
3.27278957012875
 21
-24.75413969777573
 31
0.0
  0
LINE
  5
344
330
1F
100
AcDbEntity
  8
0
100
AcDbLine
 10
3.27278957012875
 20
-24.75413969777573
 30
0.0
 11
3.682149930982764
 21
-24.69344486025679
 31
0.0
  0
LINE
  5
345
330
1F
100
AcDbEntity
  8
0
100
AcDbLine
 10
3.682149930982764
 20
-24.69344486025679
 30
0.0
 11
4.090388673298032
 21
-24.62561494345865
 31
0.0
  0
LINE
  5
346
330
1F
100
AcDbEntity
  8
0
100
AcDbLine
 10
4.090388673298032
 20
-24.62561494345865
 30
0.0
 11
4.497381443598911
 21
-24.55067060903105
 31
0.0
  0
LINE
  5
347
330
1F
100
AcDbEntity
  8
0
100
AcDbLine
 10
4.497381443598911
 20
-24.55067060903105
 30
0.0
 11
4.903004267944957
 21
-24.46863468574427
 31
0.0
  0
LINE
  5
348
330
1F
100
AcDbEntity
  8
0
100
AcDbLine
 10
4.903004267944957
 20
-24.46863468574427
 30
0.0
 11
5.307133589694516
 21
-24.37953216253521
 31
0.0
  0
LINE
  5
349
330
1F
100
AcDbEntity
  8
0
100
AcDbLine
 10
5.307133589694516
 20
-24.37953216253521
 30
0.0
 11
5.70964630714132
 21
-24.28339018089562
 31
0.0
  0
LINE
  5
34A
330
1F
100
AcDbEntity
  8
0
100
AcDbLine
 10
5.70964630714132
 20
-24.28339018089562
 30
0.0
 11
6.110419811012358
 21
-24.18023802660446
 31
0.0
  0
LINE
  5
34B
330
1F
100
AcDbEntity
  8
0
100
AcDbLine
 10
6.110419811012358
 20
-24.18023802660446
 30
0.0
 11
6.509332021815998
 21
-24.07010712080717
 31
0.0
  0
LINE
  5
34C
330
1F
100
AcDbEntity
  8
0
100
AcDbLine
 10
6.509332021815998
 20
-24.07010712080717
 30
0.0
 11
6.906261427028477
 21
-23.95303101044453
 31
0.0
  0
LINE
  5
34D
330
1F
100
AcDbEntity
  8
0
100
AcDbLine
 10
6.906261427028477
 20
-23.95303101044453
 30
0.0
 11
7.301087118107827
 21
-23.82904535803388
 31
0.0
  0
LINE
  5
34E
330
1F
100
AcDbEntity
  8
0
100
AcDbLine
 10
7.301087118107827
 20
-23.82904535803388
 30
0.0
 11
7.6936888273238
 21
-23.69818793080604
 31
0.0
  0
LINE
  5
34F
330
1F
100
AcDbEntity
  8
0
100
AcDbLine
 10
7.6936888273238
 20
-23.69818793080604
 30
0.0
 11
8.083946964392515
 21
-23.56049858920098
 31
0.0
  0
LINE
  5
350
330
1F
100
AcDbEntity
  8
0
100
AcDbLine
 10
8.083946964392515
 20
-23.56049858920098
 30
0.0
 11
8.471742652904924
 21
-23.41601927472598
 31
0.0
  0
LINE
  5
351
330
1F
100
AcDbEntity
  8
0
100
AcDbLine
 10
8.471742652904924
 20
-23.41601927472598
 30
0.0
 11
8.856957766537642
 21
-23.26479399717983
 31
0.0
  0
LINE
  5
352
330
1F
100
AcDbEntity
  8
0
100
AcDbLine
 10
8.856957766537642
 20
-23.26479399717983
 30
0.0
 11
9.239474965035416
 21
-23.10686882124701
 31
0.0
  0
LINE
  5
353
330
1F
100
AcDbEntity
  8
0
100
AcDbLine
 10
9.239474965035416
 20
-23.10686882124701
 30
0.0
 11
9.619177729954018
 21
-22.942291852466
 31
0.0
  0
LINE
  5
354
330
1F
100
AcDbEntity
  8
0
100
AcDbLine
 10
9.619177729954018
 20
-22.942291852466
 30
0.0
 11
9.995950400153008
 21
-22.77111322257575
 31
0.0
  0
LINE
  5
355
330
1F
100
AcDbEntity
  8
0
100
AcDbLine
 10
9.995950400153008
 20
-22.77111322257575
 30
0.0
 11
10.36967820702717
 21
-22.59338507424518
 31
0.0
  0
LINE
  5
356
330
1F
100
AcDbEntity
  8
0
100
AcDbLine
 10
10.36967820702717
 20
-22.59338507424518
 30
0.0
 11
10.74024730946614
 21
-22.40916154518998
 31
0.0
  0
LINE
  5
357
330
1F
100
AcDbEntity
  8
0
100
AcDbLine
 10
10.74024730946614
 20
-22.40916154518998
 30
0.0
 11
11.10754482853154
 21
-22.21849875168167
 31
0.0
  0
LINE
  5
358
330
1F
100
AcDbEntity
  8
0
100
AcDbLine
 10
11.10754482853154
 20
-22.21849875168167
 30
0.0
 11
11.47145888184096
 21
-22.0214547714542
 31
0.0
  0
LINE
  5
359
330
1F
100
AcDbEntity
  8
0
100
AcDbLine
 10
11.47145888184096
 20
-22.0214547714542
 30
0.0
 11
11.83187861764846
 21
-21.81808962601271
 31
0.0
  0
LINE
  5
35A
330
1F
100
AcDbEntity
  8
0
100
AcDbLine
 10
11.83187861764846
 20
-21.81808962601271
 30
0.0
 11
12.18869424861103
 21
-21.60846526235056
 31
0.0
  0
LINE
  5
35B
330
1F
100
AcDbEntity
  8
0
100
AcDbLine
 10
12.18869424861103
 20
-21.60846526235056
 30
0.0
 11
12.54179708523097
 21
-21.3926455340796
 31
0.0
  0
LINE
  5
35C
330
1F
100
AcDbEntity
  8
0
100
AcDbLine
 10
12.54179708523097
 20
-21.3926455340796
 30
0.0
 11
12.8910795689636
 21
-21.17069618197976
 31
0.0
  0
LINE
  5
35D
330
1F
100
AcDbEntity
  8
0
100
AcDbLine
 10
12.8910795689636
 20
-21.17069618197976
 30
0.0
 11
13.23643530498084
 21
-20.94268481397376
 31
0.0
  0
LINE
  5
35E
330
1F
100
AcDbEntity
  8
0
100
AcDbLine
 10
13.23643530498084
 20
-20.94268481397376
 30
0.0
 11
13.57775909457995
 21
-20.70868088453308
 31
0.0
  0
LINE
  5
35F
330
1F
100
AcDbEntity
  8
0
100
AcDbLine
 10
13.57775909457995
 20
-20.70868088453308
 30
0.0
 11
13.91494696722816
 21
-20.46875567352148
 31
0.0
  0
LINE
  5
360
330
1F
100
AcDbEntity
  8
0
100
AcDbLine
 10
13.91494696722816
 20
-20.46875567352148
 30
0.0
 11
14.24789621223304
 21
-20.22298226448243
 31
0.0
  0
LINE
  5
361
330
1F
100
AcDbEntity
  8
0
100
AcDbLine
 10
14.24789621223304
 20
-20.22298226448243
 30
0.0
 11
14.57650541002918
 21
-19.97143552237721
 31
0.0
  0
LINE
  5
362
330
1F
100
AcDbEntity
  8
0
100
AcDbLine
 10
14.57650541002918
 20
-19.97143552237721
 30
0.0
 11
14.90067446307166
 21
-19.71419207078024
 31
0.0
  0
LINE
  5
363
330
1F
100
AcDbEntity
  8
0
100
AcDbLine
 10
14.90067446307166
 20
-19.71419207078024
 30
0.0
 11
15.2203046263266
 21
-19.45133026853884
 31
0.0
  0
LINE
  5
364
330
1F
100
AcDbEntity
  8
0
100
AcDbLine
 10
15.2203046263266
 20
-19.45133026853884
 30
0.0
 11
15.53529853734999
 21
-19.18293018590437
 31
0.0
  0
LINE
  5
365
330
1F
100
AcDbEntity
  8
0
100
AcDbLine
 10
15.53529853734999
 20
-19.18293018590437
 30
0.0
 11
15.84556024594506
 21
-18.90907358014207
 31
0.0
  0
LINE
  5
366
330
1F
100
AcDbEntity
  8
0
100
AcDbLine
 10
15.84556024594506
 20
-18.90907358014207
 30
0.0
 11
16.15099524338983
 21
-18.62984387062697
 31
0.0
  0
LINE
  5
367
330
1F
100
AcDbEntity
  8
0
100
AcDbLine
 10
16.15099524338983
 20
-18.62984387062697
 30
0.0
 11
16.45151049122526
 21
-18.34532611343352
 31
0.0
  0
LINE
  5
368
330
1F
100
AcDbEntity
  8
0
100
AcDbLine
 10
16.45151049122526
 20
-18.34532611343352
 30
0.0
 11
16.7470144495957
 21
-18.05560697542676
 31
0.0
  0
LINE
  5
369
330
1F
100
AcDbEntity
  8
0
100
AcDbLine
 10
16.7470144495957
 20
-18.05560697542676
 30
0.0
 11
17.03741710513283
 21
-17.76077470786268
 31
0.0
  0
LINE
  5
36A
330
1F
100
AcDbEntity
  8
0
100
AcDbLine
 10
17.03741710513283
 20
-17.76077470786268
 30
0.0
 11
17.32262999837457
 21
-17.46091911950612
 31
0.0
  0
LINE
  5
36B
330
1F
100
AcDbEntity
  8
0
100
AcDbLine
 10
17.32262999837457
 20
-17.46091911950612
 30
0.0
 11
17.60256625071071
 21
-17.15613154927404
 31
0.0
  0
LINE
  5
36C
330
1F
100
AcDbEntity
  8
0
100
AcDbLine
 10
17.60256625071071
 20
-17.15613154927404
 30
0.0
 11
17.877140590847
 21
-16.84650483841289
 31
0.0
  0
LINE
  5
36D
330
1F
100
AcDbEntity
  8
0
100
AcDbLine
 10
17.877140590847
 20
-16.84650483841289
 30
0.0
 11
18.14626938077957
 21
-16.53213330221818
 31
0.0
  0
LINE
  5
36E
330
1F
100
AcDbEntity
  8
0
100
AcDbLine
 10
18.14626938077957
 20
-16.53213330221818
 30
0.0
 11
18.4098706412719
 21
-16.21311270130526
 31
0.0
  0
LINE
  5
36F
330
1F
100
AcDbEntity
  8
0
100
AcDbLine
 10
18.4098706412719
 20
-16.21311270130526
 30
0.0
 11
18.66786407682646
 21
-15.88954021243958
 31
0.0
  0
LINE
  5
370
330
1F
100
AcDbEntity
  8
0
100
AcDbLine
 10
18.66786407682646
 20
-15.88954021243958
 30
0.0
 11
18.92017110014358
 21
-15.56151439893577
 31
0.0
  0
LINE
  5
371
330
1F
100
AcDbEntity
  8
0
100
AcDbLine
 10
18.92017110014358
 20
-15.56151439893577
 30
0.0
 11
19.16671485605977
 21
-15.22913518063426
 31
0.0
  0
LINE
  5
372
330
1F
100
AcDbEntity
  8
0
100
AcDbLine
 10
19.16671485605977
 20
-15.22913518063426
 30
0.0
 11
19.40742024495868
 21
-14.89250380346478
 31
0.0
  0
LINE
  5
373
330
1F
100
AcDbEntity
  8
0
100
AcDbLine
 10
19.40742024495868
 20
-14.89250380346478
 30
0.0
 11
19.64221394564705
 21
-14.55172280860587
 31
0.0
  0
LINE
  5
374
330
1F
100
AcDbEntity
  8
0
100
AcDbLine
 10
19.64221394564705
 20
-14.55172280860587
 30
0.0
 11
19.8710244376892
 21
-14.20689600124975
 31
0.0
  0
LINE
  5
375
330
1F
100
AcDbEntity
  8
0
100
AcDbLine
 10
19.8710244376892
 20
-14.20689600124975
 30
0.0
 11
19.97866296560757
 21
-14.03836827611724
 31
0.0
  0
LINE
  5
376
330
1F
100
AcDbEntity
  8
0
100
AcDbLine
 10
21.11446713208798
 20
-12.05893740525387
 30
0.0
 11
21.29954828881858
 21
-11.68879590020039
 31
0.0
  0
LINE
  5
377
330
1F
100
AcDbEntity
  8
0
100
AcDbLine
 10
21.29954828881858
 20
-11.68879590020039
 30
0.0
 11
21.47814139680705
 21
-11.31548065791982
 31
0.0
  0
LINE
  5
378
330
1F
100
AcDbEntity
  8
0
100
AcDbLine
 10
21.47814139680705
 20
-11.31548065791982
 30
0.0
 11
21.65019205486262
 21
-10.93910539385134
 31
0.0
  0
LINE
  5
379
330
1F
100
AcDbEntity
  8
0
100
AcDbLine
 10
21.65019205486262
 20
-10.93910539385134
 30
0.0
 11
21.81564785468816
 21
-10.55978475554639
 31
0.0
  0
LINE
  5
37A
330
1F
100
AcDbEntity
  8
0
100
AcDbLine
 10
21.81564785468816
 20
-10.55978475554639
 30
0.0
 11
21.97445839684425
 21
-10.17763428774597
 31
0.0
  0
LINE
  5
37B
330
1F
100
AcDbEntity
  8
0
100
AcDbLine
 10
21.97445839684425
 20
-10.17763428774597
 30
0.0
 11
22.12657530610129
 21
-9.79277039718456
 31
0.0
  0
LINE
  5
37C
330
1F
100
AcDbEntity
  8
0
100
AcDbLine
 10
22.12657530610129
 20
-9.79277039718456
 30
0.0
 11
22.27195224617514
 21
-9.405310317131475
 31
0.0
  0
LINE
  5
37D
330
1F
100
AcDbEntity
  8
0
100
AcDbLine
 10
22.27195224617514
 20
-9.405310317131475
 30
0.0
 11
22.41054493384157
 21
-9.015372071680511
 31
0.0
  0
LINE
  5
37E
330
1F
100
AcDbEntity
  8
0
100
AcDbLine
 10
22.41054493384157
 20
-9.015372071680511
 30
0.0
 11
22.54231115242531
 21
-8.623074439798652
 31
0.0
  0
LINE
  5
37F
330
1F
100
AcDbEntity
  8
0
100
AcDbLine
 10
22.54231115242531
 20
-8.623074439798652
 30
0.0
 11
22.66721076465977
 21
-8.228536919144808
 31
0.0
  0
LINE
  5
380
330
1F
100
AcDbEntity
  8
0
100
AcDbLine
 10
22.66721076465977
 20
-8.228536919144808
 30
0.0
 11
22.78520572491311
 21
-7.831879689669798
 31
0.0
  0
LINE
  5
381
330
1F
100
AcDbEntity
  8
0
100
AcDbLine
 10
22.78520572491311
 20
-7.831879689669798
 30
0.0
 11
22.89626009077738
 21
-7.433223577008194
 31
0.0
  0
LINE
  5
382
330
1F
100
AcDbEntity
  8
0
100
AcDbLine
 10
22.89626009077738
 20
-7.433223577008194
 30
0.0
 11
23.00034003401696
 21
-7.032690015673784
 31
0.0
  0
LINE
  5
383
330
1F
100
AcDbEntity
  8
0
100
AcDbLine
 10
23.00034003401696
 20
-7.032690015673784
 30
0.0
 11
23.09741385087289
 21
-6.630401012069386
 31
0.0
  0
LINE
  5
384
330
1F
100
AcDbEntity
  8
0
100
AcDbLine
 10
23.09741385087289
 20
-6.630401012069386
 30
0.0
 11
23.18745197172016
 21
-6.226479107322602
 31
0.0
  0
LINE
  5
385
330
1F
100
AcDbEntity
  8
0
100
AcDbLine
 10
23.18745197172016
 20
-6.226479107322602
 30
0.0
 11
23.27042697007496
 21
-5.821047339958474
 31
0.0
  0
LINE
  5
386
330
1F
100
AcDbEntity
  8
0
100
AcDbLine
 10
23.27042697007496
 20
-5.821047339958474
 30
0.0
 11
23.34631357094898
 21
-5.414229208420848
 31
0.0
  0
LINE
  5
387
330
1F
100
AcDbEntity
  8
0
100
AcDbLine
 10
23.34631357094898
 20
-5.414229208420848
 30
0.0
 11
23.41508865854847
 21
-5.006148633453525
 31
0.0
  0
LINE
  5
388
330
1F
100
AcDbEntity
  8
0
100
AcDbLine
 10
23.41508865854847
 20
-5.006148633453525
 30
0.0
 11
23.47673128331551
 21
-4.596929920352787
 31
0.0
  0
LINE
  5
389
330
1F
100
AcDbEntity
  8
0
100
AcDbLine
 10
23.47673128331551
 20
-4.596929920352787
 30
0.0
 11
23.53122266830945
 21
-4.18669772110287
 31
0.0
  0
LINE
  5
38A
330
1F
100
AcDbEntity
  8
0
100
AcDbLine
 10
23.53122266830945
 20
-4.18669772110287
 30
0.0
 11
23.57854621492655
 21
-3.775576996405662
 31
0.0
  0
LINE
  5
38B
330
1F
100
AcDbEntity
  8
0
100
AcDbLine
 10
23.57854621492655
 20
-3.775576996405662
 30
0.0
 11
23.61868750795609
 21
-3.363692977616519
 31
0.0
  0
LINE
  5
38C
330
1F
100
AcDbEntity
  8
0
100
AcDbLine
 10
23.61868750795609
 20
-3.363692977616519
 30
0.0
 11
23.65163431997132
 21
-2.951171128597548
 31
0.0
  0
LINE
  5
38D
330
1F
100
AcDbEntity
  8
0
100
AcDbLine
 10
23.65163431997132
 20
-2.951171128597548
 30
0.0
 11
23.67737661505418
 21
-2.538137107500199
 31
0.0
  0
LINE
  5
38E
330
1F
100
AcDbEntity
  8
0
100
AcDbLine
 10
23.67737661505418
 20
-2.538137107500199
 30
0.0
 11
23.69590655185218
 21
-2.124716728488422
 31
0.0
  0
LINE
  5
38F
330
1F
100
AcDbEntity
  8
0
100
AcDbLine
 10
23.69590655185218
 20
-2.124716728488422
 30
0.0
 11
23.70721848596709
 21
-1.711035923414562
 31
0.0
  0
LINE
  5
390
330
1F
100
AcDbEntity
  8
0
100
AcDbLine
 10
23.70721848596709
 20
-1.711035923414562
 30
0.0
 11
23.7113089716742
 21
-1.297220703459257
 31
0.0
  0
LINE
  5
391
330
1F
100
AcDbEntity
  8
0
100
AcDbLine
 10
23.7113089716742
 20
-1.297220703459257
 30
0.0
 11
23.70817676297193
 21
-0.8833971207472018
 31
0.0
  0
LINE
  5
392
330
1F
100
AcDbEntity
  8
0
100
AcDbLine
 10
23.70817676297193
 20
-0.8833971207472018
 30
0.0
 11
23.69782281396138
 21
-0.4696912299505322
 31
0.0
  0
LINE
  5
393
330
1F
100
AcDbEntity
  8
0
100
AcDbLine
 10
23.69782281396138
 20
-0.4696912299505322
 30
0.0
 11
23.68025027855575
 21
-0.0562290498912209
 31
0.0
  0
LINE
  5
394
330
1F
100
AcDbEntity
  8
0
100
AcDbLine
 10
23.68025027855575
 20
-0.0562290498912209
 30
0.0
 11
23.65546450951952
 21
0.3568634748453824
 31
0.0
  0
LINE
  5
395
330
1F
100
AcDbEntity
  8
0
100
AcDbLine
 10
23.65546450951952
 20
0.3568634748453824
 30
0.0
 11
23.62347305683807
 21
0.7694605122745484
 31
0.0
  0
LINE
  5
396
330
1F
100
AcDbEntity
  8
0
100
AcDbLine
 10
23.62347305683807
 20
0.7694605122745484
 30
0.0
 11
23.58428566541778
 21
1.181436381341722
 31
0.0
  0
LINE
  5
397
330
1F
100
AcDbEntity
  8
0
100
AcDbLine
 10
23.58428566541778
 20
1.181436381341722
 30
0.0
 11
23.5379142721177
 21
1.5926655902063
 31
0.0
  0
LINE
  5
398
330
1F
100
AcDbEntity
  8
0
100
AcDbLine
 10
23.5379142721177
 20
1.5926655902063
 30
0.0
 11
23.48437300211344
 21
2.003022874467602
 31
0.0
  0
LINE
  5
399
330
1F
100
AcDbEntity
  8
0
100
AcDbLine
 10
23.48437300211344
 20
2.003022874467602
 30
0.0
 11
23.4236781645945
 21
2.412383235321616
 31
0.0
  0
LINE
  5
39A
330
1F
100
AcDbEntity
  8
0
100
AcDbLine
 10
23.4236781645945
 20
2.412383235321616
 30
0.0
 11
23.35584824779636
 21
2.820621977636884
 31
0.0
  0
LINE
  5
39B
330
1F
100
AcDbEntity
  8
0
100
AcDbLine
 10
23.35584824779636
 20
2.820621977636884
 30
0.0
 11
23.28090391336877
 21
3.227614747937765
 31
0.0
  0
LINE
  5
39C
330
1F
100
AcDbEntity
  8
0
100
AcDbLine
 10
23.28090391336877
 20
3.227614747937765
 30
0.0
 11
23.19886799008197
 21
3.633237572283809
 31
0.0
  0
LINE
  5
39D
330
1F
100
AcDbEntity
  8
0
100
AcDbLine
 10
23.19886799008197
 20
3.633237572283809
 30
0.0
 11
23.10976546687292
 21
4.037366894033368
 31
0.0
  0
LINE
  5
39E
330
1F
100
AcDbEntity
  8
0
100
AcDbLine
 10
23.10976546687292
 20
4.037366894033368
 30
0.0
 11
23.01362348523334
 21
4.43987961148017
 31
0.0
  0
LINE
  5
39F
330
1F
100
AcDbEntity
  8
0
100
AcDbLine
 10
23.01362348523334
 20
4.43987961148017
 30
0.0
 11
22.91047133094217
 21
4.840653115351211
 31
0.0
  0
LINE
  5
3A0
330
1F
100
AcDbEntity
  8
0
100
AcDbLine
 10
22.91047133094217
 20
4.840653115351211
 30
0.0
 11
22.80034042514488
 21
5.23956532615485
 31
0.0
  0
LINE
  5
3A1
330
1F
100
AcDbEntity
  8
0
100
AcDbLine
 10
22.80034042514488
 20
5.23956532615485
 30
0.0
 11
22.68326431478224
 21
5.63649473136733
 31
0.0
  0
LINE
  5
3A2
330
1F
100
AcDbEntity
  8
0
100
AcDbLine
 10
22.68326431478224
 20
5.63649473136733
 30
0.0
 11
22.5592786623716
 21
6.03132042244668
 31
0.0
  0
LINE
  5
3A3
330
1F
100
AcDbEntity
  8
0
100
AcDbLine
 10
22.5592786623716
 20
6.03132042244668
 30
0.0
 11
22.42842123514375
 21
6.423922131662652
 31
0.0
  0
LINE
  5
3A4
330
1F
100
AcDbEntity
  8
0
100
AcDbLine
 10
22.42842123514375
 20
6.423922131662652
 30
0.0
 11
22.29073189353869
 21
6.814180268731367
 31
0.0
  0
LINE
  5
3A5
330
1F
100
AcDbEntity
  8
0
100
AcDbLine
 10
22.29073189353869
 20
6.814180268731367
 30
0.0
 11
22.14625257906369
 21
7.201975957243776
 31
0.0
  0
LINE
  5
3A6
330
1F
100
AcDbEntity
  8
0
100
AcDbLine
 10
22.14625257906369
 20
7.201975957243776
 30
0.0
 11
21.99502730151754
 21
7.587191070876496
 31
0.0
  0
LINE
  5
3A7
330
1F
100
AcDbEntity
  8
0
100
AcDbLine
 10
21.99502730151754
 20
7.587191070876496
 30
0.0
 11
21.83710212558472
 21
7.96970826937427
 31
0.0
  0
LINE
  5
3A8
330
1F
100
AcDbEntity
  8
0
100
AcDbLine
 10
21.83710212558472
 20
7.96970826937427
 30
0.0
 11
21.6725251568037
 21
8.34941103429287
 31
0.0
  0
LINE
  5
3A9
330
1F
100
AcDbEntity
  8
0
100
AcDbLine
 10
21.6725251568037
 20
8.34941103429287
 30
0.0
 11
21.50134652691346
 21
8.726183704491861
 31
0.0
  0
LINE
  5
3AA
330
1F
100
AcDbEntity
  8
0
100
AcDbLine
 10
21.50134652691346
 20
8.726183704491861
 30
0.0
 11
21.3236183785829
 21
9.099911511366019
 31
0.0
  0
LINE
  5
3AB
330
1F
100
AcDbEntity
  8
0
100
AcDbLine
 10
21.3236183785829
 20
9.099911511366019
 30
0.0
 11
21.13939484952769
 21
9.470480613804988
 31
0.0
  0
LINE
  5
3AC
330
1F
100
AcDbEntity
  8
0
100
AcDbLine
 10
21.13939484952769
 20
9.470480613804988
 30
0.0
 11
21.04726482228012
 21
9.647962175974529
 31
0.0
  0
LINE
  5
3AD
330
1F
100
AcDbEntity
  8
0
100
AcDbLine
 10
-1.013748891952125
 20
22.41897479471385
 30
0.0
 11
-1.213537645771072
 21
22.41048358289461
 31
0.0
  0
LINE
  5
3AE
330
1F
100
AcDbEntity
  8
0
100
AcDbLine
 10
-19.97866296560949
 20
11.49883488479259
 30
0.0
 11
-1.013748891952125
 21
22.41897479471385
 31
0.0
  0
LINE
  5
3AF
330
1F
100
AcDbEntity
  8
0
100
AcDbLine
 10
20.00817746837074
 20
11.45253634301538
 30
0.0
 11
19.90092948631748
 21
11.62131287330246
 31
0.0
  0
LINE
  5
3B0
330
1F
100
AcDbEntity
  8
0
100
AcDbLine
 10
1.068601856671629
 20
22.41656375643007
 30
0.0
 11
20.00817746837074
 21
11.45253634301538
 31
0.0
  0
LINE
  5
3B1
330
1F
100
AcDbEntity
  8
0
100
AcDbLine
 10
21.02192636032315
 20
-12.23620514736063
 30
0.0
 11
21.11446713208798
 21
-12.05893740525387
 31
0.0
  0
LINE
  5
3B2
330
1F
100
AcDbEntity
  8
0
100
AcDbLine
 10
21.04726482228012
 20
9.647962175974529
 30
0.0
 11
21.02192636032315
 21
-12.23620514736063
 31
0.0
  0
LINE
  5
3B3
330
1F
100
AcDbEntity
  8
0
100
AcDbLine
 10
1.013748891950986
 20
-24.95850818603728
 30
0.0
 11
1.213537645769927
 21
-24.95001697421803
 31
0.0
  0
LINE
  5
3B4
330
1F
100
AcDbEntity
  8
0
100
AcDbLine
 10
19.97866296560757
 20
-14.03836827611724
 30
0.0
 11
1.013748891950986
 21
-24.95850818603728
 31
0.0
  0
LINE
  5
3B5
330
1F
100
AcDbEntity
  8
0
100
AcDbLine
 10
-20.00817746837296
 20
-13.9920697343371
 30
0.0
 11
-19.90092948631862
 21
-14.16084626462588
 31
0.0
  0
LINE
  5
3B6
330
1F
100
AcDbEntity
  8
0
100
AcDbLine
 10
-1.068601856671632
 20
-24.95609714775355
 30
0.0
 11
-20.00817746837296
 21
-13.9920697343371
 31
0.0
  0
LINE
  5
3B7
330
1F
100
AcDbEntity
  8
0
100
AcDbLine
 10
-21.02192636032358
 20
9.696671756038562
 30
0.0
 11
-21.11446713208911
 21
9.519404013930433
 31
0.0
  0
LINE
  5
3B8
330
1F
100
AcDbEntity
  8
0
100
AcDbLine
 10
-21.04726482228029
 20
-12.18749556729982
 30
0.0
 11
-21.02192636032358
 21
9.696671756038562
 31
0.0
  0
LINE
  5
3B9
330
1F
100
AcDbEntity
  8
0
100
AcDbLine
 10
-19.53511453366758
 20
-1.69447724635013
 30
0.0
 11
-11.63585234591767
 21
-6.255102071022137
 31
0.0
  0
LINE
  5
3BA
330
1F
100
AcDbEntity
  8
0
100
AcDbLine
 10
-19.53411181207004
 20
-0.8284528105802453
 30
0.0
 11
-19.53511453366758
 21
-1.69447724635013
 31
0.0
  0
LINE
  5
3BB
330
1F
100
AcDbEntity
  8
0
100
AcDbLine
 10
-19.52187231490157
 20
10.03096347419182
 30
0.0
 11
-19.53208912200844
 21
0.9184917287891472
 31
0.0
  0
LINE
  5
3BC
330
1F
100
AcDbEntity
  8
0
100
AcDbLine
 10
-9.438910675161843
 20
-18.37735584500726
 30
0.0
 11
-1.521561519148956
 21
-13.82661895628313
 31
0.0
  0
LINE
  5
3BD
330
1F
100
AcDbEntity
  8
0
100
AcDbLine
 10
-10.16163515030401
 20
-17.95897419167654
 30
0.0
 11
-9.438910675161843
 21
-18.37735584500726
 31
0.0
  0
LINE
  5
3BE
330
1F
100
AcDbEntity
  8
0
100
AcDbLine
 10
-19.54732087860598
 20
-12.52564676509803
 30
0.0
 11
-11.63585234591767
 21
-17.10555708891675
 31
0.0
  0
LINE
  5
3BF
330
1F
100
AcDbEntity
  8
0
100
AcDbLine
 10
9.398814842261485
 20
-18.39942936096734
 30
0.0
 11
1.48346408397633
 21
-13.82951582901705
 31
0.0
  0
LINE
  5
3C0
330
1F
100
AcDbEntity
  8
0
100
AcDbLine
 10
-0.026117045068966
 20
-23.82637590295456
 30
0.0
 11
7.896806707531796
 21
-19.26429692184228
 31
0.0
  0
LINE
  5
3C1
330
1F
100
AcDbEntity
  8
0
100
AcDbLine
 10
9.398814842261485
 20
-18.39942936096734
 30
0.0
 11
10.12542423646427
 21
-17.98104221648888
 31
0.0
  0
LINE
  5
3C2
330
1F
100
AcDbEntity
  8
0
100
AcDbLine
 10
19.53508004013682
 20
-0.8748473056803059
 30
0.0
 11
11.64571188361897
 21
3.696337228809112
 31
0.0
  0
LINE
  5
3C3
330
1F
100
AcDbEntity
  8
0
100
AcDbLine
 10
19.52187231490114
 20
-12.57049686551562
 30
0.0
 11
19.53209202398601
 21
-3.45551875765113
 31
0.0
  0
LINE
  5
3C4
330
1F
100
AcDbEntity
  8
0
100
AcDbLine
 10
19.53409657553717
 20
-1.72423997567689
 30
0.0
 11
19.53508004013682
 21
-0.8748473056803059
 31
0.0
  0
LINE
  5
3C5
330
1F
100
AcDbEntity
  8
0
100
AcDbLine
 10
9.385888133491687
 20
15.86851694295448
 30
0.0
 11
1.493838339744898
 21
11.31203987007664
 31
0.0
  0
LINE
  5
3C6
330
1F
100
AcDbEntity
  8
0
100
AcDbLine
 10
19.5473208786058
 20
9.98611337377514
 30
0.0
 11
11.66634765158607
 21
14.54837011473702
 31
0.0
  0
LINE
  5
3C7
330
1F
100
AcDbEntity
  8
0
100
AcDbLine
 10
10.16113399414418
 20
15.41973091719582
 30
0.0
 11
9.385888133491687
 21
15.86851694295448
 31
0.0
  0
LINE
  5
3C8
330
1F
100
AcDbEntity
  8
0
100
AcDbLine
 10
-9.37296191206173
 20
15.87478228095393
 30
0.0
 11
-1.489958890774327
 21
11.30728577409208
 31
0.0
  0
LINE
  5
3C9
330
1F
100
AcDbEntity
  8
0
100
AcDbLine
 10
0.0261170450683457
 20
21.28684251163143
 30
0.0
 11
-7.872294622261252
 21
16.73887777325179
 31
0.0
  0
LINE
  5
3CA
330
1F
100
AcDbEntity
  8
0
100
AcDbLine
 10
-9.37296191206173
 20
15.87478228095393
 30
0.0
 11
-10.1189929725109
 21
15.44521199523521
 31
0.0
  0
LINE
  5
3CB
330
1F
100
AcDbEntity
  8
0
100
AcDbLine
 10
-10.13306574149721
 20
6.330519958032175
 30
0.0
 11
-10.1189929725109
 21
15.44521199523521
 31
0.0
  0
LINE
  5
3CC
330
1F
100
AcDbEntity
  8
0
100
AcDbLine
 10
-10.13306574149721
 20
6.330519958032175
 30
0.0
 11
-1.489958890774327
 21
11.30728577409208
 31
0.0
  0
LINE
  5
3CD
330
1F
100
AcDbEntity
  8
0
100
AcDbLine
 10
10.14705078313851
 20
6.298275762463881
 30
0.0
 11
10.16113399414418
 21
15.41973091719582
 31
0.0
  0
LINE
  5
3CE
330
1F
100
AcDbEntity
  8
0
100
AcDbLine
 10
1.493838339744898
 20
11.31203987007664
 30
0.0
 11
10.14705078313851
 21
6.298275762463881
 31
0.0
  0
LINE
  5
3CF
330
1F
100
AcDbEntity
  8
0
100
AcDbLine
 10
11.64571188361897
 20
-6.258328658970069
 30
0.0
 11
19.53409657553717
 21
-1.72423997567689
 31
0.0
  0
LINE
  5
3D0
330
1F
100
AcDbEntity
  8
0
100
AcDbLine
 10
11.64571188361897
 20
3.696337228809112
 30
0.0
 11
11.64571188361897
 21
-6.258328658970069
 31
0.0
  0
LINE
  5
3D1
330
1F
100
AcDbEntity
  8
0
100
AcDbLine
 10
10.12542423646426
 20
-8.862286762588484
 30
0.0
 11
10.12542423646427
 21
-17.98104221648888
 31
0.0
  0
LINE
  5
3D2
330
1F
100
AcDbEntity
  8
0
100
AcDbLine
 10
10.12542423646426
 20
-8.862286762588484
 30
0.0
 11
1.48346408397633
 21
-13.82951582901705
 31
0.0
  0
LINE
  5
3D3
330
1F
100
AcDbEntity
  8
0
100
AcDbLine
 10
-10.15108186892487
 20
-8.844380894450826
 30
0.0
 11
-10.16163515030401
 21
-17.95897419167654
 31
0.0
  0
LINE
  5
3D4
330
1F
100
AcDbEntity
  8
0
100
AcDbLine
 10
-1.521561519148956
 20
-13.82661895628313
 30
0.0
 11
-10.15108186892487
 21
-8.844380894450826
 31
0.0
  0
LINE
  5
3D5
330
1F
100
AcDbEntity
  8
0
100
AcDbLine
 10
-11.63585234591767
 20
3.731609418332527
 30
0.0
 11
-19.53411181207004
 21
-0.8284528105802453
 31
0.0
  0
LINE
  5
3D6
330
1F
100
AcDbEntity
  8
0
100
AcDbLine
 10
-11.63585234591767
 20
-6.255102071022137
 30
0.0
 11
-11.63585234591767
 21
3.731609418332527
 31
0.0
  0
LINE
  5
3D7
330
1F
100
AcDbEntity
  8
0
100
AcDbLine
 10
7.912640217732648
 20
16.7213729343612
 30
0.0
 11
0.0261170450683457
 21
21.28684251163143
 31
0.0
  0
LINE
  5
3D8
330
1F
100
AcDbEntity
  8
0
100
AcDbLine
 10
0.0107083990261648
 20
12.17138126638994
 30
0.0
 11
7.912640217732648
 21
16.7213729343612
 31
0.0
  0
LINE
  5
3D9
330
1F
100
AcDbEntity
  8
0
100
AcDbLine
 10
-11.63585234591767
 20
5.465204148464586
 30
0.0
 11
-19.53208912200844
 21
0.9184917287891472
 31
0.0
  0
LINE
  5
3DA
330
1F
100
AcDbEntity
  8
0
100
AcDbLine
 10
11.6516870996757
 20
5.426473341315154
 30
0.0
 11
11.66634765158607
 21
14.54837011473702
 31
0.0
  0
LINE
  5
3DB
330
1F
100
AcDbEntity
  8
0
100
AcDbLine
 10
-11.63585234591766
 20
14.57179297962863
 30
0.0
 11
-19.52187231490157
 21
10.03096347419182
 31
0.0
  0
LINE
  5
3DC
330
1F
100
AcDbEntity
  8
0
100
AcDbLine
 10
-11.63585234591767
 20
5.465204148464586
 30
0.0
 11
-11.63585234591766
 21
14.57179297962863
 31
0.0
  0
LINE
  5
3DD
330
1F
100
AcDbEntity
  8
0
100
AcDbLine
 10
-7.872294622261252
 20
16.73887777325179
 30
0.0
 11
0.0107083990261648
 21
12.17138126638994
 31
0.0
  0
LINE
  5
3DE
330
1F
100
AcDbEntity
  8
0
100
AcDbLine
 10
-19.53711863760731
 20
-3.42536943804914
 30
0.0
 11
-19.54732087860598
 21
-12.52564676509803
 31
0.0
  0
LINE
  5
3DF
330
1F
100
AcDbEntity
  8
0
100
AcDbLine
 10
-19.53711863760731
 20
-3.42536943804914
 30
0.0
 11
-11.63585234591767
 21
-7.98715132852825
 31
0.0
  0
LINE
  5
3E0
330
1F
100
AcDbEntity
  8
0
100
AcDbLine
 10
-11.63585234591767
 20
-17.10555708891675
 30
0.0
 11
-11.63585234591767
 21
-7.98715132852825
 31
0.0
  0
LINE
  5
3E1
330
1F
100
AcDbEntity
  8
0
100
AcDbLine
 10
-7.939245772705054
 20
-19.24550450042466
 30
0.0
 11
-0.026117045068966
 21
-23.82637590295456
 31
0.0
  0
LINE
  5
3E2
330
1F
100
AcDbEntity
  8
0
100
AcDbLine
 10
-7.939245772705054
 20
-19.24550450042466
 30
0.0
 11
-0.0198831090164876
 21
-14.69361028701081
 31
0.0
  0
LINE
  5
3E3
330
1F
100
AcDbEntity
  8
0
100
AcDbLine
 10
7.896806707531796
 20
-19.26429692184228
 30
0.0
 11
-0.0198831090164876
 21
-14.69361028701081
 31
0.0
  0
LINE
  5
3E4
330
1F
100
AcDbEntity
  8
0
100
AcDbLine
 10
11.61744981581786
 20
-17.12192268594733
 30
0.0
 11
19.52187231490114
 21
-12.57049686551562
 31
0.0
  0
LINE
  5
3E5
330
1F
100
AcDbEntity
  8
0
100
AcDbLine
 10
11.61744981581786
 20
-17.12192268594733
 30
0.0
 11
11.6332138424046
 21
-7.995638892830652
 31
0.0
  0
LINE
  5
3E6
330
1F
100
AcDbEntity
  8
0
100
AcDbLine
 10
11.6332138424046
 20
-7.995638892830652
 30
0.0
 11
19.53209202398601
 21
-3.45551875765113
 31
0.0
  0
LINE
  5
3E7
330
1F
100
AcDbEntity
  8
0
100
AcDbLine
 10
19.53708593154537
 20
0.8575886761034978
 30
0.0
 11
19.5473208786058
 21
9.98611337377514
 31
0.0
  0
LINE
  5
3E8
330
1F
100
AcDbEntity
  8
0
100
AcDbLine
 10
19.53708593154537
 20
0.8575886761034978
 30
0.0
 11
11.6516870996757
 21
5.426473341315154
 31
0.0
  0
LINE
  5
3E9
330
1F
100
AcDbEntity
  8
0
100
AcDbLine
 10
-9.685718114075321
 20
4.85721118372622
 30
0.0
 11
-0.4367399617915378
 21
10.18284224403424
 31
0.0
  0
LINE
  5
3EA
330
1F
100
AcDbEntity
  8
0
100
AcDbLine
 10
-9.685718114075321
 20
4.85721118372622
 30
0.0
 11
-0.449097248523403
 21
-0.4898233250448329
 31
0.0
  0
LINE
  5
3EB
330
1F
100
AcDbEntity
  8
0
100
AcDbLine
 10
-10.13585234591767
 20
4.077865329411368
 30
0.0
 11
-10.13585234591767
 21
-6.586798106166887
 31
0.0
  0
LINE
  5
3EC
330
1F
100
AcDbEntity
  8
0
100
AcDbLine
 10
9.675446621312364
 20
-7.390798458276697
 30
0.0
 11
0.4490972485222581
 21
-2.04971006627859
 31
0.0
  0
LINE
  5
3ED
330
1F
100
AcDbEntity
  8
0
100
AcDbLine
 10
-10.13585234591767
 20
-6.586798106166887
 30
0.0
 11
-0.899999396729454
 21
-1.268724636343753
 31
0.0
  0
LINE
  5
3EE
330
1F
100
AcDbEntity
  8
0
100
AcDbLine
 10
-0.899999396729454
 20
-1.268724636343753
 30
0.0
 11
-10.13585234591767
 21
4.077865329411368
 31
0.0
  0
LINE
  5
3EF
330
1F
100
AcDbEntity
  8
0
100
AcDbLine
 10
10.14358217202625
 20
4.051715606752047
 30
0.0
 11
10.12711723622098
 21
-6.612342008582171
 31
0.0
  0
LINE
  5
3F0
330
1F
100
AcDbEntity
  8
0
100
AcDbLine
 10
-9.698608125502547
 20
-7.373566539359305
 30
0.0
 11
-0.4632412052026304
 21
-12.70558902963596
 31
0.0
  0
LINE
  5
3F1
330
1F
100
AcDbEntity
  8
0
100
AcDbLine
 10
10.14358217202625
 20
4.051715606752047
 30
0.0
 11
0.8999993967283186
 21
-1.270808754979677
 31
0.0
  0
LINE
  5
3F2
330
1F
100
AcDbEntity
  8
0
100
AcDbLine
 10
0.8999993967283186
 20
-1.270808754979677
 30
0.0
 11
10.12711723622098
 21
-6.612342008582171
 31
0.0
  0
LINE
  5
3F3
330
1F
100
AcDbEntity
  8
0
100
AcDbLine
 10
-0.4367399617915378
 20
10.18284224403424
 30
0.0
 11
-0.449097248523403
 21
-0.4898233250448329
 31
0.0
  0
LINE
  5
3F4
330
1F
100
AcDbEntity
  8
0
100
AcDbLine
 10
-0.4509021482066364
 20
-2.048668006960634
 30
0.0
 11
-9.698608125502547
 21
-7.373566539359305
 31
0.0
  0
LINE
  5
3F5
330
1F
100
AcDbEntity
  8
0
100
AcDbLine
 10
-0.4509021482066364
 20
-2.048668006960634
 30
0.0
 11
-0.4632412052026304
 21
-12.70558902963596
 31
0.0
  0
LINE
  5
3F6
330
1F
100
AcDbEntity
  8
0
100
AcDbLine
 10
0.4367646981527734
 20
-12.70101148569907
 30
0.0
 11
9.675446621312364
 21
-7.390798458276697
 31
0.0
  0
LINE
  5
3F7
330
1F
100
AcDbEntity
  8
0
100
AcDbLine
 10
0.4632522263334104
 20
10.17557430189524
 30
0.0
 11
9.690364560730545
 21
4.829286441549107
 31
0.0
  0
LINE
  5
3F8
330
1F
100
AcDbEntity
  8
0
100
AcDbLine
 10
0.4367646981527734
 20
-12.70101148569907
 30
0.0
 11
0.4490972485222581
 21
-2.04971006627859
 31
0.0
  0
LINE
  5
3F9
330
1F
100
AcDbEntity
  8
0
100
AcDbLine
 10
0.4509021482054917
 20
-0.4908653843628001
 30
0.0
 11
9.690364560730545
 21
4.829286441549107
 31
0.0
  0
LINE
  5
3FA
330
1F
100
AcDbEntity
  8
0
100
AcDbLine
 10
0.4509021482054917
 20
-0.4908653843628001
 30
0.0
 11
0.4632522263334104
 21
10.17557430189524
 31
0.0
  0
ENDSEC
  0
SECTION
  2
OBJECTS
  0
DICTIONARY
  5
C
330
0
100
AcDbDictionary
  3
ACAD_GROUP
350
D
  3
ACAD_LAYOUT
350
1A
  3
ACAD_MATERIAL
350
43
  3
ACAD_MLEADERSTYLE
350
41D
  3
ACAD_MLINESTYLE
350
17
  3
ACAD_PLOTSETTINGS
350
19
  3
ACAD_SCALELIST
350
47
  3
ACAD_VISUALSTYLE
350
2A
  3
ACDBHEADERROUNDTRIPXREC
350
3FB
  3
ACDBVARIABLEDICTIONARY
350
41B
  0
DICTIONARY
  5
422
330
8
100
AcDbDictionary
280
     1
  3
ACAD_XREC_ROUNDTRIP
360
423
  0
DICTIONARY
  5
D
102
{ACAD_REACTORS
330
C
102
}
330
C
100
AcDbDictionary
  0
DICTIONARY
  5
1A
102
{ACAD_REACTORS
330
C
102
}
330
C
100
AcDbDictionary
  0
DICTIONARY
  5
43
102
{ACAD_REACTORS
330
C
102
}
330
C
100
AcDbDictionary
  3
BYBLOCK
350
45
  3
BYLAYER
350
44
  3
GLOBAL
350
46
  0
DICTIONARY
  5
41D
102
{ACAD_REACTORS
330
C
102
}
330
C
100
AcDbDictionary
  0
DICTIONARY
  5
17
102
{ACAD_REACTORS
330
C
102
}
330
C
100
AcDbDictionary
  3
STANDARD
350
18
  0
DICTIONARY
  5
19
102
{ACAD_REACTORS
330
C
102
}
330
C
100
AcDbDictionary
  0
DICTIONARY
  5
47
102
{ACAD_REACTORS
330
C
102
}
330
C
100
AcDbDictionary
  3
A0
350
48
  3
A1
350
49
  3
A2
350
4A
  3
A3
350
4B
  3
A4
350
4C
  3
A5
350
4D
  3
A6
350
4E
  3
A7
350
4F
  3
A8
350
50
  3
A9
350
51
  3
B0
350
52
  3
B1
350
53
  3
B2
350
54
  3
B3
350
55
  3
B4
350
56
  3
B5
350
57
  3
B6
350
58
  3
B7
350
59
  3
B8
350
5A
  3
B9
350
5B
  3
C0
350
5C
  3
C1
350
5D
  3
C2
350
5E
  3
C3
350
5F
  3
C4
350
60
  3
C5
350
61
  3
C6
350
62
  3
C7
350
63
  3
C8
350
64
  3
C9
350
65
  3
D0
350
66
  3
D1
350
67
  3
D2
350
68
  0
DICTIONARY
  5
2A
102
{ACAD_REACTORS
330
C
102
}
330
C
100
AcDbDictionary
  3
2DWIREFRAME
350
2F
  3
BASIC
350
32
  3
BRIGHTEN
350
36
  3
COLORCHANGE
350
3A
  3
CONCEPTUAL
350
34
  3
DIM
350
35
  3
EDGECOLOROFF
350
3D
  3
FACEPATTERN
350
39
  3
FLAT
350
2B
  3
FLATWITHEDGES
350
2C
  3
GOURAUD
350
2D
  3
GOURAUDWITHEDGES
350
2E
  3
HIDDEN
350
31
  3
JITTEROFF
350
3B
  3
LINEPATTERN
350
38
  3
OVERHANGOFF
350
3C
  3
REALISTIC
350
33
  3
SHADED
350
42
  3
SHADED_WITH_EDGES
350
41
  3
SHADES_OF_GRAY
350
3E
  3
SKETCHY
350
3F
  3
THICKEN
350
37
  3
WIREFRAME
350
30
  3
X-RAY
350
40
  0
DICTIONARY
  5
3FB
102
{ACAD_REACTORS
330
C
102
}
330
C
100
AcDbDictionary
  3
CEPSNTYPE
350
404
  3
DIMSTYLEDATA
350
41A
  3
FINGERPRINTGUID
350
405
  3
HYPERLINKBASE
350
3FE
  3
INSUNITS
350
403
  3
LAYOUTDICT
350
400
  3
LWETCUNION
350
402
  3
PLOTSETDICT
350
401
  3
PSVPSCALE
350
407
  3
PUCSBASE
350
40A
  3
PUCSORGBACK
350
410
  3
PUCSORGBOTTOM
350
40C
  3
PUCSORGFRONT
350
40F
  3
PUCSORGLEFT
350
40D
  3
PUCSORGRIGHT
350
40E
  3
PUCSORGTOP
350
40B
  3
PUCSORTHOREF
350
408
  3
PUCSORTHOVIEW
350
409
  3
STYLESHEET
350
3FF
  3
TSTACKALIGN
350
3FC
  3
TSTACKSIZE
350
3FD
  3
UCSBASE
350
413
  3
UCSORGBACK
350
419
  3
UCSORGBOTTOM
350
415
  3
UCSORGFRONT
350
418
  3
UCSORGLEFT
350
416
  3
UCSORGRIGHT
350
417
  3
UCSORGTOP
350
414
  3
UCSORTHOREF
350
411
  3
UCSORTHOVIEW
350
412
  3
VERSIONGUID
350
406
  0
DICTIONARY
  5
41B
102
{ACAD_REACTORS
330
C
102
}
330
C
100
AcDbDictionary
  3
CANNOSCALE
350
424
  3
DIMASSOC
350
420
  3
HIDETEXT
350
421
  3
MSLTSCALE
350
425
  0
XRECORD
  5
423
102
{ACAD_REACTORS
330
422
102
}
330
422
100
AcDbXrecord
102
VTR_0.000_0.000_1.000_1.000_GRIDDISPLAY
 70
     3
102
VTR_0.000_0.000_1.000_1.000_GRIDMAJOR
 70
     5
102
VTR_0.000_0.000_1.000_1.000_DEFAULTLIGHTING
280
     1
102
VTR_0.000_0.000_1.000_1.000_DEFAULTLIGHTINGTYPE
 70
     1
102
VTR_0.000_0.000_1.000_1.000_BRIGHTNESS
141
0.0
102
VTR_0.000_0.000_1.000_1.000_CONTRAST
142
0.0
  0
MATERIAL
  5
45
102
{ACAD_REACTORS
330
43
102
}
102
{ACAD_XDICTIONARY
360
428
102
}
330
43
100
AcDbMaterial
  1
BYBLOCK
  0
MATERIAL
  5
44
102
{ACAD_REACTORS
330
43
102
}
102
{ACAD_XDICTIONARY
360
426
102
}
330
43
100
AcDbMaterial
  1
BYLAYER
  0
MATERIAL
  5
46
102
{ACAD_REACTORS
330
43
102
}
102
{ACAD_XDICTIONARY
360
42A
102
}
330
43
100
AcDbMaterial
  1
GLOBAL
  0
MLINESTYLE
  5
18
102
{ACAD_REACTORS
330
17
102
}
330
17
100
AcDbMlineStyle
  2
Standard
 70
     0
  3

 62
   256
 51
90.0
 52
90.0
 71
     2
 49
0.5
 62
   256
  6
BYLAYER
 49
-0.5
 62
   256
  6
BYLAYER
  0
ACAD_PROXY_OBJECT
  5
48
102
{ACAD_REACTORS
330
47
102
}
330
47
100
AcDbProxyObject
 90
      499
 91
      503
 93
       41
310
903313A31580
  0
ACAD_PROXY_OBJECT
  5
49
102
{ACAD_REACTORS
330
47
102
}
330
47
100
AcDbProxyObject
 90
      499
 91
      503
 93
      105
310
903313A324000000000000004000
  0
ACAD_PROXY_OBJECT
  5
4A
102
{ACAD_REACTORS
330
47
102
}
330
47
100
AcDbProxyObject
 90
      499
 91
      503
 93
      105
310
903313A344000000000000104000
  0
ACAD_PROXY_OBJECT
  5
4B
102
{ACAD_REACTORS
330
47
102
}
330
47
100
AcDbProxyObject
 90
      499
 91
      503
 93
      105
310
903313A354000000000000144000
  0
ACAD_PROXY_OBJECT
  5
4C
102
{ACAD_REACTORS
330
47
102
}
330
47
100
AcDbProxyObject
 90
      499
 91
      503
 93
      105
310
903313A384000000000000204000
  0
ACAD_PROXY_OBJECT
  5
4D
102
{ACAD_REACTORS
330
47
102
}
330
47
100
AcDbProxyObject
 90
      499
 91
      503
 93
      113
310
904313A31304000000000000244000
  0
ACAD_PROXY_OBJECT
  5
4E
102
{ACAD_REACTORS
330
47
102
}
330
47
100
AcDbProxyObject
 90
      499
 91
      503
 93
      113
310
904313A31364000000000000304000
  0
ACAD_PROXY_OBJECT
  5
4F
102
{ACAD_REACTORS
330
47
102
}
330
47
100
AcDbProxyObject
 90
      499
 91
      503
 93
      113
310
904313A32304000000000000344000
  0
ACAD_PROXY_OBJECT
  5
50
102
{ACAD_REACTORS
330
47
102
}
330
47
100
AcDbProxyObject
 90
      499
 91
      503
 93
      113
310
904313A333040000000000003E4000
  0
ACAD_PROXY_OBJECT
  5
51
102
{ACAD_REACTORS
330
47
102
}
330
47
100
AcDbProxyObject
 90
      499
 91
      503
 93
      113
310
904313A34304000000000000444000
  0
ACAD_PROXY_OBJECT
  5
52
102
{ACAD_REACTORS
330
47
102
}
330
47
100
AcDbProxyObject
 90
      499
 91
      503
 93
      113
310
904313A35304000000000000494000
  0
ACAD_PROXY_OBJECT
  5
53
102
{ACAD_REACTORS
330
47
102
}
330
47
100
AcDbProxyObject
 90
      499
 91
      503
 93
      121
310
905313A3130304000000000000594000
  0
ACAD_PROXY_OBJECT
  5
54
102
{ACAD_REACTORS
330
47
102
}
330
47
100
AcDbProxyObject
 90
      499
 91
      503
 93
      105
310
903323A310000000000000010100
  0
ACAD_PROXY_OBJECT
  5
55
102
{ACAD_REACTORS
330
47
102
}
330
47
100
AcDbProxyObject
 90
      499
 91
      503
 93
      105
310
903343A310000000000000410100
  0
ACAD_PROXY_OBJECT
  5
56
102
{ACAD_REACTORS
330
47
102
}
330
47
100
AcDbProxyObject
 90
      499
 91
      503
 93
      105
310
903383A310000000000000810100
  0
ACAD_PROXY_OBJECT
  5
57
102
{ACAD_REACTORS
330
47
102
}
330
47
100
AcDbProxyObject
 90
      499
 91
      503
 93
      113
310
90431303A310000000000000910100
  0
ACAD_PROXY_OBJECT
  5
58
102
{ACAD_REACTORS
330
47
102
}
330
47
100
AcDbProxyObject
 90
      499
 91
      503
 93
      121
310
9053130303A310000000000001650100
  0
ACAD_PROXY_OBJECT
  5
59
102
{ACAD_REACTORS
330
47
102
}
330
47
100
AcDbProxyObject
 90
      499
 91
      503
 93
      257
310
90E312F31323822203D2031272D3022000000000000200FC000000000000284000
  0
ACAD_PROXY_OBJECT
  5
5A
102
{ACAD_REACTORS
330
47
102
}
330
47
100
AcDbProxyObject
 90
      499
 91
      503
 93
      249
310
90D312F363422203D2031272D3022000000000000240FC000000000000284000
  0
ACAD_PROXY_OBJECT
  5
5B
102
{ACAD_REACTORS
330
47
102
}
330
47
100
AcDbProxyObject
 90
      499
 91
      503
 93
      249
310
90D312F333222203D2031272D3022000000000000280FC000000000000284000
  0
ACAD_PROXY_OBJECT
  5
5C
102
{ACAD_REACTORS
330
47
102
}
330
47
100
AcDbProxyObject
 90
      499
 91
      503
 93
      249
310
90D312F313622203D2031272D30220000000000002C0FC000000000000284000
  0
ACAD_PROXY_OBJECT
  5
5D
102
{ACAD_REACTORS
330
47
102
}
330
47
100
AcDbProxyObject
 90
      499
 91
      503
 93
      249
310
90D332F333222203D2031272D30220000000000002E0FC000000000000284000
  0
ACAD_PROXY_OBJECT
  5
5E
102
{ACAD_REACTORS
330
47
102
}
330
47
100
AcDbProxyObject
 90
      499
 91
      503
 93
      241
310
90C312F3822203D2031272D3022000000000000300FC000000000000284000
  0
ACAD_PROXY_OBJECT
  5
5F
102
{ACAD_REACTORS
330
47
102
}
330
47
100
AcDbProxyObject
 90
      499
 91
      503
 93
      249
310
90D332F313622203D2031272D3022000000000000320FC000000000000284000
  0
ACAD_PROXY_OBJECT
  5
60
102
{ACAD_REACTORS
330
47
102
}
330
47
100
AcDbProxyObject
 90
      499
 91
      503
 93
      241
310
90C312F3422203D2031272D3022000000000000340FC000000000000284000
  0
ACAD_PROXY_OBJECT
  5
61
102
{ACAD_REACTORS
330
47
102
}
330
47
100
AcDbProxyObject
 90
      499
 91
      503
 93
      241
310
90C332F3822203D2031272D3022000000000000360FC000000000000284000
  0
ACAD_PROXY_OBJECT
  5
62
102
{ACAD_REACTORS
330
47
102
}
330
47
100
AcDbProxyObject
 90
      499
 91
      503
 93
      241
310
90C312F3222203D2031272D3022000000000000380FC000000000000284000
  0
ACAD_PROXY_OBJECT
  5
63
102
{ACAD_REACTORS
330
47
102
}
330
47
100
AcDbProxyObject
 90
      499
 91
      503
 93
      241
310
90C332F3422203D2031272D30220000000000003A0FC000000000000284000
  0
ACAD_PROXY_OBJECT
  5
64
102
{ACAD_REACTORS
330
47
102
}
330
47
100
AcDbProxyObject
 90
      499
 91
      503
 93
      161
310
90A3122203D2031272D30224000000000000284000
  0
ACAD_PROXY_OBJECT
  5
65
102
{ACAD_REACTORS
330
47
102
}
330
47
100
AcDbProxyObject
 90
      499
 91
      503
 93
      257
310
90E312D312F3222203D2031272D30220000000000003E0FC000000000000284000
  0
ACAD_PROXY_OBJECT
  5
66
102
{ACAD_REACTORS
330
47
102
}
330
47
100
AcDbProxyObject
 90
      499
 91
      503
 93
      225
310
90A3322203D2031272D302200000000000002100000000000000284000
  0
ACAD_PROXY_OBJECT
  5
67
102
{ACAD_REACTORS
330
47
102
}
330
47
100
AcDbProxyObject
 90
      499
 91
      503
 93
      225
310
90A3622203D2031272D302200000000000006100000000000000284000
  0
ACAD_PROXY_OBJECT
  5
68
102
{ACAD_REACTORS
330
47
102
}
330
47
100
AcDbProxyObject
 90
      499
 91
      503
 93
      249
310
90D31272D3022203D2031272D30220000000000000A100000000000000284000
  0
ACAD_PROXY_OBJECT
  5
2F
102
{ACAD_REACTORS
330
2A
102
}
330
2A
100
AcDbProxyObject
 90
      499
 91
      501
 93
      436
310
42CC9915DA5C99599C985B595049028333333333333E33F0000000000000F90107901411070040501600405405064090741402480A0340
1001
ACAD
1000
AcDbSavedByObjectVersion
1070
     0
  0
ACAD_PROXY_OBJECT
  5
32
102
{ACAD_REACTORS
330
2A
102
}
330
2A
100
AcDbProxyObject
 90
      499
 91
      501
 93
      388
310
4150985CDA58D07406404333333333333E33F0000000000000F90107A41107004050150841D405064090741402480A0350
1001
ACAD
1000
AcDbSavedByObjectVersion
1070
     0
  0
ACAD_PROXY_OBJECT
  5
36
102
{ACAD_REACTORS
330
2A
102
}
330
2A
100
AcDbProxyObject
 90
      499
 91
      501
 93
      428
310
42109C9A59DA1D195B90C409028333333333333E33F0000000000000F9010790141107004050150841D405064090741402480A029950
1001
ACAD
1000
AcDbSavedByObjectVersion
1070
     0
  0
ACAD_PROXY_OBJECT
  5
3A
102
{ACAD_REACTORS
330
2A
102
}
330
2A
100
AcDbProxyObject
 90
      499
 91
      501
 93
      452
310
42D0DBDB1BDC90DA185B99D95104090240C333333333333E33F0000000000000F90108901411070040501508421405064090741402480A0350
1001
ACAD
1000
AcDbSavedByObjectVersion
1070
     0
  0
ACAD_PROXY_OBJECT
  5
34
102
{ACAD_REACTORS
330
2A
102
}
330
2A
100
AcDbProxyObject
 90
      499
 91
      501
 93
      500
310
4290DBDB98D95C1D1D585B10940D028333333333333E33F0000000000000F90107902409070040501000000000018199010841D405064090740C02480A0340
1001
ACAD
1000
AcDbSavedByObjectVersion
1070
     0
  0
ACAD_PROXY_OBJECT
  5
35
102
{ACAD_REACTORS
330
2A
102
}
330
2A
100
AcDbProxyObject
 90
      499
 91
      501
 93
      412
310
40D11A5B50B409028333333333333E33F0000000000000F9010790141107004050150841D405064090741402480A02677FFFFFD0
1001
ACAD
1000
AcDbSavedByObjectVersion
1070
     0
  0
ACAD_PROXY_OBJECT
  5
3D
102
{ACAD_REACTORS
330
2A
102
}
330
2A
100
AcDbProxyObject
 90
      499
 91
      501
 93
      452
310
43115919D950DBDB1BDC93D999916409028333333333333E33F0000000000000F9010790141107004050150841D405064090741402480A0350
1001
ACAD
1000
AcDbSavedByObjectVersion
1070
     0
  0
ACAD_PROXY_OBJECT
  5
39
102
{ACAD_REACTORS
330
2A
102
}
330
2A
100
AcDbProxyObject
 90
      499
 91
      501
 93
      444
310
42D19858D95C185D1D195C9B90F409028333333333333E33F0000000000000F9010790141107004050150841D405064090741402480A0350
1001
ACAD
1000
AcDbSavedByObjectVersion
1070
     0
  0
ACAD_PROXY_OBJECT
  5
2B
102
{ACAD_REACTORS
330
2A
102
}
330
2A
100
AcDbProxyObject
 90
      499
 91
      501
 93
      380
310
41119B185D240901404333333333333E33F0000000000000F9010740A907004050150841D405064090741402480A1B50
1001
ACAD
1000
AcDbSavedByObjectVersion
1070
     0
  0
ACAD_PROXY_OBJECT
  5
2C
102
{ACAD_REACTORS
330
2A
102
}
330
2A
100
AcDbProxyObject
 90
      499
 91
      501
 93
      468
310
43519B185D15DA5D1A115919D95CD0140901404333333333333E33F0000000000000F90107409019070040501600405405064090741402480A1B50
1001
ACAD
1000
AcDbSavedByObjectVersion
1070
     0
  0
ACAD_PROXY_OBJECT
  5
2D
102
{ACAD_REACTORS
330
2A
102
}
330
2A
100
AcDbProxyObject
 90
      499
 91
      501
 93
      404
310
41D1DBDD5C985D5910240902404333333333333E33F0000000000000F9010740A9070040501641D405064090741402480A1B50
1001
ACAD
1000
AcDbSavedByObjectVersion
1070
     0
  0
ACAD_PROXY_OBJECT
  5
2E
102
{ACAD_REACTORS
330
2A
102
}
330
2A
100
AcDbProxyObject
 90
      499
 91
      501
 93
      492
310
4411DBDD5C985D5915DA5D1A115919D95CD0340902404333333333333E33F0000000000000F90107409019070040501600405405064090741402480A1B50
1001
ACAD
1000
AcDbSavedByObjectVersion
1070
     0
  0
ACAD_PROXY_OBJECT
  5
31
102
{ACAD_REACTORS
330
2A
102
}
330
2A
100
AcDbProxyObject
 90
      499
 91
      501
 93
      476
310
41921A5919195B90640502408333333333333E33F0000000000000F901079024090700405020000000000001110200405405064090740C02480A0340
1001
ACAD
1000
AcDbSavedByObjectVersion
1070
     0
  0
ACAD_PROXY_OBJECT
  5
3B
102
{ACAD_REACTORS
330
2A
102
}
330
2A
100
AcDbProxyObject
 90
      499
 91
      501
 93
      428
310
42529A5D1D195C93D999914409028333333333333E33F0000000000000F9010790141107004050150A41D405064090741402480A0350
1001
ACAD
1000
AcDbSavedByObjectVersion
1070
     0
  0
ACAD_PROXY_OBJECT
  5
38
102
{ACAD_REACTORS
330
2A
102
}
330
2A
100
AcDbProxyObject
 90
      499
 91
      501
 93
      444
310
42D31A5B995C185D1D195C9B90E409028333333333333E33F0000000000000F9010790141107004050750841D405064090741402483A0350
1001
ACAD
1000
AcDbSavedByObjectVersion
1070
     0
  0
ACAD_PROXY_OBJECT
  5
3C
102
{ACAD_REACTORS
330
2A
102
}
330
2A
100
AcDbProxyObject
 90
      499
 91
      501
 93
      444
310
42D3DD995C9A185B99D3D999915409028333333333333E33F0000000000000F9010790141107004050150941D405064090741402480A0350
1001
ACAD
1000
AcDbSavedByObjectVersion
1070
     0
  0
ACAD_PROXY_OBJECT
  5
33
102
{ACAD_REACTORS
330
2A
102
}
330
2A
100
AcDbProxyObject
 90
      499
 91
      501
 93
      428
310
425499585B1A5CDD1A58D08409038333333333333E33F0000000000000F9010740A907004050150800405405064090740C02480A1B40
1001
ACAD
1000
AcDbSavedByObjectVersion
1070
     0
  0
ACAD_PROXY_OBJECT
  5
42
102
{ACAD_REACTORS
330
2A
102
}
330
2A
100
AcDbProxyObject
 90
      499
 91
      501
 93
      420
310
4194DA1859195911B40902404333333333333E33F0000000000000F9010740A41107004050150800405405064090840C02480A0B40
1001
ACAD
1000
AcDbSavedByObjectVersion
1070
     0
  0
ACAD_PROXY_OBJECT
  5
41
102
{ACAD_REACTORS
330
2A
102
}
330
2A
100
AcDbProxyObject
 90
      499
 91
      501
 93
      516
310
4454DA18591959081DDA5D1A08195919D95CD1A40902404333333333333E33F0000000000000F901074090142907004050250800405405064090740C02480A0B40
1001
ACAD
1000
AcDbSavedByObjectVersion
1070
     0
  0
ACAD_PROXY_OBJECT
  5
3E
102
{ACAD_REACTORS
330
2A
102
}
330
2A
100
AcDbProxyObject
 90
      499
 91
      501
 93
      532
310
4394DA1859195CC81BD98811DC985E5174090240C333333333333E33F0000000000000F901079024090741D01000000000000111010841D405064090740C02480A0340
1001
ACAD
1000
AcDbSavedByObjectVersion
1070
     0
  0
ACAD_PROXY_OBJECT
  5
3F
102
{ACAD_REACTORS
330
2A
102
}
330
2A
100
AcDbProxyObject
 90
      499
 91
      501
 93
      476
310
41D4DAD95D18DA1E51840502408333333333333E33F0000000000000F901079024090741D01000000000000111010B41D405064090741802480A0340
1001
ACAD
1000
AcDbSavedByObjectVersion
1070
     0
  0
ACAD_PROXY_OBJECT
  5
37
102
{ACAD_REACTORS
330
2A
102
}
330
2A
100
AcDbProxyObject
 90
      499
 91
      501
 93
      412
310
41D51A1A58DAD95B90D409028333333333333E33F0000000000000F9010790141107004050150C41D405064090741402480A0350
1001
ACAD
1000
AcDbSavedByObjectVersion
1070
     0
  0
ACAD_PROXY_OBJECT
  5
30
102
{ACAD_REACTORS
330
2A
102
}
330
2A
100
AcDbProxyObject
 90
      499
 91
      501
 93
      420
310
4255DA5C99599C985B595059028333333333333E33F0000000000000F90107901411070040501600405405064090740C02480A0340
1001
ACAD
1000
AcDbSavedByObjectVersion
1070
     0
  0
ACAD_PROXY_OBJECT
  5
40
102
{ACAD_REACTORS
330
2A
102
}
330
2A
100
AcDbProxyObject
 90
      499
 91
      501
 93
      404
310
41560B54985E51940902404000000000000E03F0000000000000F9010740501907004050150841D405064090740C02480A1B40
1001
ACAD
1000
AcDbSavedByObjectVersion
1070
     0
  0
XRECORD
  5
404
102
{ACAD_REACTORS
330
3FB
102
}
330
3FB
100
AcDbXrecord
 90
        0
  0
XRECORD
  5
41A
102
{ACAD_REACTORS
330
3FB
102
}
330
3FB
100
AcDbXrecord
1000
DSTYLE
1002
{
1070
   171
 70
     2
1070
   143
 40
25.4
1070
   274
 70
     2
1070
    41
 40
0.18
1070
   141
 40
0.09
1070
   271
 70
     4
1070
    43
 40
0.38
1070
   278
 70
    46
1070
    44
 40
0.18
1070
    42
 40
0.0625
1070
   147
 40
0.09
1070
    77
 70
     0
1070
   272
 70
     4
1070
    73
 70
     1
1070
   172
 70
     0
1070
    74
 70
     1
1070
   283
 70
     1
1070
   340
340
11
1070
   140
 40
0.18
1070
   284
 70
     0
1070
    78
 70
     0
1002
}
  0
XRECORD
  5
405
102
{ACAD_REACTORS
330
3FB
102
}
330
3FB
100
AcDbXrecord
  1
{BACA01C3-5BCE-474D-B93E-809A5DEC4A0A}
  0
XRECORD
  5
3FE
102
{ACAD_REACTORS
330
3FB
102
}
330
3FB
100
AcDbXrecord
  1

  0
XRECORD
  5
403
102
{ACAD_REACTORS
330
3FB
102
}
330
3FB
100
AcDbXrecord
 90
        4
  0
XRECORD
  5
400
102
{ACAD_REACTORS
330
3FB
102
}
330
3FB
100
AcDbXrecord
340
1A
  0
XRECORD
  5
402
102
{ACAD_REACTORS
330
3FB
102
}
330
3FB
100
AcDbXrecord
 90
    10781
  0
XRECORD
  5
401
102
{ACAD_REACTORS
330
3FB
102
}
330
3FB
100
AcDbXrecord
340
19
  0
XRECORD
  5
407
102
{ACAD_REACTORS
330
3FB
102
}
330
3FB
100
AcDbXrecord
 40
0.0
  0
XRECORD
  5
40A
102
{ACAD_REACTORS
330
3FB
102
}
330
3FB
100
AcDbXrecord
340
0
  0
XRECORD
  5
410
102
{ACAD_REACTORS
330
3FB
102
}
330
3FB
100
AcDbXrecord
 10
0.0
 20
0.0
 30
0.0
  0
XRECORD
  5
40C
102
{ACAD_REACTORS
330
3FB
102
}
330
3FB
100
AcDbXrecord
 10
0.0
 20
0.0
 30
0.0
  0
XRECORD
  5
40F
102
{ACAD_REACTORS
330
3FB
102
}
330
3FB
100
AcDbXrecord
 10
0.0
 20
0.0
 30
0.0
  0
XRECORD
  5
40D
102
{ACAD_REACTORS
330
3FB
102
}
330
3FB
100
AcDbXrecord
 10
0.0
 20
0.0
 30
0.0
  0
XRECORD
  5
40E
102
{ACAD_REACTORS
330
3FB
102
}
330
3FB
100
AcDbXrecord
 10
0.0
 20
0.0
 30
0.0
  0
XRECORD
  5
40B
102
{ACAD_REACTORS
330
3FB
102
}
330
3FB
100
AcDbXrecord
 10
0.0
 20
0.0
 30
0.0
  0
XRECORD
  5
408
102
{ACAD_REACTORS
330
3FB
102
}
330
3FB
100
AcDbXrecord
340
0
  0
XRECORD
  5
409
102
{ACAD_REACTORS
330
3FB
102
}
330
3FB
100
AcDbXrecord
 70
     0
  0
XRECORD
  5
3FF
102
{ACAD_REACTORS
330
3FB
102
}
330
3FB
100
AcDbXrecord
  1

  0
XRECORD
  5
3FC
102
{ACAD_REACTORS
330
3FB
102
}
330
3FB
100
AcDbXrecord
 90
        1
  0
XRECORD
  5
3FD
102
{ACAD_REACTORS
330
3FB
102
}
330
3FB
100
AcDbXrecord
 90
       70
  0
XRECORD
  5
413
102
{ACAD_REACTORS
330
3FB
102
}
330
3FB
100
AcDbXrecord
340
0
  0
XRECORD
  5
419
102
{ACAD_REACTORS
330
3FB
102
}
330
3FB
100
AcDbXrecord
 10
0.0
 20
0.0
 30
0.0
  0
XRECORD
  5
415
102
{ACAD_REACTORS
330
3FB
102
}
330
3FB
100
AcDbXrecord
 10
0.0
 20
0.0
 30
0.0
  0
XRECORD
  5
418
102
{ACAD_REACTORS
330
3FB
102
}
330
3FB
100
AcDbXrecord
 10
0.0
 20
0.0
 30
0.0
  0
XRECORD
  5
416
102
{ACAD_REACTORS
330
3FB
102
}
330
3FB
100
AcDbXrecord
 10
0.0
 20
0.0
 30
0.0
  0
XRECORD
  5
417
102
{ACAD_REACTORS
330
3FB
102
}
330
3FB
100
AcDbXrecord
 10
0.0
 20
0.0
 30
0.0
  0
XRECORD
  5
414
102
{ACAD_REACTORS
330
3FB
102
}
330
3FB
100
AcDbXrecord
 10
0.0
 20
0.0
 30
0.0
  0
XRECORD
  5
411
102
{ACAD_REACTORS
330
3FB
102
}
330
3FB
100
AcDbXrecord
340
0
  0
XRECORD
  5
412
102
{ACAD_REACTORS
330
3FB
102
}
330
3FB
100
AcDbXrecord
 70
     0
  0
XRECORD
  5
406
102
{ACAD_REACTORS
330
3FB
102
}
330
3FB
100
AcDbXrecord
  1
{FAEB1C32-E019-11D5-929B-00C0DF256EC4}
  0
DICTIONARYVAR
  5
424
102
{ACAD_REACTORS
330
41B
102
}
330
41B
100
DictionaryVariables
280
     0
  1
1:1
  0
DICTIONARYVAR
  5
420
102
{ACAD_REACTORS
330
41B
102
}
330
41B
100
DictionaryVariables
280
     0
  1
2
  0
DICTIONARYVAR
  5
421
102
{ACAD_REACTORS
330
41B
102
}
330
41B
100
DictionaryVariables
280
     0
  1
1
  0
DICTIONARYVAR
  5
425
102
{ACAD_REACTORS
330
41B
102
}
330
41B
100
DictionaryVariables
280
     0
  1
1
  0
DICTIONARY
  5
428
330
45
100
AcDbDictionary
280
     1
  3
ACAD_XREC_ROUNDTRIP
360
429
  0
DICTIONARY
  5
426
330
44
100
AcDbDictionary
280
     1
  3
ACAD_XREC_ROUNDTRIP
360
427
  0
DICTIONARY
  5
42A
330
46
100
AcDbDictionary
280
     1
  3
ACAD_XREC_ROUNDTRIP
360
42B
  0
XRECORD
  5
429
102
{ACAD_REACTORS
330
428
102
}
330
428
100
AcDbXrecord
102
MATERIAL
148
0.0
149
0.0
149
0.0
 93
        0
 94
      127
282
     0
 72
     1
 77
     1
171
     1
175
     1
179
     1
273
     0
  0
XRECORD
  5
427
102
{ACAD_REACTORS
330
426
102
}
330
426
100
AcDbXrecord
102
MATERIAL
148
0.0
149
0.0
149
0.0
 93
        0
 94
      127
282
     0
 72
     1
 77
     1
171
     1
175
     1
179
     1
273
     0
  0
XRECORD
  5
42B
102
{ACAD_REACTORS
330
42A
102
}
330
42A
100
AcDbXrecord
102
MATERIAL
148
0.0
149
0.0
149
0.0
 93
        0
 94
      127
282
     0
 72
     1
 77
     1
171
     1
175
     1
179
     1
273
     0
  0
ENDSEC
  0
EOF
